<?xml version="1.0" encoding="utf-8"?>
<!-- Generator: Adobe Illustrator 19.2.0, SVG Export Plug-In . SVG Version: 6.00 Build 0)  -->
<svg version="1.1" id="Layer_1" xmlns="http://www.w3.org/2000/svg" xmlns:xlink="http://www.w3.org/1999/xlink" x="0px" y="0px"
	 viewBox="0 0 360 234" style="enable-background:new 0 0 360 234;" xml:space="preserve">
<style type="text/css">
	.st0{fill:#030583;}
	.st1{fill:#01044F;}
	.st2{fill:#0204A9;}
	.st3{fill:#0305B0;}
	.st4{fill:#03058C;}
	.st5{fill:#020468;}
	.st6{fill:#040CC0;}
	.st7{fill:#0406B9;}
	.st8{fill:#030599;}
	.st9{fill:#020478;}
	.st10{fill:#040672;}
	.st11{fill:#020455;}
</style>
<g>
	<path class="st0" d="M200.2,150.1c-7.7,13.6-15.4,27.3-23.2,40.9c-0.7-0.9-1.8-1.8-1.9-2.8c-0.3-2.8-0.1-5.7-0.1-8.5
		c0-3.9,0-7.8-0.2-11.7c-0.3-8.4-0.6-16.9-1-25.3c1.2-2.2,2.3-4.4,3.6-6.5c1.4-2.3,3.1-4.4-0.1-6.8c-0.6-0.5-0.2-2.8,0.3-4
		c1.7-4.3,3.9-8.5,5.3-12.9c0.7-2.3,0.8-5.2,0-7.5c-1.9-5.8-4.3-11.5-6.7-17.2c-3.1-7.4-3.3-14.7-1.3-22.4c0.8-3.2,0-6.7,0-10.1
		c0-4.8-0.4-9.6,0.5-14.2c0.7-3.8,0.5-5.8-3.3-7.8c-7.1-3.6-7.9-8.6-3.6-15c0.6-0.8,0.5-2.3,0.3-3.4c-0.3-1.3-1.2-2.4-1.6-3.6
		c-1-3.2-0.2-5.4,3-6.9c1.7-0.8,3.1-2.2,4.7-3.3c2.7,0,5.3,0,8,0c1.3,0.9,2.6,1.9,4,2.6c5,2.7,5.8,4,4.2,9.4
		c-0.8,2.4-0.2,3.7,1.5,5.5c4.5,4.7,3.6,11.1-2.4,14.1c-3.1,1.5-3.7,3-2.6,6.1c1.1,3.3,1.9,6.7,2.2,10.2c0.3,3,0.3,6.2-0.3,9.1
		c-1.1,5.3,0.6,9.8,3.1,14.2c0.3,0.5,2.3,0.5,2.9,0c0.8-0.6,1-2.1,1.4-3.1c3.3,0.9,1.7,3.4,1.7,5.3c-0.1,4.4-0.5,8.9-0.6,13.3
		c-0.1,6.3-0.1,12.6,0,18.9c0,1.8,0.3,3.6,0.3,5.4c0.1,3.8,0,7.5,0,11.3c0,4.6,0,9.2,0.1,13.8c0,1.3-0.1,2.6,0.1,3.8
		C199.1,143.9,199.6,147,200.2,150.1z M189,11.8c-1.1-1.6-1.8-2.7-2.5-3.8c-0.9,1.5-2.2,3-2.5,4.6c-0.2,0.9,1.2,2.2,1.8,3.3
		C186.7,14.6,187.7,13.3,189,11.8z M171.2,8.8c1.4,2.9,2.5,4.9,3.5,6.9c0.4-0.2,1.1-0.5,1.1-0.7C176,12.3,175.3,10.2,171.2,8.8z"/>
	<path class="st1" d="M317.1,127.8c1,0.4,2,0.9,3,1.3c0.7,0,1.3,0,2,0l0.3-0.1c0.3-0.1,0.5-0.3,0.7-0.6c2-0.5,4-1,6.1-1.4
		c3.3-0.6,5.9,1.1,7.1,4.4c0.4,1,0.6,2.1,1,3.2c1,2.8,2.4,4.8,6,4.4c1.3-0.2,3.8,0.8,3.9,1.6c0.4,2.4,0.3,5-2.8,6.1
		c-4.6,1.6-8.6,0.4-12.4-2.3c-1.1-1.4-2.1-1.4-2.7,0.3c-0.3,1-0.2,2.2-0.2,3.2l0,0c0,1,0,2-0.1,3l0,0c0.3,0.3,0.6,0.7,0.9,1
		c0.4,0.3,0.8,0.6,1.2,0.8c0.6,0.4,1.1,0.8,1.7,1.2c10.8,8.7,16.9,19.8,16.5,34c-0.1,6.4,2.1,12,5.4,17.3c1.3,2.1,2.7,4.2,3.7,6.5
		c4.3,10.1-1.4,19.1-12.4,19.4c-2.6,0.1-5.3-0.4-7.9-0.8c-1.6-0.2-3.1-0.6-5.8-1.1c2.1,2.5,3.4,4,4.8,5.6c-9.3,0-18.7,0-28,0
		c0.9-0.4,1.9-0.6,2.8-1.1c0.7-0.4,1.4-1,2-1.5c0.4-2.1,1.1-4.2,1.1-6.2c0.1-8.7,0.1-17.4,0.1-26.1c1.8-0.1,3.6-0.2,6.2-0.4
		c-1.9-3.6-3.5-6.7-5.2-9.9c0.7-7,1.5-14.1,1.9-21.1c0.3-6.4,0.2-12.8,0-19.1C317.8,142.3,317.4,135.1,317.1,127.8z"/>
	<path class="st2" d="M118.9,154c-2.8,5.4-4.6,11.8-8.6,16c-4.5,4.7-5.1,10.5-7.2,15.8c-0.3,0.9,0.1,2.2,0.6,3.2
		c1.5,3.3,3,6.6,4.9,9.6c1.9,3,4.2,5.7,6.4,8.5c0,7.6,0,15.1,0,22.7c0,0.7,0.6,1.5,0.9,2.2c0,1,0,2,0,3c-10,0-20,0-30,0
		c-2.3-2.1-4.7-4.1-7-6.2c0-3.1-0.1-6.1,0-9.2c0.2-4.4,0.9-8.9,0.9-13.3c0-5.3-0.8-10.5-0.9-15.8c-0.2-9.3,0.1-18.6-0.1-27.9
		c-0.1-4.6-0.9-9.2-0.8-13.8c0-5,0.6-10,1.1-15c0.1-0.8,1.1-1.5,1.7-2.2c2.9,0.5,6,0.6,8.7,1.7c8.6,3.2,10.3,15.2,3.2,21.1
		c-3.8,3.1-3.7,3.8,0.3,6.7c2.2,1.7,3.2,0.5,4.5-0.9c5.9-6.4,11.8-12.9,17.7-19.3c3,2.7,1.8,6.3,2,9.6
		C117.4,151.8,116.3,153.6,118.9,154z"/>
	<path class="st3" d="M80.9,131.5c-0.6,0.7-1.6,1.4-1.7,2.2c-0.5,5-1,10-1.1,15c0,4.6,0.8,9.2,0.8,13.8c0.1,9.3-0.1,18.6,0.1,27.9
		c0.1,5.3,0.9,10.5,0.9,15.8c0,4.4-0.7,8.9-0.9,13.3c-0.2,3.1,0,6.1,0,9.2c-4.7-0.6-9.3-1.3-14-1.8c-0.6-0.1-1.3,0.6-2,1
		c0.2,0.3,0.5,0.7,0.7,1c0.8,0.7,1.5,1.4,2.3,2.1c0.3,0.3,0.5,0.6,0.8,0.9c0,0,0.2,0.2,0.2,0.2c0.3,0.3,0.6,0.5,0.8,0.8
		c0.7,0.7,1.5,1.3,2.2,2c-4.3,0-8.7,0-13,0c0.3-10,0.7-20,1-29.9c4.9,0.5,9.9,1,15.8,1.6c-3.9-5.6-7.1-10.6-10.7-15.2
		c-3.9-5-5.6-10.1-2.9-16.1c0.9-2,0.1-3-1.5-4c-1.9-1.2-3.7-2.7-5.5-4.1c3-0.2,3.8-2,3.8-4.8c0-5.1,0.2-10.1,0.3-15.2
		c0.6,0.6,1.1,1.2,1.8,1.7c0.8,0.7,1.7,1.2,2.6,1.8c0.4-0.9,0.9-1.7,1-2.7c0.5-2.6,0.5-5.3,1.2-7.8c0.5-1.9,1.4-4.8,2.9-5.3
		C71.3,133.4,76.2,132.6,80.9,131.5z"/>
	<path class="st4" d="M173.9,142.7c0.3,8.4,0.7,16.9,1,25.3c0.1,3.9,0.1,7.8,0.2,11.7c0,2.8-0.2,5.7,0.1,8.5c0.1,1,1.3,1.9,1.9,2.8
		c-3.3,6.2-6.4,12.6-10.1,18.6c-3.7,5.9-8.3,11.3-12,17.2c-1.5,2.4-2,5.4-2.9,8.2c-5.7,0-11.3,0-17,0c9-8.4,12.5-19.4,14-31.1
		c0.6-5,2.4-9.5,6-12.8c4.6-4.3,6.3-9.6,6.7-15.6C162.5,163.3,167.3,152.6,173.9,142.7z"/>
	<path class="st5" d="M237,217.2c5.3-0.8,5.3-0.8,4-4.3c-0.3-0.3-0.5-0.7-0.8-1c0,0-0.2-0.2-0.2-0.2c-0.1-0.3-0.3-0.5-0.6-0.6
		c-0.8-1-1.7-1.9-2.5-2.9c0.9-2.9,2.5-5.8,2.6-8.8c0.2-4.6-0.2-9.2-1-13.8c-0.4-2.3,0.3-2.6,2.1-2.6c5.7,9.1,13.1,17.3,16.3,27.9
		c0.3,0.9,1.5,2.2,2.3,2.2c6.5-0.6,13.2-0.2,19.3-3.4c-3.1-6.6-2.3-8.2,4.4-9.7c0.9,2.4,2.5,4.8,2.6,7.3c0.2,5.5-0.3,11-0.6,16.5
		c-5.9,0.5-12,0.5-18.3,3.8c5.2,1,3.1,4.9,4.3,7.3c-7.7,0-15.3,0-23,0c1.7-6.4,1.7-6.4-5.3-7c-2.3-0.2-4.5-0.7-6.7-1.1
		C237,223.7,238.1,220.6,237,217.2z"/>
	<path class="st6" d="M28,153.2c-11.1-0.2-21.5-7.6-25.3-17.9c-0.4-1.2-1.1-2.2-1.7-3.3c0-3.3,0-6.7,0-10c0.5-1,1.1-1.9,1.5-2.9
		c3.9-11.2,13.4-18.3,25.5-18.8c0.2,2.5,0.7,4.9,0.7,7.4c0,9.8-0.1,19.7-0.3,29.5c0,1.8-0.4,3.6-0.4,5.4C28,146.1,28,149.7,28,153.2
		z"/>
	<path class="st7" d="M58,205.1c-0.3,10-0.7,20-1,29.9c-2.3,0-4.7,0-7,0c-6.6-6.3-13.3-12.5-19.9-18.9c-5-4.9-4.3-8.2,2.6-9.2
		C41.1,205.7,49.6,205.6,58,205.1z"/>
	<path class="st4" d="M138,97.9c9.9-2.5,18,0,25.1,7.5c9.2,9.7,12,22.7,5.6,34.2c-5,8.9-14.4,16.9-25.7,15.3
		c-1.8-0.3-3.6-0.5-5.4-0.8l-0.3,0.2L137,154c0.6-2.7,1.6-5.4,1.7-8.1c0.2-2.6-0.7-5.2-0.7-7.9c0.1-6.9,0.8-13.7,0.8-20.6
		C138.9,111,138.3,104.5,138,97.9z"/>
	<path class="st7" d="M28,153.2c0-3.6,0-7.1,0-10.7c0-1.8,0.4-3.6,0.4-5.4c0.1-9.8,0.3-19.7,0.3-29.5c0-2.5-0.5-4.9-0.7-7.4
		c11.9-0.6,23,5.9,26.8,15.9c1.6,4.3,3.8,6.2,8.1,5.7c-0.3,2-0.7,4.1-1,6.1c-3.5-0.2-5.6,1-5.8,4.9c-0.1,1.7-0.9,3.6-1.9,5.1
		c-1.5,2.4-1.4,4.2,0.6,6.1c0.9,0.9,1.6,2.1,2.4,3.1c-0.1,5.1-0.3,10.1-0.3,15.2c0,2.8-0.8,4.5-3.8,4.8c-1.9-4-3.7-8.1-5.6-12.1
		c-2.7-5.6-2.7-5.6-8.7-3.4c-0.6,0.2-1.3,0.2-1.9,0.3c-0.7,0.2-1.3,0.4-2,0.7C32.7,152.9,30.3,153,28,153.2z"/>
	<path class="st8" d="M138,97.9c0.3,6.5,0.9,13.1,0.9,19.6c0,6.9-0.7,13.7-0.8,20.6c-0.1,2.6,0.9,5.3,0.7,7.9
		c-0.2,2.7-1.1,5.4-1.7,8.1c-2.8-1.2-5.8-2.2-8.5-3.8c-4.2-2.5-4.9-2.5-7.7,1.6c-0.5,0.8-1.3,1.5-2,2.2c-2.6-0.4-1.5-2.2-1.6-3.8
		c-0.2-3.2,0.9-6.9-2-9.6c1.7-2.1,3.7-3.7,2.5-7.2c-2.3-7-2-7.1-9.8-7.2c-0.3,0-0.7-0.1-1-0.2c0.3-2,0.7-3.9,1-5.9
		c0.5-0.1,1-0.2,1.5-0.2c5,0.7,7.4-1.2,9.3-6.2C122,105.1,128.6,99.6,138,97.9z"/>
	<path class="st3" d="M108,120.2c-0.3,2-0.7,3.9-1,5.9c-15,0.7-30,1.3-45,2c0.3-2,0.7-4.1,1-6.1c13.2-0.6,26.4-1.2,39.6-1.8
		C104.4,120.1,106.2,120.2,108,120.2z"/>
	<path class="st8" d="M116,232c-0.3-0.7-0.9-1.4-0.9-2.2c-0.1-7.6,0-15.1,0-22.7c4.5,3,9,5.9,9.1,12.3
		C124.2,225.6,121.9,229.9,116,232z"/>
	<path class="st8" d="M137.6,154.1c1.8,0.3,3.6,0.5,5.4,0.8C141.2,154.7,139.4,154.4,137.6,154.1z"/>
	<path class="st9" d="M200.2,150.1c-0.5-3.1-1.1-6.2-1.6-9.3c-0.2-1.3-0.1-2.6-0.1-3.8c0-4.6,0-9.2-0.1-13.8c0-3.8,0-7.5,0-11.3
		c0-1.8-0.3-3.6-0.3-5.4c0-6.3-0.1-12.6,0-18.9c0.1-4.4,0.5-8.9,0.6-13.3c0-1.9,1.6-4.4-1.7-5.3c-0.1-0.6-0.1-1.1-0.2-1.7
		c0.1-3.8,3.5-7.6,0-11.5c3.9-9,10.5-11.2,18.6-6.1c2.1,1.3,4,2.9,5.9,4.5c3.4,2.8,5.7,5.6,2.9,10.6c-1.7,3,0.4,7.7-3.9,10
		c0.5,0.8,1,1.5,1.5,2.3c-0.3,1.1-0.9,2.2-1,3.3c-0.4,6.4-0.8,12.8-1,19.2c0,1.2,0.7,2.5,1,3.8c-3.4,5.7-3.5,11.4-0.6,17.3
		c0.4,0.7,0.4,1.6,0.5,2.4c0,3.7,0,7.5,0,11.2c0,1.5,0.2,3,0.3,4.5c0.5,5.6,2,11.3,1.3,16.7c-0.9,6.7-1.1,13.4-0.7,20.1
		c0.1,2.3,0,4.5-3.1,4.7c-5.9-7-10.4-14.9-13.2-23.7C204.8,153.4,203.7,150.7,200.2,150.1z"/>
	<path class="st10" d="M218.9,180c3.1-0.2,3.2-2.4,3.1-4.7c-0.4-6.7-0.2-13.3,0.7-20.1c0.7-5.4-0.8-11.1-1.3-16.7
		c-0.1-1.5-0.3-3-0.3-4.5c0-3.7,0-7.5,0-11.2c1.6,0.8,3.3,1.6,4.9,2.2c4.6,1.9,6,1.4,9.2-2.4c2.5-3.1,5.1-6.1,7.9-8.9
		c3.4-3.3,3.6-4.5,0-7.3c-4.5-3.4-9.2-6.6-13.8-9.7c-2-1.4-3.9-1.6-5.1,1.4c-0.7,1.8-2,3.3-3.1,5c-0.4-1.3-1.1-2.5-1-3.8
		c0.2-6.4,0.6-12.8,1-19.2c0.1-1.1,0.6-2.2,1-3.3c4.7,1.9,10,2.9,14,5.8c4.8,3.5,8.4,8.6,12.6,13c2.5,2.6,5.3,4.9,7.9,7.4
		c4.8,4.7,5.1,6.8,0.1,11.4c-6.7,6.1-13.9,11.6-20.9,17.4c-0.5,0.3-1.1,0.7-1.6,1l0,0c-0.7,0.2-1.3,0.5-2,0.7c-0.7,0-1.4,0-2.1,0
		c-1.3,0-2.6,0-3.9,0c-0.1,0.4-0.2,0.9-0.3,1.3c-0.1,0.1-0.3,0.3-0.3,0.3c0.1,0.2,0.3,0.4,0.5,0.6l0.3,0.2l0,0.3
		c0.2,0.5,0.5,1,0.7,1.5c0.3,0.2,0.4,0.4,0.2,0.8c0.3,0.7,0.6,1.5,0.9,2.2l0.3,0.2l-0.1,0.3c0.3,0.8,0.5,1.6,0.8,2.4l0.3,0.2
		c0,0-0.1,0.4-0.1,0.4c0.3,0.8,0.5,1.6,0.8,2.4l0.3,0.2l-0.1,0.3c0.3,0.8,0.6,1.6,0.8,2.4l0.2,0.2c0,0-0.1,0.3-0.1,0.3
		c0.3,0.8,0.6,1.7,0.8,2.5c0.2,1.1,0,2.4,0.6,3.2c1.4,2,1.9,4.6,6.2,3c4.6-1.6,10.1-0.7,15.2-0.8c-3.2,0.5-6.5,1-9.6,1.7
		c-0.9,0.2-1.9,1.2-2.1,2c-0.6,2.2-0.8,4.5-1.1,6.8c-2.3-0.1-3.8,0.4-3,3.3c1,3.6,1.8,7.2,2.7,10.8c-1.8,0-2.5,0.2-2.1,2.6
		c0.8,4.5,1.2,9.2,1,13.8c-0.1,3-1.7,5.9-2.6,8.8c-3.9-3.7-5.7-8.5-6.2-13.7c-0.3-3-1.6-5.1-4-6.9
		C223.8,185.4,221.5,182.6,218.9,180z"/>
	<path class="st11" d="M317.1,127.8c0.3,7.3,0.7,14.5,0.9,21.8c0.2,6.4,0.3,12.8,0,19.1c-0.4,7.1-1.2,14.1-1.9,21.1
		c-3.1-2-6.4-3.9-9.4-6.2c-1.7-1.3-3.9-3.2-4.2-5c-0.6-4.3-3-5.3-6.7-5.5c-1.3-0.1-2.6-0.4-3.9-0.6c-0.4-0.1-0.9-0.3-1.3-0.4
		l-0.3,0.1L290,172c3.2-4.5,2.8-9.2,1-14c-0.2-0.6,0-1.3,0-1.9c0.2-0.3,0.5-0.3,0.8-0.1c2.1,0,4.2,0.3,6.2-0.2c1.8-0.5,3-1.8,0-2.7
		l0,0c-0.6-1-1.3-2-1.9-3l0-0.1c-0.7-1.7-1.4-3.3-2.1-5l-0.1-0.3c-0.3-3.3-0.6-6.6-0.9-9.9c0.3-0.3,0.6-0.5,0.9-0.8
		c0.4-0.3,0.8-0.5,1.2-0.8l0.1-0.3l0.3,0c0.5-0.3,1-0.6,1.5-0.8l0.1-0.2l0.3,0c0.5-0.2,1.1-0.5,1.6-0.7
		C304.5,127.1,310.3,124.9,317.1,127.8z"/>
	<path class="st5" d="M291,156.1c0,0.6-0.2,1.4,0,1.9c1.7,4.8,2.1,9.6-1,14c-0.8,0-1.7,0.1-2.5,0c-9.2-1.8-18.4-2.3-27.7-1.5
		c-4.9,0.4-9.9-0.6-14.9-1c-0.5-0.1-1-0.3-1.4-0.4c-0.8-0.1-1.7-0.2-2.5-0.2c0.3-2.3,0.5-4.6,1.1-6.8c0.2-0.8,1.3-1.8,2.1-2
		c3.2-0.7,6.4-1.2,9.6-1.7c1.4-0.1,2.7-0.1,4.1-0.2c0.3,0,0.6-0.1,1-0.1c2,0,4,0,6,0c0.3,0,0.7,0.1,1,0.1c1,0,2,0.1,3.1,0.1
		c1,0.2,2.1,0.4,3.1,0.7C278.4,158,284.7,157,291,156.1z"/>
	<path class="st0" d="M196.9,55.8c3.5,3.8,0.1,7.7,0,11.5C192.7,63.5,194.2,59.7,196.9,55.8z"/>
	<path class="st5" d="M292.9,134.7c0.3,3.3,0.6,6.6,0.9,9.9c-0.8-1.9-2.1-3.8-2.4-5.8C291.2,137.6,292.4,136.1,292.9,134.7z"/>
	<path class="st5" d="M298,153c3,1,1.8,2.3,0,2.7c-2,0.5-4.1,0.2-6.2,0.2C293.9,155,295.9,154,298,153z"/>
	<path class="st5" d="M293.9,145c0.7,1.7,1.4,3.3,2.1,5C295.3,148.3,294.6,146.6,293.9,145z"/>
	<path class="st10" d="M329,148c0.1-1.1-0.1-2.2,0.2-3.2c0.6-1.7,1.6-1.7,2.7-0.3C331,145.7,330,146.9,329,148z"/>
	<path class="st5" d="M296.1,150c0.6,1,1.3,2,1.9,3C297.4,152,296.7,151,296.1,150z"/>
	<path class="st4" d="M226,133.7c1.3,0,2.6,0,3.9,0C228.6,133.7,227.3,133.7,226,133.7z"/>
	<path class="st10" d="M329,151c0-1,0-2,0.1-3C329,149,329,150,329,151z"/>
	<path class="st10" d="M272.1,158.9c-1-0.2-2.1-0.4-3.1-0.7C270.1,158.5,271.1,158.7,272.1,158.9z"/>
	<path class="st11" d="M322,129.1c-0.7,0-1.3,0-2,0C320.7,129.2,321.3,129.1,322,129.1z"/>
	<path class="st4" d="M227.9,141c-0.3-0.7-0.6-1.5-0.9-2.2C227.4,139.5,227.7,140.2,227.9,141z"/>
	<path class="st4" d="M234,133c0.5-0.3,1.1-0.7,1.6-1C235.1,132.4,234.6,132.7,234,133z"/>
	<path class="st4" d="M232,133.7c0.7-0.2,1.3-0.5,2-0.7C233.4,133.3,232.7,133.5,232,133.7z"/>
	<path class="st4" d="M229,144c-0.3-0.8-0.5-1.6-0.8-2.4C228.4,142.4,228.7,143.2,229,144z"/>
	<path class="st10" d="M332.7,154.1c-0.6-0.4-1.1-0.8-1.7-1.2C331.6,153.3,332.2,153.7,332.7,154.1z"/>
	<path class="st4" d="M230,147c-0.3-0.8-0.5-1.6-0.8-2.4C229.4,145.4,229.7,146.2,230,147z"/>
	<path class="st4" d="M232,153c-0.3-0.8-0.6-1.7-0.8-2.5C231.4,151.3,231.7,152.2,232,153z"/>
	<path class="st4" d="M231,150c-0.3-0.8-0.6-1.6-0.8-2.4C230.4,148.4,230.7,149.2,231,150z"/>
	<path class="st5" d="M299,131.1c-0.5,0.2-1.1,0.5-1.6,0.7C297.9,131.6,298.5,131.4,299,131.1z"/>
	<path class="st11" d="M322.9,128.4c-0.2,0.3-0.4,0.5-0.7,0.6C322.5,128.8,322.7,128.6,322.9,128.4z"/>
	<path class="st5" d="M297,132c-0.5,0.3-1,0.6-1.5,0.8C296,132.6,296.5,132.3,297,132z"/>
	<path class="st5" d="M295,133.2c-0.4,0.3-0.8,0.5-1.2,0.8C294.2,133.7,294.6,133.4,295,133.2z"/>
	<path class="st4" d="M225.9,136c-0.2-0.2-0.4-0.4-0.5-0.6c0,0,0.2-0.2,0.3-0.3C225.8,135.4,225.9,135.7,225.9,136z"/>
	<path class="st4" d="M226.9,138c-0.2-0.5-0.5-1-0.7-1.5C226.4,137,226.6,137.5,226.9,138z"/>
	<path class="st10" d="M266,158.2c-0.3,0-0.7-0.1-1-0.1C265.3,158.1,265.7,158.1,266,158.2z"/>
	<path class="st10" d="M259,158.1c-0.3,0-0.6,0.1-1,0.1C258.3,158.2,258.7,158.1,259,158.1z"/>
	<path class="st10" d="M329.9,152c-0.3-0.3-0.6-0.7-0.9-1C329.3,151.4,329.6,151.7,329.9,152z"/>
	<path class="st6" d="M35,152.7c0.7-0.2,1.3-0.4,2-0.7C36.4,152.2,35.7,152.5,35,152.7z"/>
	<path class="st10" d="M237,217.2c1.1,3.4,0,6.5-1,9.7c-3.4,0.8-6.8,1.3-10.1,2.4c-4.2,1.4-7.7,0.3-10.9-2.4c1.4-3.5,2.7-7.1,1.2-11
		c-0.1-0.2,0.6-0.7,0.9-1.1c1.4,0.3,2.8,0.6,4.2,0.9c0.2,0.1,0.5,0.1,0.7,0.1C227,216.4,232,216.8,237,217.2z"/>
	<path class="st9" d="M217.1,214.9c-0.3,0.4-1,0.9-0.9,1.1c1.6,3.9,0.2,7.4-1.2,11c-4.5-2.4-9-4.8-13.3-7.3c-1.2-0.7-2-2-3-3.1
		c1.1-0.9,2-2.1,3.2-2.7C207.1,211.3,212.1,213.7,217.1,214.9z"/>
	<path class="st10" d="M240.3,211.9c0.3,0.3,0.5,0.7,0.8,1C240.8,212.6,240.5,212.3,240.3,211.9z"/>
	<path class="st9" d="M222,216c-0.2,0-0.5-0.1-0.7-0.1l0.4-0.1L222,216z"/>
	<path class="st10" d="M239.4,211c0.3,0.1,0.5,0.4,0.6,0.6C239.9,211.5,239.6,211.3,239.4,211z"/>
	<path class="st11" d="M305.2,199.9c3.3,0.1,6.5,0.1,9.8,0.2c0,8.7,0.1,17.4-0.1,26.1c0,2.1-0.7,4.2-1.1,6.2
		c-8.7-5.9-18.4-8.4-28.8-8.6c0.2-5.5,0.8-11,0.6-16.5c-0.1-2.5-1.7-4.9-2.6-7.3c0,0,0,0,0,0C290.4,200,297.8,199.9,305.2,199.9z"/>
	<path class="st7" d="M63,228.1c0.2,0.3,0.5,0.7,0.7,1C63.5,228.7,63.2,228.4,63,228.1z"/>
	<path class="st7" d="M66,231.2c0.3,0.3,0.5,0.6,0.8,0.9C66.5,231.8,66.2,231.5,66,231.2z"/>
	<path class="st7" d="M66.9,232.2c0.3,0.3,0.6,0.5,0.8,0.8C67.5,232.8,67.2,232.5,66.9,232.2z"/>
	<path class="st5" d="M291.9,172.5c-0.4-0.1-0.9-0.3-1.3-0.4C291.1,172.3,291.5,172.4,291.9,172.5z"/>
	<path class="st10" d="M244.9,169.5c-0.5-0.1-1-0.3-1.4-0.4C244,169.3,244.5,169.4,244.9,169.5z"/>
	<path class="st5" d="M305.2,199.9c-7.4,0-14.8,0-22.2,0C290.4,200,297.8,199.9,305.2,199.9z"/>
</g>
</svg>
