<?xml version="1.0" encoding="utf-8"?>
<!-- Generator: Adobe Illustrator 19.2.0, SVG Export Plug-In . SVG Version: 6.00 Build 0)  -->
<svg version="1.1" xmlns="http://www.w3.org/2000/svg" xmlns:xlink="http://www.w3.org/1999/xlink" x="0px" y="0px"
	 viewBox="0 0 534.3 534.3" style="enable-background:new 0 0 534.3 534.3;" xml:space="preserve">
<style type="text/css">
	.st0{fill:#FFFFFF;}
	.st1{fill:#CDCDCD;}
	.st2{fill:#E3E3E3;}
	.st3{fill:#727272;}
	.st4{fill:#1C1C1C;}
	.st5{fill:#010101;}
</style>
<g id="Layer_2">
	<circle class="st0" cx="267.1" cy="267.1" r="267.1"/>
</g>
<g id="Layer_1">
	<g>
		<path class="st1" d="M158.6,107.3c-0.3,0-0.7,0-1,0c-2.3-0.2-4.5,0.2-6.7,1c-2.8,0.9-5.6,1.4-8.5,1.7c-1.7,0.2-2.9-1.7-2.2-3.3
			c0.4-0.8,0.9-1.6,1.6-2.2c3.5-2.8,7.4-5.1,10.8-8.2c2.3-2,5-3.3,7.1-5.9c1.1-1.3,1.1-2.2-0.1-3.4c-3.9-4-7.3-8.4-11-12.6
			c-2-2.3-4.1-4.4-5.7-7c-2-3.3-5-4.1-8.1-3.5c-5.8,1.1-11.6,2.4-17.3,3.7c-0.6,0.1-1.2,0.5-1.5-0.2c-0.4-0.7,0.3-1.1,0.7-1.6
			c0.2-0.3,0.5-0.6,0.8-0.7c5.6-4.1,11.3-8.1,16.7-12.6c2-1.7,4-3.2,6.1-4.6c3.6-2.3,7.1-4.8,10.5-7.2c3.3-2.4,6.7-5,10.1-7.3
			c1.7-1.2,2.7-0.8,3.9,1.1c1.9,2.8,3.8,5.7,5.8,8.5c2.8,4.1,5.8,8,8.6,12.1c2.8,4.1,5.6,8.5,8.4,12.6c5.4,7.9,11,15.8,16.5,23.8
			c2.1,3,3.8,3.6,6.9,2c1.1-0.6,2.1-1.1,3.1-1.6c8.6-4.5,17.5-8.5,26.4-12.2c6.5-2.7,13.1-5.1,19.9-6.6c2.6-0.6,5.1-1.9,7.7-2.1
			c5.2-0.4,10.2-2.4,15.4-3c2.4-0.2,2.8-0.1,2.8,2.7c0,14,0,28,0,42c0,1.2,0,2.5,0.2,3.7c0.3,1.4-0.1,2.8-1.2,3.3
			c-2.2,0.9-4.1,2.6-6.6,2.5c-0.8-0.1-1.3,0.4-1.7,1.1c-0.8,1.7-1.5,3.5-1.4,5.6c0.1,4.4-0.1,8.8,0.1,13.2c0.1,3-1.2,4.8-3.3,6.1
			c-1,0.6-2.1,0.9-3.2,1.2c-0.7,0.2-1.4,0.4-1.7,1.2l0,0c-0.3-0.1-0.6-0.1-0.9-0.2c0.2-1.4,1.4-1.4,2.2-1.8c4.2-1.7,5.8-3.8,5.9-7.8
			c0.2-5.9-0.2-11.7,0.3-17.6c0.5-5,0.1-10.1,0.1-15.2c0-2.7-1.9-4.5-4.2-4c-2.1,0.4-4.3,0.7-6.4,1.2c-9.3,2-18.4,4.3-27.4,8.1
			c-4.3,1.9-8.8,3.2-12.9,5.7c-2.1,1.3-4.2,2.5-6.4,3.6c-2.7,1.4-4.1,1-5.6-1.2c-2.7-4.1-5.8-7.7-8.4-11.8c-4-6.1-8.4-11.9-12.5-18
			c-2.7-4-5.3-8-8-11.9c-1.8-2.5-3.5-2.8-5.9-0.9c-2.1,1.7-4.2,3.3-6.4,4.8c-2.8,1.9-5.6,3.8-8.2,6c-0.6,0.5-1.1,1-0.8,2
			c-1.3,1-2.5,1.9-3.8,2.9c-0.1-0.2-0.2-0.6-0.4-0.3c-0.3,0.2-0.1,0.5,0.1,0.7c-0.1,0.1-0.1,0.2-0.2,0.2c-0.7-0.8-1.3-0.2-1.8,0.2
			c-4.2,3.3-8.5,6.2-12.6,9.8c-0.9,0.7-2.4,1.3-1.9,2.8c0.6,1.7,2.2,1.2,3.3,0.9c5-1.1,10-2.2,15.1-2.9c1.9-0.2,3.2,0,4.6,1.5
			c5.8,6.3,10.9,13.4,16.5,20.1c2.8,3.3,5.4,6.7,8.2,10c1.1,1.2,1.1,2.5-0.1,3.6c-1,1-2,1.9-3,2.9c-5.7,5.4-11.7,10.4-16.9,16.5
			c-2.8,3.3-5.5,6.8-8.3,10.2c-4.6,5.7-8.9,11.6-12.6,18.1c-4.8,8.2-8.8,17-12.4,26c-2.2,5.3-4,10.9-5.6,16.5
			c-3.9,13.7-5.7,27.9-5.9,42.3c-0.1,6.1,0.4,12.2,0.4,18.3c0,1.9,0.1,3.8,0.4,5.7c0.9,6.9,2.1,13.7,3.7,20.4
			c1.1,4.9,2.7,9.6,4.2,14.3c1.9,5.6,4.2,10.9,6.5,16.2c1.7,4.2,4.2,8,6,12.1c0.7,1.6,1.4,3.2,2.4,4.5c4,5.6,8.1,11.3,12.2,17
			c5.3,7.2,11.1,13.9,17.4,20c5.8,5.6,11.9,10.8,18.3,15.5c2.7,1.9,5.4,3.7,7.9,5.7c3.5,2.8,7.2,5.1,11,7.1
			c4.5,2.3,8.9,4.9,13.5,6.7c0.1,0.1,0.2,0.4,0.3,0.6c-2,0.1-3.6-1.2-5.3-2c-3.7-1.7-7.5-3.4-11.1-5.5c-3.1-1.9-6.1-4.1-9-6.2
			c-5.2-3.6-10.5-7.1-15.4-11.2c-4.9-4.1-9.8-8.4-14.1-13.3c-1.4-1.5-2.6-3.2-4-4.6c-3.5-3.2-6.2-7.1-9.2-10.8
			c-3.5-4.5-6.6-9.4-10.5-13.5c-0.5-0.5-0.9-1.2-1.6-0.7c-0.6,0.5-0.4,1.3-0.2,2c0.2,1.2,0.9,2.1,1.3,3.2c0.9,2.4,0.9,5.1,1.7,7.6
			c1.4,4.3,2.4,8.8,3.8,13.1c1.7,5.3,3.7,10.5,5.7,15.7c2,4.9,3.8,9.9,6.1,14.7c1.8,3.7,3.5,7.5,5.6,11c3.2,5.3,6.4,10.5,9.7,15.7
			c4.4,7.2,9.5,13.7,14.7,20.1c3.9,4.9,8.2,9.5,12.4,14c3.4,3.6,7.1,6.9,10.7,10.3c2.5,2.4,5.3,4.6,7.9,6.9c0.6,0.5,1.3,1.1,0.9,1.9
			c-0.4,0.8-1.2,0.5-1.9,0.2c-3.8-1.7-7.4-3.6-11.1-5.4c-3.5-1.7-7-3.4-10.4-5.4c-3-1.7-5.9-3.6-8.8-5.6c-1.9-1.2-3.6-2.7-5.4-4
			c-2.7-1.8-5.4-3.7-7.9-5.6c-6.3-4.9-12.5-9.7-18.4-15.3c-5.6-5.4-11.1-11.1-16.4-16.8c-3.3-3.6-6.4-7.4-9.4-11.3
			c-4.1-5.5-8-11.3-11.9-17.1c-1.1-1.7-2-3.5-3.2-5.1c-2.4-3.2-4.3-6.9-6.3-10.5c-1.9-3.2-3.3-6.9-4.9-10.4c-2.1-4.8-4-9.8-6.2-14.6
			c-0.7-1.5-1.5-3-1.9-4.8c-0.7-3-1.9-5.8-2.8-8.6c-1.5-4.7-3.4-9.2-4.1-14.2c-0.4-2.3-1.8-4.1-1.9-6.4c-0.3-5.9-2.2-11.6-2.6-17.6
			c-0.4-4.6-1.7-9-1.5-13.6c0.2-6.9-0.9-13.8-0.4-20.8c0.4-6.4,0.2-12.9,0.8-19.3c0.4-4.6,1.2-9.2,1.7-13.7c0.4-3.8,1.8-7.3,2-11.1
			c0.1-1.4,0.1-2.8,0.6-4c0.8-1.9,1.3-4,1.8-6.1c0.9-4,2.2-7.7,3.4-11.6c1.3-4.3,2.7-8.5,4.4-12.5c2.2-5.1,4.2-10.5,6.5-15.5
			c3.2-7,6.6-13.9,10.6-20.3c2.8-4.6,5.7-9.1,8.8-13.5c3.1-4.4,5.9-9.1,9.5-13.1c6-7,12.2-13.8,18.6-20.3c3.3-3.3,6.6-6.6,10.2-9.4
			c3-2.2,3-3.3,0.6-6.4c-1.6-2-3.4-3.9-5.1-5.9c-0.4-0.4-0.7-0.8-1.1-1.3C162.6,106.2,161.3,105.9,158.6,107.3z"/>
		<path class="st2" d="M158.6,107.3c2.7-1.4,3.9-1.1,5.7,1.5c0.3,0.4,0.7,0.9,1.1,1.3c1.7,2,3.5,3.8,5.1,5.9
			c2.5,3.2,2.4,4.1-0.6,6.4c-3.7,2.8-6.9,6.1-10.2,9.4c-6.4,6.5-12.6,13.3-18.6,20.3c-3.5,4.1-6.3,8.7-9.5,13.1
			c-3.1,4.3-5.9,8.9-8.8,13.5c-4,6.4-7.4,13.3-10.6,20.3c-2.4,5.1-4.3,10.4-6.5,15.5c-1.7,4-3.1,8.3-4.4,12.5
			c-1.2,3.8-2.5,7.7-3.4,11.6c-0.5,2.1-1,4.1-1.8,6.1c-0.5,1.2-0.6,2.7-0.6,4c-0.1,3.8-1.5,7.4-2,11.1c-0.5,4.6-1.2,9.2-1.7,13.7
			c-0.6,6.4-0.4,12.8-0.8,19.3c-0.4,7,0.7,13.9,0.4,20.8c-0.1,4.6,1.2,9.1,1.5,13.6c0.4,5.9,2.3,11.6,2.6,17.6
			c0.1,2.3,1.5,4.1,1.9,6.4c0.7,5,2.7,9.5,4.1,14.2c0.9,2.8,2.1,5.6,2.8,8.6c0.4,1.7,1.2,3.2,1.9,4.8c2.2,4.8,4,9.8,6.2,14.6
			c1.5,3.5,3,7.2,4.9,10.4c2,3.5,3.9,7.2,6.3,10.5c1.2,1.5,2,3.5,3.2,5.1c3.8,5.9,7.7,11.6,11.9,17.1c3,4,6.1,7.8,9.4,11.3
			c5.4,5.8,10.8,11.5,16.4,16.8c5.8,5.6,12.1,10.4,18.4,15.3c2.5,2,5.3,3.8,7.9,5.6c1.9,1.2,3.6,2.7,5.4,4c2.9,2,5.8,3.8,8.8,5.6
			c3.4,2,6.9,3.7,10.4,5.4c3.7,1.9,7.4,3.8,11.1,5.4c0.6,0.2,1.5,0.6,1.9-0.2c0.4-0.8-0.4-1.4-0.9-1.9c-2.7-2.3-5.3-4.5-7.9-6.9
			c-3.7-3.3-7.3-6.7-10.7-10.3c-4.3-4.5-8.5-9-12.4-14c-5.1-6.4-10.3-12.9-14.7-20.1c-3.2-5.3-6.5-10.4-9.7-15.7
			c-2.1-3.5-3.8-7.3-5.6-11c-2.3-4.8-4.1-9.8-6.1-14.7c-2-5.1-4-10.3-5.7-15.7c-1.4-4.3-2.4-8.9-3.8-13.1c-0.8-2.5-0.7-5.1-1.7-7.6
			c-0.4-1.1-1.1-2-1.3-3.2c-0.1-0.7-0.4-1.5,0.2-2c0.6-0.5,1.1,0.2,1.6,0.7c3.9,4.1,6.9,9,10.5,13.5c3,3.7,5.7,7.7,9.2,10.8
			c1.5,1.4,2.7,3,4,4.6c4.3,5,9.2,9.2,14.1,13.3c4.9,4.1,10.2,7.6,15.4,11.2c3,2,5.9,4.3,9,6.2c3.5,2.2,7.3,3.8,11.1,5.5
			c1.7,0.8,3.3,2,5.3,2c1.1,0.1,2.1,0.6,3,1.2c1.6,1.9,3.8,1.6,5.8,1.9c1.4,0.2,1.8-0.7,1.1-2.2c-1.1-2.4-2.8-3.5-5-4.3
			c-0.2-0.1-0.4-0.3-0.6-0.4c0-0.9-0.4-1.2-1.1-1.1c-0.1,0-0.2,0-0.2-0.1c-0.6-1.4-1.7-1.9-2.8-2.4c-0.1,0-0.2,0-0.2-0.1
			c0-0.6-0.3-0.8-0.7-0.7c-0.1,0-0.2,0-0.2-0.1c-0.1-0.8-0.4-1.2-1.1-1.1c-0.2,0-0.5-0.1-0.6-0.4c-0.1-0.9-0.4-1.2-1.2-1.1
			c-0.1,0-0.2,0-0.2-0.1c0-0.6-0.2-0.8-0.7-0.7c-0.2-0.1-0.4-0.3-0.6-0.4c0-0.6-0.2-0.9-0.7-0.7c-0.7-0.1-0.9-0.7-1.3-1.2
			c-0.1-1-0.6-1.6-1.5-1.5c-0.4-0.1-0.8-0.3-0.9-0.8c0-0.6-0.2-0.9-0.7-0.7c-0.8-0.2-1.2-0.9-1.6-1.6c-1.1-2.7-3.4-4.2-5-6.4
			c-0.4-0.5-0.7-1.2-1.5-1.1c-2.1-2-4-4.3-5.8-6.8c0-0.9-0.2-1.5-1.1-1.5c-0.7-0.6-1.3-1.2-1.7-2c0-0.6-0.1-1.2-0.7-1.1
			c-0.2-0.3-0.4-0.6-0.6-0.9c0.1-0.9-0.1-1.5-1.1-1.5c-0.1-0.2-0.2-0.4-0.4-0.7c0.1-0.6-0.1-0.9-0.7-0.9c-0.2-0.1-0.4-0.4-0.4-0.7
			c0.1-0.6-0.1-0.9-0.6-0.9l0,0c-0.1-1.3-0.5-2.4-1.7-2.8c-0.1-0.1-0.1-0.2-0.1-0.3c0.1-0.6-0.1-0.9-0.6-0.9
			c-0.1-0.1-0.1-0.2-0.1-0.3c0.1-0.9-0.2-1.2-1-1.3c-0.1-0.1-0.1-0.2-0.1-0.2c0.1-0.6-0.1-0.9-0.6-0.9c-0.1-0.1-0.1-0.2-0.1-0.3
			c0.1-0.6-0.1-0.9-0.6-0.9c-0.1-0.1-0.1-0.2-0.1-0.3c-0.6-2-1.2-4.1-3-5.2c-0.1-0.1-0.1-0.2-0.1-0.3c0.1-0.6-0.1-0.9-0.6-0.9
			c-0.4-0.9-0.7-1.7-1.1-2.6c0-1.1-0.4-1.7-1.3-2.1c-0.7-1.4-1.2-3-2.1-4.3c0.1-0.5-0.1-0.8-0.5-0.9c-0.2-0.5-0.4-1-0.6-1.5
			c-0.1-1.4-0.8-2.4-1.7-3.2c-0.2-0.7-0.5-1.5-0.7-2.3c-0.4-1.9-1.2-3.5-2-5.1c-0.2-1.4-0.6-2.7-1.2-3.9c-0.2-1.2-0.2-2.5-0.6-3.7
			c-1.4-4.3-2.1-8.7-3.1-13.1c-1.9-8.8-3.2-17.6-3.4-26.7c-0.2-8.8-0.3-17.6,0.8-26.4c1.1-9,2.8-17.9,5.3-26.6
			c0.1-0.5,0.7-1.2,0-1.7c0.1-0.2,0.1-0.5,0.1-0.7c0.3-0.2,0.3-0.6,0.2-0.9c0.1-0.5,0.3-1,0.4-1.5c0.4-0.2,0.3-0.5,0.2-0.9
			c1.1-3.1,2-6.4,3.4-9.3c1.5-3,2.4-6.4,3.9-9.5c2-4.4,4.5-8.4,6.7-12.6c2.3-4.2,4.7-8.3,7.4-12.2c2.6-3.8,5.4-7.4,8.4-10.8
			c0.8,0.1,1.2-0.5,1.7-1c2-2.3,4-4.6,5.9-6.9c0.4-0.4,0.9-0.8,0.9-1.6c1.6-1.9,3.1-4,5-5.5c1.5-1.2,2.7-3.5,5-2.1
			c0,0.2-0.1,0.4,0.1,0.6c2.1,3.2,4.6,5.9,7.1,8.7c0.3,0.4,0.7,0.3,1.1,0.3c2.3,2.5,4.6,5,6.8,7.6c0.9,1.1,1.2,2.4-0.1,3.5
			c-0.6,0.5-1,1.1-1.5,1.5c-4.4,3.1-8.6,6.6-12.3,10.7c-1.1,0.2-1.7,1.1-2.1,2.3l0,0c-0.9,0.1-1.5,0.9-2.1,1.5
			c-2,2.2-3.6,4.9-5.6,7.2c-3.7,4.3-6.6,9.2-9.2,14.3c-1.9,3.5-3.2,7.2-4.8,10.8c-1.2,2.8-2.1,5.8-3.3,8.6c-0.2,0.4-0.4,0.9,0,1.4
			c0,0.2-0.1,0.5-0.1,0.8c-0.4,0.1-0.7,0.4-0.2,0.8c-0.1,0.2-0.1,0.5-0.1,0.8c-0.6,0.2-0.7,0.8-0.9,1.4c-0.9,2.2-1.3,4.6-1.5,7
			c-0.5,4.6-1.5,9.1-1.6,13.7c-0.1,6.6,0.6,13.2,1.4,19.7c0.6,4.6,2.1,8.9,3.3,13.1c0.9,3.3,2.4,6.4,3.7,9.7c1.9,5,4.2,9.6,6.8,14.1
			c0.5,0.9,0.9,2,1.9,2.4l0.1,0.1c0.2,1.7,1,2.8,2.4,3.5l0.1,0.1c0.1,1.4,1,2.2,2,2.7l0.1,0.1c0.1,1,0.4,1.7,1.3,1.9
			c1.8,1.7,3.4,3.5,4.9,5.6c1.2,2.4,3,4.1,4.8,5.7c1.3,1.2,2.3,2.8,4.1,3.3l0.1,0.1c0.6,1.2,1.5,2,2.7,2.4l0.1,0.1
			c0.1,0.9,0.7,1.1,1.4,1.1l0.1,0.1c0.1,0.7,0.5,0.7,1,0.7l0.1,0.1c0.1,0.9,0.7,1.1,1.4,1.1l0.1,0.1c0.2,1,0.9,1.1,1.7,1.2l0.1,0.1
			c0.1,0.9,0.6,1.1,1.3,1.1c0.1,0.1,0.2,0.3,0.4,0.4c0.4,1.2,1.4,1.4,2.4,1.5l0.1,0.1c0,1.2,0.9,1.4,1.5,1.9
			c0.7,0.6,1.7,0.9,2.4,1.5c3.8,3,8,5,12.2,7.2c2.4,1.3,3.9,0.9,4.6-0.6c0.7-1.4-0.1-3.3-2.1-5c-1.7-1.4-3.5-2.7-5.1-4.1
			c-3.3-3.1-6.2-6.7-9.2-10.2c-0.4-0.6-0.9-1.1-0.8-1.9l0.1-0.1c0.6,0.1,1,0.6,1.4,1.1c3.5,4.3,7.3,8.3,11.2,12.1
			c1.2,1.1,2.6,1.8,3.8,3c1.2,1.1,2.1,2.3,2.3,4.1c0.2,2.2-1.4,4.1-3.3,3.7c-2.5-0.7-5.1-1.4-7.1-3.5c-0.8-0.9-1.9-1.1-2.9-1.6
			c-5-2.5-9.3-6.3-13.9-9.7c-3.7-2.7-7.3-5.5-10.7-8.7c-2.1-2-4.3-3.9-5.9-6.5c-0.6-0.9-1.4-1.4-2.2-2.2c-3.8-4.3-7.1-9.2-10.4-14.1
			c-2.2-3.4-4.4-6.9-5.7-10.8c-1.1-3.1-2.7-5.9-3.3-9.2c-0.1-0.7-0.4-1.3-0.8-1.9c-0.7-1.4-1.5-2.7-1.6-4.5c-0.1-1.4-0.5-2.8-1.2-4
			c-1.4-2.5-1.1-5.6-1.7-8.3c-1.3-5.8-1.4-11.6-1.5-17.5c-0.1-5.1,0.8-10.2,1.5-15.2c0.6-3.9,1.7-7.5,2.7-11.3
			c1.1-4,2.7-7.7,4.2-11.5c1.1-2.7,2-5.5,3.2-8.2c2.4-5,5-9.6,8.4-13.7c2.4-3,4.8-6.2,7.3-9.1c3-3.4,5.9-6.9,9.3-9.8
			c2.5-2.2,4.9-4.9,8-6.1c1.5-0.6,1.6-1.7,0.5-3c-2.5-2.7-5-5.3-7.5-7.9c-2.1-2.2-3.9-4.8-5.8-7.2c-1.2-1.6-1.6-1.7-3-0.2
			c-2.5,2.8-5.2,5.4-7.7,8.2c-6.7,7.4-13.5,14.6-18.4,23.8c-2,3.7-4.6,7-6.5,10.8c-2.4,4.6-4.8,9.1-6.9,13.9
			c-1.1,2.5-1.9,5.3-3.2,7.8c-1.1,2.2-1.1,4.8-1.9,7.1c-2,6.1-3.5,12.6-4.3,19.1c-0.6,4.3-2.1,8.3-2.4,12.6
			c-0.1,0.4-0.2,0.9-0.2,1.4c0.1,6.8-0.7,13.7-0.3,20.5c0.4,7.2,0.2,14.5,2.3,21.5c1.2,4.3,1.7,8.9,2.5,13.4
			c0.6,3.2,1.7,6.3,2.7,9.3c0.5,1.5,1,2.9,1.1,4.5c0,0.8,0.2,1.6,0.6,2.2c0.9,1.4,0.9,3.2,1.6,4.5c1.5,2.7,1.8,6.2,3.9,8.5
			c0.7,0.7,0.7,1.9,1.3,2.8c2.4,4.2,4.6,8.5,7.1,12.7c4.2,7,8.5,14,13.9,19.9c1.7,1.9,3.2,4,4.8,5.9c4.7,5.4,9.7,10.5,15.2,14.9
			c3.5,2.8,6.9,5.8,10.6,8.2c1.2,0.7,1.9,2.2,2.5,3.7c0.7,1.6,0,3.2-1.5,3.5c-1.1,0.2-2.4,0.4-3.4-0.1c-1.8-1-3.8-1.4-5.6-2.1
			c-5.5-2.2-10.6-5.3-16-7.9c-2.6-1.2-4.9-3.3-7.4-4.8c-3.7-2.2-7.1-5.1-10.7-7.4c-3-2-6.1-4.1-8.9-6.4c-4.3-3.6-8.2-7.9-12.5-11.5
			c-0.3-0.2-0.6-0.6-0.9-0.9c-3.2-3.7-6.6-7.1-9.8-10.6c-1.7-2-3.3-4.3-5-6.5c-1.8-2.3-3.5-4.7-5-7.2c-0.3-0.5-0.7-1.4-1.5-0.9
			c-0.7,0.4-0.6,1.2-0.4,1.9c1.1,3.8,2.4,7.5,3.3,11.3c0.9,3.7,2.2,7.2,3.1,11c0.7,2.8,2,5.3,3,7.9c3.4,8.4,7.1,16.7,11.3,24.6
			c3,5.6,6,11.3,9.4,16.6c2.4,3.7,5,7.2,7.6,10.8c2.2,3.1,4.5,6.1,6.7,9.1c3.3,4.5,7.1,8.3,10.8,12.2c1.9,2,3.8,4,5.6,6
			c4.6,4.8,9.4,9.3,14.5,13.4c3,2.5,6.4,4.5,9.2,7.4c0.7,0.7,2,0.7,2.5,1.9c0.3,0.6,0.7,1.2,0.4,2c-0.3,0.9-1,0.7-1.6,0.7
			c-3.5,0.4-6.5-1.7-9.6-3c-6.1-2.5-12-5.6-17.9-8.7c-2-1.1-4-2.2-5.9-3.5c-5.5-3.5-11-7-16.5-10.6c-5.8-4-11.6-8.1-16.8-13
			c-4.7-4.3-9.5-8.5-14.1-12.9c-5.1-4.8-9.9-10-14.3-15.8c-2.2-2.9-4.6-5.6-6.9-8.4c-4.8-5.7-8.9-11.9-12.8-18.4
			c-2.2-3.7-4.5-7.3-6.4-11.1c-2.2-4-4.4-8-6.4-12.3c-2-4.4-4.1-8.7-5.9-13.2c-1.5-4-2.6-8.3-4.3-12.2c-1.5-3.6-2.3-7.5-3.3-11.2
			c-1.3-4.8-3.2-9.3-3.5-14.5c-0.1-2.4-1.5-4.3-1.8-6.7c-1.2-8.2-2.8-16.3-2.7-24.6c0.1-3.8-0.6-7.7-1.1-11.5
			c-0.4-3.2-0.1-6.3-0.1-9.4c0.1-3.3,0.6-6.5,0.8-9.8c0.4-7.6,0.7-15.1,2-22.6c0.9-5.4,2.6-10.7,3.1-16.2c0-0.1,0.1-0.2,0.1-0.4
			c1.7-3.8,2.1-8,3.5-12c1.1-3.2,2.1-6.6,3-9.9c0.7-3.1,1.9-6.1,3-9c3.2-7.9,6.4-15.8,10.6-23.1c2.5-4.5,5.3-9,7.9-13.6
			c2.8-5.1,6-9.8,9.3-14.5c1.7-2.4,3.3-4.8,5.2-7c3.4-4,6.6-8.4,10.1-12.3c3.7-4.2,7.4-8.4,11.6-11.9c3.2-2.8,6.3-5.8,9.3-8.9
			c0.9-0.9,2.4-0.9,2.5-2.7c0.2-1.7-1.2-2-1.9-3c-1.6-2.4-3.8-4.3-5.4-6.8c-0.4-0.7-1.1-0.8-1.8-0.9
			C160.3,107.6,159.4,107.9,158.6,107.3z"/>
		<path class="st2" d="M266.6,150.5c0.3,0.1,0.6,0.1,0.9,0.2c-0.1,1.2-0.9,1.6-1.7,1.9c-4.4,1.4-8,4.5-12.1,6.7
			c-2.7,1.4-5.3,3.4-8,5c-1.4,0.8-1.2,1.9-0.5,3c3.1,4.3,5.9,8.8,9.3,12.8c1.4,1.7,2.7,3.5,4,5.4c0.9,1.2,1.7,1.4,3,0.8
			c4.7-2.2,9.5-4.5,14.4-6.1c0.7-0.2,1.6-0.2,2.4-0.4c5.6-1.7,11.3-2.9,17.1-4c1.5-0.3,3-0.4,4.6-0.5c8.2-0.1,16.3-0.7,24.4-0.4
			c5.6,0.2,11.2-0.2,16.7,0.9c5,1.1,10.2,1.1,14.9,3.5c1.6,0.8,3.5,0.7,5.3,1.1c4,0.9,7.5,3.4,11.4,4.6c4.1,1.2,7.7,3.9,11.5,5.9
			c4.6,2.5,8.6,6.3,13.1,9c3.5,2.1,6.5,5,9.8,7.4c0.3,0.2,0.6,0.5,0.8,0.7c3.2,3.5,6.6,6.9,9.5,10.7c3.7,4.7,7.9,9.1,10.8,14.6
			c1.5,2.9,3.4,5.6,4.4,8.8c1.7,5.3,4.3,10.2,5.9,15.6c1,3.5,1.9,7,3,10.4c0.4,1.3,0.8,2.8,0.8,4.2c0,6.5,0.9,13,0.3,19.5
			c-0.4,4.2,0.3,8.6-1,12.7c-0.9,2.7-0.7,5.9-1.9,8.3c-1.4,3.1-1.5,6.7-3.4,9.5c-0.4,0.7-0.7,1.5-0.9,2.3
			c-2.5,7.8-6.1,14.8-10.6,21.3c-2.1,3-4.3,5.8-6.6,8.5c-4.8,5.5-9.3,11.5-15.3,15.5c-2.2,1.5-4.5,3-6.4,5.2
			c-1.1,1.2-2.6,1.5-3.8,2.5c-3.2,2.2-6.1,4.8-9.4,6.6c-1.4,0.7-2.9,1.2-4.4,1.5c-1.2,0.2-2.5-1.9-2.2-3.5c0.8-3.3,3-5.3,5.2-7
			c4.8-3.8,8.5-8.6,11.9-14.1c3.3-5.4,6.3-11.1,9.2-16.9c0.9-1.9,1.5-4,2.1-6c0.9-3,2.8-5.7,3-8.9c0.2-3.2,1.4-5.9,2-8.9
			c0.4-2.4,0.5-4.8,0.6-7.2c0.2-2.8,0.3-5.8,0.2-8.6c-0.2-4.1-0.1-8.2-0.4-12.4c-0.2-3.3-0.8-6.3-1.8-9.3c-0.4-1-0.4-2.2-0.4-3.3
			c-0.1-2-0.9-3.7-1.7-5.4c-1.3-2.9-2.1-6-3.1-9.1c-0.2-0.9-0.7-1.6-1.2-2.4c-2.7-5.1-5-10.6-8-15.5c-4.3-6.7-9.6-12.1-15-17.4
			c-1.4-1.4-2.7-2.7-4.2-4c-3.8-3.3-8.1-5.6-12.4-7.9c-3.8-2-7.7-3.8-11.6-5.5c-4-1.7-8.1-3.3-12.4-3.7c-2.6-0.2-5-1.7-7.6-2.1
			c-0.6-0.1-1.1-0.2-1.7-0.2c-6.3,0-12.6-0.1-18.8,0c-2,0-4,0.6-5.8,1.3c-2.2,0.8-4.3,1.5-6.7,1.5c-0.4,0-0.8,0.1-1.2,0.2
			c-5.3,1.6-10.3,3.7-15.4,6.1c-1.4,0.6-1.7,1.7-0.7,3.1c3.6,4.9,6.6,10.3,10.4,15c3,3.8,5.6,8,8.4,12.1c4.9,7.1,9.8,14.2,14.7,21.4
			c3.7,5.4,7.7,10.6,11.3,16.2c4.6,7.4,9.4,14.5,14.8,21.3c2.7,3.5,5.3,7.2,7.4,11.1c2.3,4.2,5.4,7.8,8,11.7
			c0.7,1.1,1.2,2.3,1.2,3.8c-0.1,2.2-1.5,3.3-3.1,2c-1.2-1-2.4-2.3-3.4-3.5c-1.4-1.6-2.7-3.3-4.1-4.9c-4.2-4.8-8.6-9.3-12.6-14.4
			c-4.2-5.3-8.3-10.8-13-15.6c-4.6-4.7-8.7-10-12.8-15.3c-2.8-3.7-5.9-7.2-9.2-10.5c-2.2-2.2-4.1-4.6-6.1-7
			c-4.6-5.6-8.9-11.7-13.9-16.9c-4.1-4.2-8-8.5-11.3-13.6c-0.9-1.4-2.2-2.4-3.1-3.9c-0.5-0.8-1.2-0.6-1.8,0.1
			c-5.8,6.1-11.6,12.2-17,18.9c-1.9,2.4-3.3,5.4-4.5,8.4c-1.9,4.4-4,8.7-5.7,13.2c-2.1,5.6-4.1,11.3-4.8,17.2
			c-0.7,6.5-2.4,12.9-2,19.6c0.2,3.7,0.8,7.2,1.2,10.9c0.3,2.6,0.3,5.3,0.8,7.7c2,9.1,5,17.7,8.9,25.9c1.7,3.5,3.6,6.6,5.3,10.1
			c0.2,0.4,0.3,0.9,0.3,1.3l-0.1,0.1c-1.2-0.2-1.5-1.4-2-2.3c-2.8-5.9-6-11.5-8.2-17.8c-1.8-5.3-4.1-10.3-5.1-15.8
			c-0.9-4.8-1.6-9.8-2-14.7c-0.4-4.5-0.4-8.9,0-13.3c0.2-2.5,0.9-5,1.1-7.6c0.2-5.8,1.8-11.3,3.4-16.6c2.2-7.4,5.2-14.4,8.9-21
			c0.7-1.2,1.6-2.2,1.8-3.7c0.1-0.2,0.2-0.4,0.4-0.6c0.4-0.1,0.6-0.4,0.6-0.8c0-0.1,0.1-0.2,0.1-0.4c0.6-0.1,0.6-0.6,0.6-1.1
			c0.3-0.8,0.7-1.4,1.4-1.7c0.7-0.2,1.2-0.7,1.2-1.6c0.1-0.6,0.3-1,0.8-1.2c0.4-0.1,0.7-0.4,1-0.7c2.4-2.6,4.6-5.4,7.1-7.9
			c0.9-0.9,2-1.7,2.4-3.2c0.1-0.1,0.2-0.1,0.3-0.2c0.6,0,0.9-0.3,1.1-1c0.1-0.1,0.2-0.1,0.3-0.2c1.4-0.5,2.1-2.3,3.7-2.2
			c0.9-0.1,1.2,0.6,1.4,1.5c0,0.5,0.2,0.9,0.6,1.2c4.4,5.2,8.9,10.5,13.2,15.7c0.4,0.4,0.7,0.9,1.3,0.9c0.8,0.2,1.2,0.7,1.4,1.6
			c1.4,2.6,3.3,4.6,5.4,6.3c1.1,0.9,2.1,1.9,2.8,3.3c-0.1,0.8,0.4,1.3,0.9,1.8c4,4.6,8,9.2,11.9,13.8c0.3,0.4,0.6,0.8,1.1,0.9
			c1.4,1.1,2.6,2.5,3.5,4.1c0,0.6,0.3,1.1,0.7,1.5c4.6,5.4,9.2,10.9,13.9,16.3c0.4,0.5,0.8,0.9,1.4,0.9c0.7,0.4,1.4,0.9,1.5,1.9
			c0,0.6,0.3,0.9,0.6,1.3c1.9,2.3,3.8,4.5,5.6,6.9c4.5,5.6,9.2,11,13.8,16.4c0.6,0.7,1,1.4,1.5,2c1.9,2.3,3.8,4.7,6.4,6.1
			c0.4,0.2,0.9,0.6,1.4,0.1c0.6-0.6,0.1-1.1-0.1-1.6c-1.1-2.9-3.1-5.1-4.6-7.7c-3.3-5.5-6.8-11-10.5-16.2
			c-5-7.1-10.3-13.9-14.9-21.4c-3.3-5.4-7.4-10.3-10.9-15.7c-3.5-5.4-7.4-10.4-11-15.7c-4.7-7-9.4-14.1-14.5-20.8
			c-2.9-3.8-5.4-8-8.2-12.1c-1.7-2.5-1.4-3.7,1.2-4.8c1.8-0.8,3.6-1.5,5.4-2.4c4.5-2,9.2-2.8,13.7-4.4c8.7-2.9,17.5-2,26.2-2.2
			c6-0.1,11.8,2,17.6,3.5c6.6,1.6,12.9,4.6,19.1,7.9c1,0.6,1.9,1.2,3,1.2c2.5,0.9,4.5,2.8,6.7,4.4c1.8,1.2,3.5,2.5,5,4.3
			c0.1,1,0.5,1.6,1.4,1.5l0,0c0.3,0.9,0.8,1.7,1.7,1.6c1,1.1,2,2.1,3,3.2c1.1,1.8,2.5,3.2,3.8,4.6c0.7,0.8,1.2,2,2.4,2.1
			c2.7,3.2,5.3,6.6,7.2,10.5c0,0.2-0.1,0.4,0,0.6c1.2,2.4,2.6,4.6,3.5,7.3c0.2,0.5,0.6,0.6,1,0.5c0.1,0.2,0.2,0.6,0.4,0.8
			c-0.2,0.1-0.4,0.3-0.2,0.6c0.1,0.1,0.4,0.1,0.6,0.2c0.2,0.1,0.3,0.4,0.3,0.7c0.7,2.2,1.1,4.7,2.7,6.4c0.4,0.7,0.6,1.4,0.7,2.2
			c0.1,3.2,1.7,5.7,2.9,8.4c0.1,0.4,0.1,0.7,0.1,1.2c-0.3,2.4,0.3,4.5,1.6,6.3c0,0.2,0.1,0.5,0.1,0.7c-0.6,0.5-0.2,0.7,0.2,0.8
			c0.1,0.6,0.1,1.3,0.1,1.9c-0.6,0.7-0.7,1.5,0.2,2c0.1,0.6,0.1,1.3,0.1,1.9c-0.4,1.2-0.9,2.5,0.3,3.6c0,0.2,0,0.5,0,0.8
			c-0.8,2.7-0.1,5.3,0.4,7.9c0,0.2,0,0.5,0,0.8c-1.3,1.5-0.7,3.1-0.3,4.8c0,0.2,0,0.5-0.1,0.8c-1.1,0.9-0.8,2-0.3,3.2
			c-0.1,0.8-0.1,1.5-0.1,2.4c-0.9,0.5-0.8,1.2-0.2,2c-0.1,0.5-0.1,1.1-0.1,1.5c-0.7,0.2-0.8,0.6-0.2,1.2c0,0.2-0.1,0.5-0.1,0.7
			c-1.4,1.8-2,3.9-1.7,6.3c0,0.2-0.1,0.5-0.1,0.7c-0.7,0.2-0.6,0.8-0.5,1.4c-0.1,0.4-0.1,0.9-0.1,1.4c-1,0.2-1.1,1.3-1.3,2.1
			c-2.4,8.1-5.7,15.7-10,22.7c-0.6,1-1.4,1.9-1.4,3.3l0,0c-0.7,0-1.1,0.4-1,1.3c0,0.1,0,0.2-0.1,0.2c-0.6,0-0.7,0.3-0.6,0.9
			c0,0.3-0.1,0.6-0.4,0.7c-0.9,0.1-1.4,0.6-1.4,1.7c-0.4,1.1-1.2,1.9-2,2.7c-0.6-0.1-0.7,0.2-0.7,0.9c-1.1,1.9-2.4,3.5-4,4.7
			c-0.6-0.1-0.8,0.1-0.8,0.7c-0.2,0.2-0.4,0.5-0.7,0.7c-1.5,0.2-5.3,4.6-5.5,6.1c-0.1,1.4,0.6,2.4,2,2.1c2.6-0.6,4.8-2.1,7.1-3.6
			c0.1-0.1,0.1-0.5,0.2-0.7c0.2-0.5,0.6-0.6,0.9-0.8c1.1,0.1,2-0.2,2.5-1.5l0,0c0.5,0.1,1,0.1,1.1-0.7c5.4-4,10.6-8.2,15.6-12.8
			c1.6-0.2,2.3-1.5,2.9-3c5.2-5.9,10.5-11.6,14.6-18.6c0.3,0.1,0.6,0,0.7-0.3c1.5-2.8,3.2-5.6,4.7-8.5c0.1-0.2-0.1-0.5-0.2-0.6
			c2.4-5.7,5.1-11.2,6.6-17.3c0.7-0.1,0.9-0.7,1.1-1.4c1.4-5.5,2.7-11.1,3-16.8c0.1-1.3,0.4-2.7-0.3-4c0.1-1.1,0.1-2.1,0.1-3.1
			c0.7-0.2,0.7-0.7,0.2-1.2c0-0.7,0-1.3,0-2c0.5-0.6,0.6-1.2-0.2-1.6c-0.1-1.1-0.1-2.1-0.1-3.2c0.6-0.5,0.4-1.2,0.4-1.8
			c0-7.5-1.7-14.5-4-21.4c-0.2-0.4-0.2-0.9-0.7-0.9c0-0.2-0.1-0.5-0.1-0.7c0.7-0.9,0.1-1.3-0.6-1.6c-0.1-0.2-0.1-0.4-0.1-0.7
			c-0.6-1.9-1.2-3.8-1.8-5.6c-0.1-0.4-0.4-0.8-0.9-0.8c-0.1-0.1-0.1-0.2-0.1-0.3c0.1-0.5-0.1-0.9-0.2-1.3c-1.7-4.8-4-9-6.4-13.2
			c-0.9-1.5-1.5-3.3-3.2-4.1c-0.1-0.1-0.1-0.2-0.1-0.2c0-1.2-0.7-1.9-1.6-2.1c-0.1-0.1-0.2-0.3-0.4-0.4c-0.1-1.5-0.9-2.3-2-2.7
			c-0.4-0.2-0.6-0.7-0.7-1.1c-0.1-1.2-0.7-1.9-1.7-2c-1.3-1.2-2.4-2.5-3.4-4c-0.3-1.4-1.1-2.2-2.4-2.4c-0.2-0.2-0.5-0.5-0.7-0.7
			c-1.5-2.7-3.4-5-6.2-5.9l0,0c-0.5-1.1-1.1-1.9-2.2-1.9c-0.1,0-0.2,0-0.2-0.1c-0.2-1.4-1.2-1.7-2.2-1.9c-0.1,0-0.2,0-0.2-0.1
			c0-1.1-0.8-1.2-1.4-1.5c-2-1.4-4.2-2.7-6.1-4.2c-4.9-3.8-10.2-6.9-15.6-9.6c-8.4-4.2-17.1-6.9-26.1-9.1c-5.1-1.3-10.4-2-15.6-2.7
			c-2-0.2-4.1-0.4-6.1,0.2c-0.2,0-0.5,0-0.7,0c-0.2-0.8-0.7-0.6-1.2-0.6c-5.2,0-10.5,0-15.7,0c-0.5,0-1.1-0.2-1.2,0.6
			c-0.2,0-0.5,0-0.7,0c-3.4-0.7-6.8-0.3-10.2,0.2c-6.7,1.1-13.4,2.8-20,4.5c-5.8,1.4-11.2,3.9-16.7,6.3c-2.5,1.1-3.6,0.7-5.2-1.6
			c-2.1-3.2-4.4-6.2-6.6-9.2c-2.3-3.1-4.3-6.4-6.4-9.7c-0.7-1.2-0.5-2.3,0.7-2.9c4-2.2,7.7-5.1,11.8-7.1c0.6-0.2,1.3-0.4,1.2-1.4
			c2.2-1.2,4.5-2.4,6.7-3.5c0.4,0.1,0.7,0,0.8-0.5h0.1l0.1,0.1c0.6,0.1,0.9-0.1,0.8-0.8C266.2,150.6,266.4,150.5,266.6,150.5z"/>
		<path class="st2" d="M267.5,150.7c0.3-0.8,1-1,1.7-1.2c1.1-0.4,2.2-0.7,3.2-1.2c2.1-1.2,3.5-3,3.3-6.1c-0.1-4.4,0-8.8-0.1-13.2
			c-0.1-2.1,0.6-3.8,1.4-5.6c0.4-0.7,0.9-1.2,1.7-1.1c2.5,0.1,4.4-1.6,6.6-2.5c1.2-0.5,1.5-2,1.2-3.3c-0.3-1.2-0.2-2.5-0.2-3.7
			c0-14,0-28,0-42c0-2.9-0.5-3-2.8-2.7c-5.2,0.6-10.2,2.6-15.4,3c-2.7,0.2-5.1,1.5-7.7,2.1c-6.8,1.5-13.4,4-19.9,6.6
			c-8.9,3.7-17.8,7.7-26.4,12.2c-1.1,0.6-2.1,1.1-3.1,1.6c-3.1,1.6-4.8,1.1-6.9-2c-5.4-7.9-11-15.8-16.5-23.8
			c-2.8-4.1-5.6-8.5-8.4-12.6c-2.8-4.1-5.8-8-8.6-12.1c-2-2.8-3.9-5.6-5.8-8.5c-1.2-1.9-2.2-2.3-3.9-1.1c-3.4,2.4-6.7,4.9-10.1,7.3
			c-3.5,2.5-6.9,5-10.5,7.2c-2.1,1.3-4.1,2.9-6.1,4.6c-5.4,4.5-11.1,8.4-16.7,12.6c-0.3,0.2-0.6,0.5-0.8,0.7
			c-0.4,0.4-1.1,0.9-0.7,1.6c0.4,0.7,1,0.3,1.5,0.2c5.8-1.2,11.6-2.5,17.3-3.7c3.2-0.6,6.1,0.1,8.1,3.5c1.6,2.6,3.8,4.8,5.7,7
			c3.7,4.2,7.1,8.7,11,12.6c1.2,1.2,1.1,2.1,0.1,3.4c-2,2.5-4.8,3.8-7.1,5.9c-3.4,3-7.3,5.3-10.8,8.2c-0.7,0.6-1.2,1.4-1.6,2.2
			c-0.8,1.6,0.4,3.5,2.2,3.3c2.8-0.2,5.8-0.8,8.5-1.7c2.2-0.7,4.4-1.2,6.7-1c-0.1,0.2-0.2,0.5-0.2,0.5c-3.7,0.2-6.9,2.6-10.6,2.6
			c-1.7,0-3.4,0.4-5,0.9c-1.3,0.4-2.5,0.6-3.1-1c-0.6-1.4-0.6-3.2,0.5-4.5c1.1-1.2,2.2-2.6,3.5-3.4c4-2.4,7.6-5.4,11.3-8.2
			c1.3-1,2.7-1.7,3.7-3.1c0.9-1.1,1.1-2-0.1-3.1c-3.8-3.5-6.9-7.9-10.2-11.9c-2.3-2.8-4.8-5.6-7.1-8.4c-1.4-1.7-3.1-1.5-4.6-1.1
			c-7.1,1.7-14.2,3.2-21.4,4.4c-1.6,0.3-3.3-0.1-4.9-0.2c-0.7-0.1-0.9-0.8-0.7-1.5c0.4-1.2,0.8-2.3,1.9-2.9
			c6.2-3.5,11.8-8.2,17.7-12.3c6.1-4.3,11.9-9,18-13.4c4.1-3,8.2-6.2,12.5-8.8c1.4-0.9,2.5-2.5,4.4-2.1c0.8,0.2,1.5,0.4,2.1,1.2
			c4.5,6.6,9.1,13.1,13.4,19.9c2.7,4.3,5.9,8.3,8.9,12.4c3.1,4.3,5.9,8.8,8.9,13.2c3,4.5,6.3,9,9.5,13.4c1.4,2,2.4,2,4.5,0.8
			c7.7-4,15.5-7.9,23.6-10.9c3.5-1.3,6.9-2.8,10.3-4.1c0.2-0.1,0.5-0.2,0.8-0.4c5.9-2,11.6-4.4,17.6-5.7c4.3-0.9,8.5-2.6,12.9-3.2
			c2.9-0.4,5.7-1.2,8.5-1.7c2.6-0.5,3.9,0.7,3.9,3.8c0,16.6,0,33.2,0,49.8c0,1.6-0.7,2.6-1.8,3.5c-2.2,1.9-5,2.3-7.4,3.4
			c-1.7,0.7-2.5,1.9-2.4,4c0.1,4.6-0.1,9.2,0.1,13.8c0.1,3.3-2,5.6-4,6.4C270.9,150,269.1,150.3,267.5,150.7z"/>
		<path class="st3" d="M289.4,355.8c-8.9-0.1-16.3-4.5-21.9-12.8c-2-3-3.3-6.6-3.1-10.6c0.1-2.1-0.2-4.3,0.2-6.3
			c1.6-7.4,5.4-12.8,11.1-16.3c6.7-4.2,13.8-4.6,21.2-3c4.6,1,8.5,3.6,11.8,7.4c3.2,3.6,6.4,7.3,6.9,12.8c0.7,6.4-0.1,12.4-4.1,17.3
			c-3,3.7-6.5,6.5-10.5,9C297.2,355.5,293.5,355.4,289.4,355.8z M312.8,330.6c-0.1-2.1,0.2-4.2-0.6-6.2c-2.6-6.9-7.4-11.2-13.3-13.2
			c-7.4-2.5-14.9-2.4-22,1.9c-6.6,4-10.6,9.8-10.6,18.8c0,2.7,1.1,4.8,2,7.1c1.7,4.4,4.6,7.6,8.2,9.7c5.2,3,10.6,4.6,16.7,3.7
			c4.3-0.6,8.5-2.2,11.9-4.8C310.1,343.7,313.3,338.1,312.8,330.6z"/>
		<path class="st2" d="M245.6,361.9c1.1,0.2,1.4,1.3,1.7,2.4l-0.1,0.1C246.4,363.8,245.9,363,245.6,361.9L245.6,361.9z"/>
		<path class="st2" d="M244.9,360.7c0.6,0.1,0.7,0.6,0.7,1.2l-0.1,0.1C245.1,361.7,244.9,361.4,244.9,360.7L244.9,360.7z"/>
		<path class="st4" d="M158.3,94.4c1.3-1,2.5-1.9,3.8-2.9c0.8-0.4,1.5-0.9,2.2-1.5c4.4-3.7,9.2-6.6,13.9-9.8c2-1.4,3.2-1,4.6,1.1
			c3.8,5.9,7.8,11.7,11.8,17.5c3,4.3,5.9,8.5,9,12.8c2.8,3.9,5.4,7.9,8.1,11.9c1.4,2.1,3.2,2.5,5.3,1.2c2-1.2,4-2.6,6.1-3.4
			c3.4-1.2,6.6-3.1,10-4.3c4-1.4,7.8-3.3,11.8-4.6c6.6-2,13.4-3.7,20.1-5.4c1.8-0.5,3.7-0.7,5.6-0.9c2.5-0.2,3.2,0.7,3.1,3.5
			c-0.1,5.6,0.1,11.3-0.2,17c-0.3,4.8-0.2,9.7,0,14.6c0.1,2.6-0.9,4-2.7,5.1c-2.2,1.3-4.5,2.4-6.8,3.6c-7,3.5-13.9,7.3-20.5,11.7
			c-2.7,1.7-3.2,3.7-1,7.2c1,1.5,2.4,2.6,3.3,4.1c3.2,5,6.5,9.9,9.8,14.7c2.4,3.4,3.6,3.7,7.1,2c2.2-1.1,4.5-2,6.7-2.9
			c7.9-3.3,16-5.3,24.1-7c5.8-1.2,11.6-2.1,17.5-2.2c5.3-0.1,10.5-0.1,15.7,0c2.5,0.1,5,0.1,7.5,0.6c6.6,1.2,13.1,2.3,19.6,4.1
			c9.3,2.5,18.4,6,27.1,10.6c7.4,3.9,14.3,9,20.9,14.5c4.1,3.5,8,7.1,11.7,11.2c5.6,6.2,10.2,13.4,14.3,21c2.2,4.1,4.4,8.4,5.9,13.1
			c1.1,3.3,1.9,6.9,3,10.2c2.3,7.3,2.5,14.9,3,22.4c0.5,6.9-0.7,13.9-1.9,20.7c-1,6.1-2.7,11.9-5,17.5c-2.5,5.9-5.6,11.4-8.7,16.8
			c-5.2,9-11.9,16.2-19,23c-5.4,5.2-11,10.1-17.5,13.5c-0.6,0.3-1.2,1-1.7,0.2c-0.4-0.6,0.2-1.2,0.7-1.7c2.3-2.9,4.6-5.9,6.9-8.7
			c5.2-6.4,9.2-13.6,12.4-21.6c1.5-3.8,3-7.6,4-11.5c1.6-5.9,2.7-12.1,3.5-18.2c0.8-5.6,1.2-11.3,0.6-16.9
			c-0.7-7.1-1.5-14.2-3.4-21.2c-2.2-8.2-4.8-16-8.7-23.3c-2.7-5.1-5.8-9.9-9.3-14.3c-3.6-4.5-7.2-8.9-11.5-12.6
			c-2.7-2.4-5.4-4.6-8.4-6.7c-3.6-2.6-7.1-5.3-11-7.2c-6.1-3-12.3-5.6-18.8-7.2c-4.7-1.2-9.3-2.5-14.1-2.7c-7.3-0.2-14.7-0.5-22,0.6
			c-10.1,1.4-19.7,4.6-29,9.3c-1.1,0.6-2,1.4-1.8,2.8c0.1,1.4,0.5,3,2,3.5c0.1,0.1,0.2,0.3,0.3,0.4c-0.2,0.6,0.2,0.9,0.6,1.4
			c3.8,5.6,7.6,11.1,11.5,16.7c3.3,4.9,6.6,9.8,10,14.7c5.1,7.3,10.5,14.4,15.4,21.8c5,7.8,10.8,14.9,15.7,22.8
			c1.8,2.9,3.5,5.9,5.3,8.9c0.2,0.4,0.5,0.8,0.1,1.2c-0.2,0.2-0.5-0.1-0.7-0.3c-3.1-2.7-5.6-6.1-8.4-9.2c-2.2-2.4-4.1-5.4-6.3-7.9
			c-6-7.2-12.3-14.2-18.4-21.4c-2.2-2.6-4.3-5.4-6.4-8.1c-2.8-3.4-5.6-6.9-9.1-9.4c-0.1-0.1-0.1-0.2-0.2-0.2
			c0.1-0.5-0.2-0.9-0.4-1.2c-1.7-1.9-3.3-3.8-4.8-5.9c-4-5.2-8.2-10-12.5-14.9c-1.1-1.2-2.3-2.2-3.2-3.5c-1.4-1.8-2.5-2.2-4.4-1.4
			c-1.3,0.5-2,1.7-3,2.5c-7.4,6.2-13.4,13.9-18.6,22.5c-2.7,4.4-5,9.1-7,14.1c-4,10-6.7,20.4-7.3,31.4c-0.7,11.8-0.6,23.6,2.5,35.2
			c1.4,5.2,2.9,10.3,4.8,15.4c1.7,4.5,3.8,8.8,6.1,12.9c4.1,7.1,9.7,12.6,14.5,18.9c0.6,0.7,1.7,1.5,1.1,2.6
			c-0.6,0.9-1.6,0.1-2.4-0.4c-3.6-2.2-7.1-4.3-10.5-6.9c-6.4-4.9-12.4-10.5-18.1-16.6c-5.1-5.4-9.4-11.7-13.2-18.4
			c-3.6-6.1-6.5-12.7-8.9-19.7c-1.7-5.1-2.8-10.3-3.5-15.5c-1.1-7.4-1.5-15-0.7-22.5c0.4-4.3,0.7-8.6,1.8-12.8
			c0.9-3.3,1.6-6.6,2.7-9.8c1.3-3.7,2.6-7.4,4.4-10.7c2.1-4,4-8.1,6.3-12c2.7-4.6,6.1-8.7,8.9-13.3c1-1.7,2.7-2.9,4-4.3
			c4.8-5.1,10-9.7,15.5-13.7c1.8-1.3,2.2-3,1-5c-0.4-0.6-0.8-1.3-1.3-1.9c-4.5-5.3-9.1-10.5-13.7-15.8c-2-2.4-3.5-2.5-5.7-0.5
			c-2.5,2.4-5.1,4.8-7.5,7.4c-7.1,8.1-14,16.4-19.9,25.6c-5.9,9-10.5,18.8-14.7,29c-2.8,6.6-5,13.5-6.7,20.6
			c-2.7,10.7-4.3,21.6-4.8,32.7c-0.4,11.2-0.1,22.5,1.6,33.5c1.2,7.7,2.8,15.4,5.1,22.8c1.9,6.1,4.1,12.2,6.8,18
			c2,4.3,3.8,8.8,6.1,13c5.6,10.7,12.4,20.4,19.9,29.5c6.6,8,13.9,15.1,21.7,21.6c0.8,0.7,1.6,1.4,2,2.7c-1.5,0-2.8,0.2-4-0.6
			c-1.9-1.1-3.7-2.1-5.6-3c-7.9-3.7-15.3-8.4-22.5-13.4c-2.8-1.9-5.4-4.2-8-6.6c-4.1-3.8-8.4-7.1-12.5-10.8c-2.7-2.5-5.1-5.3-7.7-8
			c-3.5-3.6-6.4-7.9-9.6-11.9c-2.9-3.6-5.4-7.6-7.9-11.5c-2.8-4.3-5.3-8.8-7.7-13.4s-4.8-9.2-6.8-14.1c-3.8-9.5-6.9-19.4-8.9-29.6
			c-2.6-13.1-3.8-26.2-3.5-39.6c0.1-2.8,0.6-5.6,0.6-8.4c-0.1-8,1.7-15.7,3.1-23.5c1.4-7.5,3.5-14.8,6-21.9c1.8-5,3.7-9.9,6-14.5
			c2.8-5.5,5.5-11.1,8.7-16.5c2.8-4.6,5.6-9.2,8.8-13.5c4.3-5.8,9-11.1,13.9-16.3c2.3-2.5,4.5-5.1,7.1-7.3c3.5-2.9,6.7-6.1,10.2-8.9
			c2.2-1.7,2.1-3.6,0.2-5.8c-2.7-3.2-5.5-6.3-8.2-9.5c-5.5-6.6-10.7-13.7-16.8-19.7c-1.4-1.4-2.5-4.2-5-3.3c-2.7,1-5.5,1-8.2,1.4
			c-2.1,0.3-4.1,1.2-6.3,1c-0.4-0.1-0.9,0.1-1-0.5c-0.1-0.4,0.1-0.7,0.4-1c1.1-1.1,2-2.6,3.2-3.2c3.4-1.5,5.6-4.9,8.7-6.8
			c0.1-0.1,0.2-0.1,0.2-0.2C158.1,94.8,158.3,94.7,158.3,94.4z M222.9,430.3c-0.1-0.7-0.6-1.1-1-1.5c-3.3-3.6-7-6.6-10.3-10.2
			c-3.3-3.6-6.6-7.2-9.5-11.3c-3.2-4.5-6.5-8.9-9.6-13.5c-3.4-5.1-6.6-10.3-9-16.1c-1-2.5-1.9-5-3-7.4c-1-2.2-2-4.5-3.1-6.7
			c-1.3-2.5-2.2-5.3-3.2-8c-1.7-4.6-2.7-9.5-4.1-14.2c-0.3-1.1-0.8-2-1-3.1c-0.7-5.2-1.9-10.3-2.2-15.7c-0.3-5.8-1.4-11.5-1.2-17.4
			c0.1-4.2-0.2-8.4,0.3-12.6c0.5-3.5,0.7-7.1,1.1-10.7c0.5-6.4,1.5-12.6,3.4-18.8c0.2-0.8,0.6-1.5,0.7-2.4c0.6-3.9,1.9-7.7,3.2-11.3
			c0.8-2.2,2.1-4.2,2.4-6.6c0.1-0.3,0.2-0.6,0.4-0.9c1.5-2.2,2.4-4.9,3.3-7.4c2-5,4.4-9.7,6.7-14.4c3.4-6.8,7.7-12.8,12.3-18.4
			c2.6-3.2,5.3-6.4,7.6-9.8c1.6-2.4,3.5-4.5,5.4-6.6c2.5-2.7,5.2-5,7.8-7.6c1.9-1.8,4.8-2.6,6.1-1.2c3.3,3.6,6.6,7.3,9.7,11
			c2.1,2.5,4,5.3,6.3,7.5c1.9,1.7,2,3.7,1.9,5.9c-0.1,1.8-1.3,2.4-2.7,2.8c-0.4,0.1-0.7,0.4-1,0.7c-4.1,4.1-8.9,7.6-12.9,11.8
			c-1.9,2-4.3,3.5-5.9,5.9c-3,4.6-6.3,8.9-9,13.7c-2.7,5-6,9.6-7.6,15.4c-0.1,0.2-0.2,0.4-0.4,0.7c-2.2,3-2.4,6.9-3.6,10.4
			c-0.5,1.4-0.2,3-0.6,4.4c-1.1,4.5-1.5,9-1.8,13.6c-0.4,10,0.3,19.9,2.1,29.6c0.4,2.2,1.6,4.1,1.8,6.3c0.3,3.7,2.2,6.4,3.5,9.5
			c2.2,5.1,5.1,9.9,8,14.6c4.5,7.4,10,13.7,16,19.5c5.4,5.3,10.8,10.5,17.2,14.2c0.7,0.4,1.5,1.3,2.1,0.6c0.6-0.8-0.3-1.6-0.9-2.3
			c-0.1-0.1-0.2-0.3-0.4-0.4c-2.8-3.1-5.4-6.4-7.7-10c-2.3-3.5-4.6-7-6.3-10.9c-1.1-2.4-2-4.9-3.3-7.2c-1.4-2.8-2-5.9-3-8.9
			c-1.1-3.5-1.6-7.1-2.5-10.6c-0.7-2.8-1.2-5.8-1.2-8.7c-0.1-8-0.1-16,0-24.1c0-1.8,0.1-3.7,0.4-5.4c1.2-5.4,2.2-10.8,3.9-16
			c2.4-7.3,5.4-14.4,9.7-20.6c1.1-1.5,2.2-2.8,3-4.5c2.3-4.1,5-7.8,7.7-11.5c3.1-4.1,7.1-6.9,10.7-10.3c1.9-1.8,5-1.5,6.3,0.4
			c1.9,2.8,4.5,4.9,6.6,7.3c2.2,2.4,4.3,4.8,6.3,7.4c3.5,4.7,6.9,9.5,11,13.6c3.9,3.8,7.6,8,10.9,12.5c3.4,4.6,7,9.1,11,13.2
			c1.4,1.4,2.6,3.1,4,4.5c2.7,2.7,5,5.9,7.4,8.9c1.7,2.1,3.3,4.1,5,6.2c0.2,0.2,0.5,0.7,0.9,0.4c0.4-0.2,0.1-0.7,0-1.1
			c-0.1-0.3-0.2-0.6-0.4-0.8c-1.9-2.1-3.5-4.5-5.2-6.7c-4.4-5.6-8.2-11.6-12.3-17.5c-1.8-2.6-3.4-5.4-5.3-7.9
			c-2.7-3.6-5.4-7.2-7.9-11.1c-2.3-3.5-4.8-6.8-7.2-10.2c-4.3-6-7.9-12.6-12.4-18.4c-1.4-1.8-2.8-3.7-4.1-5.5
			c-1.4-2.1-0.9-5.4,1.1-6.4c2.7-1.4,5.6-2.6,8.3-4.1c4.6-2.6,9.8-3.1,14.7-4.9c4.2-1.5,8.9-1.7,13.2-1.9c6.8-0.3,13.6-1,20.4,0.6
			c2.4,0.6,5.1,0.2,7.4,1.1c3.8,1.3,7.7,2.4,11.5,3.5c3.2,0.9,6,2.8,9,4.2c1.6,0.7,3.3,1.2,4.8,2.5c3.2,2.8,6.9,5,10.2,7.6
			c4.3,3.5,8.8,6.7,12.6,11c2.7,2.9,4.9,6.2,7.2,9.4c4.7,6.5,9.3,13.1,12.2,20.9c1.4,3.7,3,7.2,3.8,11.2c0.3,1.7,0.2,3.4,1,5
			c0.9,1.7,1.1,3.7,1.2,5.6c0.1,0.9,0.1,1.7,0.2,2.5c0.4,3.2,1.9,6.1,1.8,9.3c-0.2,8.5,0.5,16.9-1.5,25.4
			c-1.2,5.3-2.1,10.8-3.3,16.2c-0.7,3.3-2.4,6.3-3.5,9.5c-1.7,4.9-4.3,9.1-6.9,13.4c-2.4,4.1-5.4,7.6-8.5,11
			c-0.4,0.4-0.9,0.8-0.3,1.4c0.5,0.6,1,0.2,1.3-0.2c1-1.5,2.6-2.1,3.8-3.2c5.1-4.5,10.1-9.1,14.7-14.2c2.2-2.4,4.3-4.8,6.3-7.4
			c2.7-3.4,4.6-7.6,7.2-11.2c1.3-1.9,1.8-4.5,3.3-6.1c2-2.3,2.8-5.4,3.9-8.1c1.2-2.9,2.8-5.9,2.8-9.5c-0.1-2.5,1.3-4.7,1.5-7.2
			c0.4-4.1,0.7-8.3,1.4-12.4c0.4-2.4,0.5-4.8,0.4-7.2c-0.1-3.8-1-7.4-1.2-11.1c-0.1-3.2-0.6-6.4-1.5-9.6c-1.1-3.3-1.5-6.7-2.6-10
			c-1.1-3.3-2.4-6.6-3.9-9.6c-1.8-3.5-3.8-6.7-5.8-10.1c-2.9-4.8-5.9-9.5-9.5-13.6c-4.6-5.4-9.9-10-15.2-14.5
			c-1.7-1.5-3.8-2.7-5.4-4.3c-1.8-1.7-3.8-3.2-5.9-4.2c-3.7-1.9-7.4-3.8-11.1-5.6c-4.5-2.2-9.1-3.8-13.7-5.8
			c-5-2.1-10.3-3.2-15.5-4.4c-2.5-0.6-4.9-1.6-7.5-1.7c-1.4-0.1-3-0.3-4.4-0.4c-3.7-0.2-7.2-1.4-11-1.5c-7.2-0.1-14.4,0.2-21.6,1.2
			c-2.9,0.4-5.8,0.8-8.8,1.2c-2.4,0.2-4.4,1.8-6.7,2c-4.5,0.4-8.7,2.2-13,3.8c-4.3,1.6-8.5,3.1-12.6,5.3c-1.6,0.9-3.5,1-5-1.1
			c-2.4-3.5-5.1-6.9-7.3-10.6c-2.4-4-4.6-8.2-7.7-11.6c-2.8-3-2.4-6.9,1-9c0.4-0.2,0.9-0.6,1.3-0.9c4.8-3.9,10.2-6.3,15.4-9.2
			c0.3-0.2,0.7-0.2,1-0.2c1.5,0.2,2.8-0.4,3.8-1.4c1.1-1.2,2.4-1.8,3.8-2.1c1.1-0.2,2-0.9,3-1.4c1-0.6,1.9-1.5,1.5-3
			c-0.2-1-0.2-2-0.2-2.9c0-7.9,0-15.7,0-23.6c0-1.7-0.1-3.4,0.1-5.1c0.2-2.2-0.6-3.1-2.5-2.7c-3.5,0.7-7,2.1-10.5,3
			c-4.8,1.1-9.8,2.2-14.4,4.3c-3.2,1.5-6.5,2.7-9.8,3.8c-2.9,0.9-5.4,2.9-8.4,3.5c-2.9,0.6-5.4,2.1-7.9,4c-2.2,1.7-5.3,1.4-7.1-0.7
			c-2.7-3.4-5.2-7.1-7.5-10.8c-2-3.3-4.4-6.3-6.7-9.4c-1.1-1.5-1.8-3.3-2.9-4.8c-1.4-1.8-2.8-3.6-4.3-5.3c-3.3-3.8-5.4-8.5-8.3-12.6
			c-0.8-1.2-1.4-1.2-2.4-0.6c-2.3,1.4-4.3,3.5-6.4,5.1c-4.1,3-8.3,5.9-12.3,9.2c-0.2,0.2-0.4,0.4-0.7,0.6c-3.1,1.4-5.9,3.5-8.7,5.5
			c-0.3,0.2-0.8,0.4-0.7,1s0.6,0.7,0.9,0.6c2.8-0.6,5.8-0.4,8.5-1.5c1.7-0.7,3.4-0.8,4.8,0.6c2,2,4.1,4.1,6.1,6.3
			c4.8,5.3,8.6,11.7,13.4,17c3,3.3,6.1,6.5,9.1,9.8c1.8,1.9,1.5,5.6-0.5,7.2c-2.5,2-5.1,3.9-7.7,5.8c-3.8,2.9-7,6.7-10.2,10.4
			c-2,2.4-4.1,4.8-6.3,7.2c-3.7,4.1-7.6,8-10.5,13.1c-3.2,5.6-6.7,10.8-9.9,16.5c-1.7,3-3.2,6.3-4.8,9.3c-1.1,2-2.3,4.1-3,6.3
			c-1.6,5.2-4,10-5.1,15.5c-1.1,5.5-3.2,10.7-3.9,16.4c-0.5,3.9-1.7,7.6-1.9,11.6c-0.1,3.2-0.6,6.4-0.9,9.5
			c-0.4,4.2-1.3,8.4-1.2,12.7c0.1,3.4,0.8,6.7,1,10.1c0.3,6.3,1.1,12.5,2.2,18.6c0.7,4.3,1.3,8.6,2.5,12.8c0.8,2.8,1.8,5.6,2.5,8.5
			c1.4,6,3.4,11.8,5.9,17.3c1.1,2.5,2,5.1,3.5,7.3c2.7,4,4.4,8.8,7.2,12.8c1.5,2,2.5,4.5,4,6.6c2.8,4,5.8,8,8.8,12
			c4.3,5.7,9,10.8,14,15.5c4.1,3.9,8.4,7.6,12.8,11.1c5.1,4.3,10.1,8.7,15.8,11.8c4.8,2.7,9.6,5.3,14.4,7.9
			C222.1,430.5,222.4,430.8,222.9,430.3z"/>
		<path class="st3" d="M157.7,95c-3.1,1.9-5.3,5.3-8.7,6.8c-1.2,0.6-2.2,2-3.2,3.2c-0.2,0.2-0.5,0.6-0.4,1c0.1,0.6,0.6,0.4,1,0.5
			c2.2,0.2,4.1-0.7,6.3-1c2.7-0.4,5.5-0.4,8.2-1.4c2.5-0.9,3.5,1.9,5,3.3c6.1,6,11.3,13.1,16.8,19.7c2.7,3.2,5.5,6.3,8.2,9.5
			c1.9,2.2,1.9,4-0.2,5.8c-3.5,2.8-6.7,6-10.2,8.9c-2.6,2.2-4.8,4.8-7.1,7.3c-4.8,5.3-9.6,10.6-13.9,16.3c-3.2,4.3-6,8.9-8.8,13.5
			c-3.2,5.3-5.9,10.9-8.7,16.5c-2.4,4.6-4.3,9.6-6,14.5c-2.5,7.1-4.6,14.4-6,21.9c-1.4,7.7-3.2,15.4-3.1,23.5
			c0.1,2.8-0.6,5.6-0.6,8.4c-0.3,13.4,0.9,26.6,3.5,39.6c2,10.3,5.1,20.1,8.9,29.6c2,4.9,4.5,9.4,6.8,14.1c2.4,4.7,5,9.1,7.7,13.4
			c2.5,4,5,7.9,7.9,11.5c3.2,4,6.1,8.4,9.6,11.9c2.6,2.7,5,5.5,7.7,8c4.1,3.7,8.5,7.1,12.5,10.8c2.5,2.4,5.2,4.6,8,6.6
			c7.2,5,14.7,9.8,22.5,13.4c1.9,0.9,3.8,1.9,5.6,3c1.2,0.7,2.5,0.6,4,0.6c-0.4-1.4-1.2-2.1-2-2.7c-7.7-6.5-15-13.6-21.7-21.6
			c-7.6-9-14.3-18.8-19.9-29.5c-2.2-4.2-4.1-8.7-6.1-13c-2.7-5.8-4.9-11.8-6.8-18c-2.4-7.4-4-15-5.1-22.8c-1.7-11.1-2-22.3-1.6-33.5
			c0.4-11.1,2-22,4.8-32.7c1.8-7.1,4-13.9,6.7-20.6c4.3-10.1,8.9-19.9,14.7-29c6-9.2,12.9-17.5,19.9-25.6c2.4-2.7,5-5,7.5-7.4
			c2.2-2,3.7-1.9,5.7,0.5c4.6,5.3,9.1,10.5,13.7,15.8c0.5,0.6,0.9,1.2,1.3,1.9c1.2,2,0.8,3.7-1,5c-5.6,4-10.7,8.7-15.5,13.7
			c-1.4,1.4-3,2.6-4,4.3c-2.7,4.6-6.1,8.7-8.9,13.3c-2.3,3.9-4.1,8-6.3,12c-1.8,3.3-3.1,7.1-4.4,10.7c-1.2,3.2-1.9,6.6-2.7,9.8
			c-1.1,4.2-1.4,8.5-1.8,12.8c-0.8,7.6-0.4,15.1,0.7,22.5c0.8,5.3,1.8,10.5,3.5,15.5c2.4,6.9,5.3,13.5,8.9,19.7
			c3.8,6.6,8.1,12.9,13.2,18.4c5.7,6,11.6,11.6,18.1,16.6c3.4,2.6,6.9,4.7,10.5,6.9c0.7,0.4,1.8,1.3,2.4,0.4c0.6-1-0.4-1.8-1.1-2.6
			c-4.9-6.3-10.5-11.8-14.5-18.9c-2.4-4.1-4.4-8.4-6.1-12.9c-1.9-5-3.4-10.2-4.8-15.4c-3.2-11.5-3.2-23.3-2.5-35.2
			c0.6-10.9,3.3-21.4,7.3-31.4c2-5,4.3-9.6,7-14.1c5.2-8.5,11.3-16.3,18.6-22.5c1-0.9,1.7-2,3-2.5c1.9-0.7,3-0.4,4.4,1.4
			c1,1.2,2.2,2.3,3.2,3.5c4.3,4.8,8.5,9.7,12.5,14.9c1.5,2,3.2,4,4.8,5.9c0.3,0.3,0.6,0.7,0.4,1.2c-1.1,0.2-1.7-0.7-2.4-1.4
			c-1-1-1.6-2.5-3-2.9c-0.1-0.9-0.6-1.4-1.4-1.6c0.1-0.6-0.2-0.9-0.5-1.2c-4.5-5.3-8.9-10.5-13.3-15.7c-0.4-0.4-0.6-0.9-1.2-0.9
			c-0.2-0.9-0.5-1.5-1.4-1.5c-1.5-0.9-2.8-0.1-3.7,2.2c-0.1,0.1-0.2,0.1-0.3,0.2c-0.7-0.2-1,0.2-1.1,1c-0.1,0.1-0.2,0.1-0.3,0.1
			c-0.3-0.1-0.6,0-0.7,0.2c-3.2,3.4-6.4,6.7-9.3,10.3c-0.2,0.3-0.6,0.6-0.4,1.2c-0.5,0.2-0.8,0.6-0.8,1.2c-0.8,0.1-1.3,0.6-1.2,1.6
			c-0.7,0.3-1.2,0.9-1.4,1.7c-0.6,0.1-0.7,0.4-0.6,1.1c-0.1,0.1-0.1,0.2-0.1,0.4c-0.4,0.1-0.7,0.2-0.6,0.8c-0.1,0.2-0.2,0.4-0.4,0.6
			c-0.6,0-0.8,0.5-1.1,0.9c-2.1,3.5-4.2,7.1-5.8,10.9c-3.3,8-6.3,16.1-7.4,24.9c-0.6,4.6-1.5,9.2-1.8,13.9
			c-0.6,11.2,1,22.2,3.6,32.9c2,8.5,5.3,16.4,9.5,23.8c2.5,4.6,5.4,8.9,8.7,12.8c2.4,2.8,4.6,5.6,7.3,8c2,1.7,3.8,3.9,5.8,5.7
			c0.7,0.6,1.1,1.5,0.6,2.4c-0.5,0.9-1.3,0.6-2,0.4c-0.2-0.1-0.4-0.2-0.6-0.3c-3.9-2.2-8-3.8-11.6-6.6c-1.2-0.9-2.7-1.5-4.1-2.3
			l-0.1-0.1c-0.5-1.1-1.4-1.4-2.4-1.5c-0.1-0.1-0.2-0.3-0.4-0.4c-0.2-0.7-0.6-1.2-1.3-1.1l-0.1-0.1c-0.3-0.9-0.9-1.1-1.7-1.2
			l-0.1-0.1c-0.2-0.7-0.6-1.2-1.4-1.1l-0.1-0.1c-0.1-0.6-0.4-0.9-1-0.7l-0.1-0.1c-0.2-0.7-0.6-1.2-1.4-1.1l-0.1-0.1
			c-0.6-1.3-1.5-2-2.7-2.4l-0.1-0.1c-0.2-0.3-0.3-0.7-0.6-0.9c-2.5-2.6-5.3-5-7.6-7.9c-0.2-0.2-0.5-0.3-0.8-0.2c-1.4-2-3-4-4.9-5.6
			c0.1-1.1-0.6-1.5-1.3-1.9l-0.1-0.1c-0.1-1.4-1.1-2-2-2.7l-0.1-0.1c-0.4-1.5-1.1-2.7-2.4-3.5l-0.1-0.1c0.1-0.9-0.4-1.4-0.8-2
			c-3.8-5.8-6.6-12.4-9.1-19c-1.4-3.8-2.5-7.7-3.5-11.6c-1.6-6.1-2.3-12.3-2.8-18.4c-0.6-7.4,0.5-14.8,1.5-22.1
			c0.4-2.7,1.5-5.1,1.7-7.7c0.1-0.2,0.1-0.5,0.1-0.8c0.4-0.2,0.4-0.4,0.2-0.8c0-0.2,0.1-0.5,0.1-0.8c0.6-0.3,0.5-1,0.7-1.5
			c1.7-4.3,3.2-8.7,5-12.8c4.8-10.6,11.1-19.9,18.6-28.1c0.4-0.4,0.9-0.7,0.7-1.4l0,0c1.1-0.2,1.8-1.1,2.1-2.3
			c3.7-4.1,7.9-7.6,12.3-10.7c0.6-0.4,1.1-1,1.5-1.5c1.3-1.1,1.1-2.4,0.1-3.5c-2.2-2.6-4.5-5.1-6.8-7.6c-2.2-2.8-4.5-5.6-6.7-8.3
			c-0.4-0.5-0.7-1.2-1.5-1.2c-2.3-1.4-3.5,0.9-5,2.1c-1.9,1.5-3.3,3.6-5,5.5c-0.2,0-0.4-0.1-0.5,0.1c-2.7,3.1-5.6,6-8,9.4
			c-3,3.4-5.9,7-8.4,10.8c-2.7,3.9-5.1,8-7.4,12.2c-2.3,4.1-4.7,8.2-6.7,12.6c-1.4,3.1-2.4,6.4-3.9,9.5c-1.4,3-2.3,6.2-3.4,9.3
			c-0.4,0.2-0.9,0.3-0.2,0.9c-0.1,0.5-0.3,1-0.4,1.5c-0.4,0.2-0.9,0.4-0.2,0.9c-0.1,0.2-0.1,0.5-0.1,0.7c-0.7,0.1-0.6,0.9-0.8,1.4
			c-0.6,2.2-1.2,4.4-1.7,6.6c-2.2,9.6-4,19.3-4.2,29.2c-0.4,14.6-0.3,29.2,3,43.4c1.2,5.1,2.2,10.3,3.7,15.4
			c0.2,0.7,0.2,1.7,1.1,2.1c0.6,1.2,0.9,2.5,1.1,3.9c-0.2,2.2,0.8,3.7,2,5.1c0.2,0.7,0.5,1.5,0.7,2.3c0,1.4,0.7,2.4,1.7,3.2
			c0.2,0.5,0.4,1,0.6,1.5c-0.2,0.6,0.1,0.8,0.5,0.9c0.9,1.3,1.4,2.8,2.1,4.3c0.1,1,0.4,1.8,1.3,2.1c0.4,0.9,0.7,1.7,1.1,2.6
			c-0.1,0.6,0.2,0.8,0.6,0.9c0,0.1,0,0.2,0.1,0.3c0.7,1.9,1.5,3.9,3,5.2c0,0.1,0,0.2,0.1,0.3c-0.1,0.6,0.2,0.8,0.6,0.9
			c0,0.1,0,0.2,0.1,0.3c-0.1,0.6,0.2,0.8,0.6,0.9c0,0.1,0,0.2,0.1,0.2c-0.1,0.8,0.4,1.2,1,1.3c0,0.1,0,0.2,0.1,0.3
			c-0.1,0.6,0.2,0.8,0.6,0.9c0,0.1,0,0.2,0.1,0.3c0.2,1.2,0.7,2.2,1.7,2.8l0,0c-0.1,0.6,0.2,0.8,0.6,0.9c0,0.3,0.1,0.6,0.4,0.7
			c-0.1,0.6,0.2,0.8,0.7,0.9c0.1,0.2,0.2,0.4,0.4,0.7c0,0.8,0.4,1.3,1.1,1.5c0.2,0.3,0.4,0.6,0.6,0.9c0,0.6,0.2,1,0.7,1.1
			c0.4,0.9,1,1.5,1.7,2c0.1,0.8,0.4,1.3,1.1,1.5c1.8,2.4,3.7,4.8,5.8,6.8c0.9,2.4,2.9,3.7,4.3,5.5c0.6,0.7,1.1,1.9,2.2,2
			c0.4,0.7,0.9,1.4,1.6,1.6c0.1,0.5,0.3,0.8,0.7,0.7c0.2,0.5,0.5,0.7,0.9,0.8c0.2,0.9,0.6,1.5,1.5,1.5c0.4,0.4,0.6,1.2,1.3,1.2
			c0.1,0.5,0.3,0.8,0.7,0.7c0.2,0.1,0.4,0.3,0.6,0.4c0.1,0.6,0.3,0.8,0.7,0.7c0.1,0.1,0.1,0.1,0.2,0.1c0.1,0.7,0.5,1.1,1.2,1.1
			c0.1,0.3,0.3,0.4,0.6,0.4c0.1,0.7,0.4,1.2,1.1,1.1c0.1,0.1,0.2,0.1,0.2,0.1c0.1,0.5,0.3,0.8,0.7,0.7c0.1,0.1,0.1,0.1,0.2,0.1
			c0.6,1.4,1.6,2,2.8,2.4c0.1,0.1,0.1,0.1,0.2,0.1c0.1,0.7,0.4,1.2,1.1,1.1c0.2,0.1,0.4,0.3,0.6,0.4c0.1,0.8,0.6,1.1,1.1,1.4
			c0.6,0.3,1.1,0.8,1.5,1.3c0.5,0.6,0.7,1.2,0.5,1.9c-0.2,0.7-0.9,0.5-1.4,0.5c-1.2-0.1-2.5-0.2-3.7-0.3c-0.9-0.7-1.9-1.2-3-1.2
			c-0.1-0.2-0.2-0.6-0.3-0.6c-4.6-1.8-9-4.4-13.5-6.7c-3.8-2-7.5-4.3-11-7.1c-2.5-2-5.3-3.8-7.9-5.7c-6.4-4.7-12.5-9.9-18.3-15.5
			c-6.3-6.1-12.1-12.8-17.4-20c-4.1-5.6-8.2-11.3-12.2-17c-1-1.4-1.7-2.9-2.4-4.5c-1.8-4.1-4.2-7.9-6-12.1
			c-2.2-5.4-4.6-10.6-6.5-16.2c-1.5-4.7-3.1-9.4-4.2-14.3c-1.5-6.7-2.8-13.5-3.7-20.4c-0.2-1.9-0.4-3.8-0.4-5.7
			c-0.1-6.1-0.6-12.2-0.4-18.3c0.2-14.4,2-28.5,5.9-42.3c1.6-5.6,3.4-11.1,5.6-16.5c3.6-9,7.6-17.8,12.4-26
			c3.7-6.4,8-12.4,12.6-18.1c2.7-3.4,5.4-6.9,8.3-10.2c5.2-6.1,11.2-11.1,16.9-16.5c1-0.9,2-1.9,3-2.9c1.1-1.1,1.1-2.4,0.1-3.6
			c-2.8-3.3-5.4-6.7-8.2-10c-5.6-6.6-10.6-13.7-16.5-20.1c-1.4-1.5-2.8-1.8-4.6-1.5c-5.1,0.7-10.1,1.9-15.1,2.9
			c-1.1,0.2-2.8,0.8-3.3-0.9c-0.5-1.5,1.1-2.1,1.9-2.8c4-3.5,8.4-6.5,12.6-9.8C156.4,94.8,157,94.2,157.7,95z"/>
		<path class="st3" d="M278.1,219.4c-1.5-0.6-1.8-2.1-2-3.5c-0.1-1.4,0.7-2.2,1.8-2.8c9.3-4.6,18.9-7.8,29-9.3
			c7.4-1.1,14.7-0.8,22-0.6c4.7,0.2,9.4,1.5,14.1,2.7c6.5,1.6,12.7,4.2,18.8,7.2c3.8,1.9,7.4,4.6,11,7.2c2.9,2.1,5.6,4.4,8.4,6.7
			c4.2,3.7,7.9,8.1,11.5,12.6c3.5,4.4,6.6,9.2,9.3,14.3c3.8,7.3,6.5,15.1,8.7,23.3c1.9,7,2.7,14.1,3.4,21.2
			c0.6,5.6,0.2,11.3-0.6,16.9c-0.9,6.1-1.9,12.3-3.5,18.2c-1.1,3.9-2.5,7.7-4,11.5c-3.1,7.9-7.1,15.2-12.4,21.6
			c-2.4,2.8-4.6,5.8-6.9,8.7c-0.4,0.5-1,1.1-0.7,1.7c0.4,0.7,1.1,0,1.7-0.2c6.4-3.4,12.1-8.3,17.5-13.5c7.1-6.9,13.8-14,19-23
			c3.2-5.4,6.2-11,8.7-16.8c2.4-5.5,4.1-11.4,5-17.5c1.1-6.8,2.4-13.7,1.9-20.7c-0.5-7.6-0.8-15.2-3-22.4c-1.1-3.3-1.9-6.9-3-10.2
			c-1.5-4.6-3.7-8.9-5.9-13.1c-4.1-7.6-8.7-14.8-14.3-21c-3.7-4-7.6-7.7-11.7-11.2c-6.6-5.6-13.4-10.6-20.9-14.5
			c-8.7-4.6-17.8-8-27.1-10.6c-6.5-1.8-13.1-2.8-19.6-4.1c-2.5-0.5-5-0.6-7.5-0.6c-5.3-0.1-10.5-0.1-15.7,0
			c-5.9,0.1-11.7,1-17.5,2.2c-8.2,1.7-16.3,3.7-24.1,7c-2.2,0.9-4.5,1.9-6.7,2.9c-3.5,1.6-4.8,1.4-7.1-2c-3.3-4.8-6.6-9.8-9.8-14.7
			c-1-1.5-2.4-2.5-3.3-4.1c-2.2-3.5-1.7-5.4,1-7.2c6.6-4.3,13.5-8.2,20.5-11.7c2.3-1.2,4.6-2.3,6.8-3.6c1.9-1.1,2.8-2.5,2.7-5.1
			c-0.2-4.9-0.3-9.8,0-14.6c0.4-5.6,0.1-11.3,0.2-17c0.1-2.8-0.6-3.7-3.1-3.5c-1.9,0.1-3.7,0.4-5.6,0.9c-6.7,1.7-13.4,3.4-20.1,5.4
			c-4,1.2-7.9,3.2-11.8,4.6c-3.4,1.2-6.6,3.1-10,4.3c-2.1,0.8-4.1,2.1-6.1,3.4c-2,1.3-3.9,0.9-5.3-1.2c-2.7-4-5.3-8-8.1-11.9
			c-3-4.2-6-8.5-9-12.8c-4-5.8-8-11.6-11.8-17.5c-1.4-2.1-2.6-2.5-4.6-1.1c-4.7,3.2-9.5,6.1-13.9,9.8c-0.7,0.6-1.4,1.1-2.2,1.5
			c-0.3-0.9,0.2-1.5,0.8-2c2.7-2.1,5.4-4.1,8.2-6c2.2-1.4,4.3-3,6.4-4.8c2.4-1.9,4.1-1.6,5.9,0.9c2.7,3.9,5.3,7.9,8,11.9
			c4.1,6.1,8.5,11.9,12.5,18c2.7,4.1,5.8,7.7,8.4,11.8c1.5,2.2,2.8,2.6,5.6,1.2c2.2-1.1,4.3-2.3,6.4-3.6c4.1-2.5,8.5-3.8,12.9-5.7
			c8.9-3.8,18.1-6.1,27.4-8.1c2.1-0.4,4.3-0.7,6.4-1.2c2.4-0.5,4.2,1.3,4.2,4c0,5.1,0.4,10.2-0.1,15.2c-0.6,5.9-0.1,11.7-0.3,17.6
			c-0.1,4-1.7,6.1-5.9,7.8c-0.9,0.4-2,0.4-2.2,1.8c-0.2,0.1-0.3,0.1-0.5,0.1c-0.4,0-0.7,0.2-0.8,0.8l-0.1-0.1h-0.1
			c-0.6-0.5-0.7,0-0.8,0.5c-2.2,1.2-4.5,2.4-6.7,3.5c-0.6-0.1-1.1,0.2-1.6,0.4c-3.7,1.5-6.9,4-10.3,6c-4.6,2.6-4.1,3.6-1.2,7.6
			c3.9,5.4,7.6,11.1,11.5,16.5c2.2,3,2.5,4.3,6.9,2c2.8-1.5,5.9-2.5,9-3.6c6.6-2.4,13.2-4.1,20-5.4c5.3-1.1,10.5-2.4,15.8-2.2
			c0.5,0,1.1,0.2,1.4-0.5c0.2,0,0.5,0,0.7,0c1.2,0.4,2.5,0.2,3.7,0.1c4.8-0.1,9.7,0.2,14.5-0.1c0.2,0,0.5,0,0.7,0
			c0.5,0.8,1.2,0.5,1.9,0.5c2.8-0.2,5.7,0.4,8.5,1c6.3,1.2,12.4,2.4,18.6,4.3c8.3,2.5,16.3,5.7,24.1,9.9c4.6,2.5,9,5.6,13.2,8.8
			c1.4,1.1,2.7,2.4,4.5,2.5c0.1,0.1,0.1,0.1,0.2,0.1c0.3,1.2,1.1,1.7,2.2,1.9c0.1,0.1,0.1,0.1,0.2,0.1c0.4,1.2,1.1,1.7,2.2,1.9l0,0
			c0.5,1.2,1.6,1.9,2.5,2.6c1.2,1.1,2,2.8,3.7,3.3c0.2,0.2,0.5,0.5,0.7,0.7c0.6,1.1,1.2,2.1,2.4,2.4c1,1.5,2.1,2.8,3.4,4
			c0.2,1.1,0.8,1.7,1.7,2c0.2,0.4,0.3,0.9,0.7,1.1c0.2,1.4,1.1,2,2,2.7c0.1,0.1,0.2,0.3,0.4,0.4c0.1,1.2,0.7,1.7,1.6,2.1
			c0,0.1,0,0.2,0.1,0.2c-0.1,0.4,0.1,0.7,0.3,1.1c3.3,5.3,6.5,10.7,8.7,16.7c0.2,0.4,0.4,0.8,0.8,0.9c0,0.1,0,0.2,0.1,0.3
			c0.4,1.4,0.9,2.8,1.4,4.1c0.3,0.9,0.4,1.9,1.4,2.3c0.1,0.2,0.1,0.4,0.1,0.7c-0.1,0.7,0.1,1.2,0.6,1.6c0,0.2,0.1,0.5,0.1,0.7
			c-0.1,1.2,0.4,2.2,0.7,3.2c1.6,4.8,2.6,9.8,3.1,15c0.2,2-0.2,4,0.6,5.9c0.1,1.1,0.1,2.1,0.1,3.2c-0.2,0.6-0.3,1.2,0.2,1.6
			c0,0.7,0,1.3,0,2c-0.4,0.3-0.4,0.7-0.2,1.2c-0.1,1.1-0.1,2.1-0.1,3.1c-0.6,0.4-0.4,1.1-0.4,1.6c0,3.5-0.6,6.9-1.2,10.3
			c-0.6,3.5-1.5,6.8-2.2,10.2c-1.5,6.1-4.1,11.7-6.6,17.3c-2.1,2.8-3.7,6.1-5.2,9.4c-4.1,7.1-9.4,12.8-14.6,18.6
			c-1.5,0.4-2.2,1.7-2.9,3c-5,4.6-10.2,8.9-15.6,12.8c-0.6-0.2-0.9,0.1-1.1,0.7l0,0c-1,0.2-1.9,0.6-2.5,1.5
			c-0.3,0.2-0.8,0.3-0.9,0.8c-1.7,0.7-3.3,1.5-5,2.2c-0.6,0.2-1.5,0.6-2-0.3c-0.4-0.7,0.2-1.5,0.6-2.1c0.9-1.2,1.8-2.5,2.7-3.7
			c0.2-0.2,0.4-0.5,0.7-0.7c0.4,0,0.7-0.2,0.8-0.7c1.7-1.2,3-2.8,4-4.7c0.4-0.1,0.7-0.4,0.7-0.9c0.8-0.8,1.6-1.5,2-2.7
			c0.7-0.2,1.2-0.7,1.4-1.7c0.2-0.1,0.4-0.4,0.4-0.7c0.4-0.1,0.7-0.4,0.6-0.9c0.1-0.1,0.1-0.2,0.1-0.2c0.6-0.2,1-0.6,1-1.3l0,0
			c0.5-0.1,0.7-0.6,1-1.1c3.5-6,6.7-12.1,9-18.8c0.9-2.7,2-5.4,2.7-8.2c0.1-0.4,0.1-0.9,0.1-1.4c0.6-0.2,0.7-0.7,0.5-1.4
			c0-0.2,0.1-0.5,0.1-0.7c0.6-2.1,1.5-4.1,1.7-6.3c0-0.2,0.1-0.5,0.1-0.7c0.4-0.3,0.4-0.7,0.2-1.2c0.1-0.5,0.1-1.1,0.1-1.5
			c0.6-0.6,0.4-1.3,0.2-2c0.1-0.8,0.1-1.5,0.1-2.4c0.6-1,0.3-2.1,0.3-3.2c0-0.2,0-0.5,0.1-0.8c0.7-1.5,0.4-3.2,0.3-4.8
			c0-0.2,0-0.5,0-0.8c0.7-2.7,0.1-5.3-0.4-7.9c0-0.2,0-0.5,0-0.8c0.1-1.2,0.4-2.4-0.3-3.6c-0.1-0.6-0.1-1.3-0.1-1.9
			c0.1-0.7,0.3-1.4-0.2-2c-0.1-0.6-0.1-1.3-0.1-1.9c0.1-0.4,0.1-0.6-0.2-0.8c0-0.2-0.1-0.5-0.1-0.7c-0.1-2.2-0.9-4.3-1.6-6.3
			c-0.1-0.4-0.1-0.7-0.1-1.2c-0.3-3.1-1.4-5.9-2.9-8.4c-0.1-0.8-0.3-1.5-0.7-2.2c-0.5-2.4-0.9-4.8-2.7-6.4c0-0.3,0-0.6-0.3-0.7
			c0-0.3-0.1-0.6-0.4-0.7c-0.1-0.2-0.2-0.6-0.4-0.8c-0.4-2.5-1.7-4.3-2.8-6.4c-0.4-0.8-0.7-1.8-1.7-2c-2-4-4.5-7.3-7.2-10.5
			c-0.1-0.3-0.1-0.7-0.2-0.9c-1.5-1.8-3.1-3.6-4.7-5.4c-0.4-0.4-0.7-0.6-1.2-0.4c-1-1.1-2-2.1-3-3.2c-0.2-1.1-0.8-1.6-1.7-1.6l0,0
			c-0.1-0.9-0.5-1.5-1.4-1.5c-1.4-1.7-3.2-3-5-4.3c-2.2-1.5-4.2-3.5-6.7-4.4c-0.9-1.7-2.5-2.2-3.9-2.9c-6.1-2.9-12.1-6-18.7-7.4
			c-3.7-0.7-7.2-2-10.8-2.7c-6.3-1.2-12.5-0.7-18.8-0.7c-2.9,0-5.9,0.4-8.8,1c-8.4,1.7-16.5,4.1-24.4,7.7c-3.3,1.5-3.7,2.3-2.5,6.1
			C278.2,219.1,278.1,219.2,278.1,219.4z"/>
		<path class="st3" d="M158.3,94.4c0,0.3-0.2,0.4-0.4,0.4c-0.2-0.2-0.4-0.5-0.1-0.7C158.1,93.9,158.2,94.2,158.3,94.4z"/>
		<path class="st1" d="M243.8,375.5c1.4,0.7,2.8,1.4,4.1,2.3c3.7,2.8,7.7,4.4,11.6,6.6c0.2,0.1,0.4,0.2,0.6,0.3
			c0.7,0.1,1.5,0.5,2-0.4s0.1-1.8-0.6-2.4c-2-1.8-3.8-4-5.8-5.7c-2.7-2.4-5-5.3-7.3-8c-3.3-3.9-6.1-8.2-8.7-12.8
			c-4.1-7.4-7.4-15.4-9.5-23.8c-2.6-10.7-4.1-21.7-3.6-32.9c0.2-4.7,1.2-9.3,1.8-13.9c1.2-8.8,4.1-17,7.4-24.9
			c1.6-3.8,3.7-7.4,5.8-10.9c0.2-0.4,0.5-0.9,1.1-0.9c-0.2,1.5-1.1,2.5-1.8,3.7c-3.7,6.6-6.7,13.6-8.9,21
			c-1.6,5.3-3.1,10.8-3.4,16.6c-0.1,2.5-0.9,5-1.1,7.6c-0.4,4.5-0.4,8.9,0,13.3c0.4,5,1.1,9.8,2,14.7c1,5.5,3.3,10.6,5.1,15.8
			c2.1,6.3,5.3,11.9,8.2,17.8c0.4,0.9,0.8,2.1,2,2.3c0,0.6,0.2,0.9,0.7,1.2c0.3,1.1,0.8,1.9,1.7,2.4c-0.1,0.8,0.3,1.4,0.8,1.9
			c3,3.5,5.9,7.1,9.2,10.2c1.6,1.5,3.4,2.8,5.1,4.1c2,1.7,2.8,3.6,2.1,5c-0.7,1.4-2.2,1.9-4.6,0.6c-4.1-2.2-8.4-4.3-12.2-7.2
			c-0.7-0.6-1.6-0.9-2.4-1.5C244.7,376.9,243.8,376.6,243.8,375.5z"/>
		<path class="st1" d="M177,353.7c-0.9-0.3-0.9-1.4-1.1-2.1c-1.5-5-2.5-10.2-3.7-15.4c-3.3-14.3-3.3-28.8-3-43.4
			c0.2-10,2-19.6,4.2-29.2c0.5-2.2,1.1-4.4,1.7-6.6c0.1-0.5,0.1-1.2,0.8-1.4c0.8,0.6,0.2,1.2,0,1.7c-2.5,8.7-4.1,17.6-5.3,26.6
			c-1.1,8.7-1,17.5-0.8,26.4c0.2,9,1.5,18,3.4,26.7c0.9,4.4,1.7,8.9,3.1,13.1C176.9,351.2,176.9,352.5,177,353.7z"/>
		<path class="st1" d="M198.9,261.6c-0.2,2.7-1.4,5.1-1.7,7.7c-1,7.3-2.1,14.7-1.5,22.1c0.6,6.2,1.2,12.4,2.8,18.4
			c1.1,4,2.1,7.9,3.5,11.6c2.5,6.6,5.3,13.2,9.1,19c0.4,0.6,0.9,1.2,0.8,2c-1.1-0.3-1.4-1.5-1.9-2.4c-2.6-4.5-4.8-9.1-6.8-14.1
			c-1.2-3.2-2.8-6.4-3.7-9.7c-1.2-4.3-2.7-8.5-3.3-13.1c-0.8-6.6-1.5-13.1-1.4-19.7c0.1-4.7,1.1-9.2,1.6-13.7c0.2-2.4,0.7-4.8,1.5-7
			C198.2,262.4,198.3,261.8,198.9,261.6z"/>
		<path class="st1" d="M224.3,215.4c0.1,0.7-0.4,1.1-0.7,1.4c-7.6,8.2-13.9,17.5-18.6,28.1c-1.9,4.1-3.3,8.5-5,12.8
			c-0.2,0.5-0.1,1.2-0.7,1.5c-0.4-0.5-0.2-1,0-1.4c1.2-2.8,2.1-5.8,3.3-8.6c1.5-3.7,3-7.4,4.8-10.8c2.7-5.1,5.6-10,9.2-14.3
			c2-2.3,3.5-5,5.6-7.2C222.8,216.3,223.4,215.6,224.3,215.4z"/>
		<path class="st1" d="M231.5,439c1.2,0.1,2.5,0.2,3.7,0.3c0.5,0,1.1,0.2,1.4-0.5c0.2-0.7,0-1.4-0.5-1.9c-0.4-0.5-0.9-1-1.5-1.3
			c-0.5-0.2-1.1-0.6-1.1-1.4c2,0.8,3.9,2,5,4.3c0.6,1.5,0.2,2.5-1.1,2.2C235.4,440.6,233.1,440.9,231.5,439z"/>
		<path class="st1" d="M222.6,356.5c0.3-0.1,0.6-0.1,0.8,0.2c2.3,2.9,5,5.3,7.6,7.9c0.2,0.2,0.4,0.6,0.6,0.9
			c-1.8-0.4-2.8-2.1-4.1-3.3C225.6,360.6,223.8,358.9,222.6,356.5z"/>
		<path class="st1" d="M225.4,180.2c0.7,0,1.1,0.7,1.5,1.2c2.2,2.8,4.5,5.6,6.7,8.3c-0.4,0.1-0.8,0.1-1.1-0.3
			c-2.5-2.8-5-5.5-7.1-8.7C225.4,180.7,225.4,180.4,225.4,180.2z"/>
		<path class="st1" d="M206.9,197.3c2.4-3.5,5.3-6.4,8-9.4c0.1-0.1,0.3-0.1,0.5-0.1c0.1,0.7-0.4,1.2-0.9,1.6c-2,2.3-4,4.6-5.9,6.9
			C208.2,196.8,207.7,197.4,206.9,197.3z"/>
		<path class="st1" d="M216.2,418.8c-1.1-0.1-1.5-1.2-2.2-2c-1.4-1.9-3.4-3.2-4.3-5.5c0.7-0.1,1.1,0.6,1.5,1.1
			C212.8,414.6,215,416.1,216.2,418.8z"/>
		<path class="st1" d="M191.8,386.1c-1.5-1.3-2.3-3.3-3-5.2C190.5,382,191.2,384.1,191.8,386.1z"/>
		<path class="st1" d="M180.1,362.8c-1.2-1.5-2.2-3-2-5.1C178.9,359.3,179.8,360.9,180.1,362.8z"/>
		<path class="st1" d="M212,342.7c1.2,0.8,1.9,2,2.4,3.5C213,345.5,212.1,344.4,212,342.7z"/>
		<path class="st1" d="M231.6,432.6c-1.2-0.4-2.3-0.9-2.8-2.4C229.9,430.7,231,431.2,231.6,432.6z"/>
		<path class="st1" d="M231.5,365.6c1.2,0.4,2.2,1.1,2.7,2.4C232.9,367.7,232.1,366.9,231.5,365.6z"/>
		<path class="st1" d="M214.4,346.3c0.9,0.6,1.9,1.3,2,2.7C215.4,348.4,214.5,347.7,214.4,346.3z"/>
		<path class="st1" d="M182.6,368.3c-0.9-0.8-1.6-1.8-1.7-3.2C181.7,366,182.4,366.9,182.6,368.3z"/>
		<path class="st1" d="M226.4,213.1c-0.3,1.2-0.9,2-2.1,2.3C224.7,214.2,225.3,213.4,226.4,213.1z"/>
		<path class="st1" d="M196.6,394.3c-1-0.6-1.4-1.6-1.7-2.8C196.2,391.9,196.5,393,196.6,394.3z"/>
		<path class="st1" d="M241.5,373.9c0.9,0.2,1.9,0.5,2.4,1.5C242.8,375.2,241.9,375,241.5,373.9z"/>
		<path class="st1" d="M216.4,349c0.7,0.4,1.4,0.8,1.3,1.9C216.8,350.7,216.5,350,216.4,349z"/>
		<path class="st1" d="M186.9,377.1c-0.9-0.3-1.2-1.1-1.3-2.1C186.5,375.3,187,376,186.9,377.1z"/>
		<path class="st1" d="M220.9,423.6c-0.8-0.1-1.2-0.7-1.5-1.5C220.4,422,220.9,422.6,220.9,423.6z"/>
		<path class="st1" d="M238,371.1c0.7,0.1,1.4,0.2,1.7,1.2C239,372.2,238.3,372.1,238,371.1z"/>
		<path class="st1" d="M236.7,370c0.7-0.1,1.1,0.4,1.4,1.1C237.3,371.1,236.8,370.8,236.7,370z"/>
		<path class="st1" d="M199.7,399c-0.6-0.2-1.1-0.7-1.1-1.5C199.6,397.5,199.8,398.2,199.7,399z"/>
		<path class="st1" d="M234.2,368c0.7-0.1,1.1,0.4,1.4,1.1C234.9,369.1,234.4,368.8,234.2,368z"/>
		<path class="st1" d="M203.8,404.5c-0.7-0.2-1.1-0.7-1.1-1.5C203.7,403,203.8,403.6,203.8,404.5z"/>
		<path class="st1" d="M239.7,372.3c0.7-0.1,1.1,0.4,1.3,1.1C240.4,373.4,239.9,373.2,239.7,372.3z"/>
		<path class="st1" d="M225.8,427.9c-0.7,0.1-1-0.4-1.2-1.1C225.3,426.7,225.7,427,225.8,427.9z"/>
		<path class="st1" d="M227.4,429.4c-0.7,0.1-1-0.4-1.1-1.1C227.1,428.2,227.4,428.6,227.4,429.4z"/>
		<path class="st1" d="M232.9,433.8c-0.7,0.1-1-0.4-1.1-1.1C232.5,432.5,232.9,433,232.9,433.8z"/>
		<path class="st1" d="M194.2,390.1c-0.6-0.1-1-0.5-1-1.3C193.9,388.8,194.3,389.2,194.2,390.1z"/>
		<path class="st1" d="M201.1,401c-0.6-0.1-0.7-0.5-0.7-1.1C201.1,399.8,201.1,400.4,201.1,401z"/>
		<path class="st1" d="M235.6,369.2c0.5-0.1,0.9,0.1,1,0.7C236.2,369.9,235.7,369.8,235.6,369.2z"/>
		<path class="st1" d="M199.2,260c0.2,0.4,0.1,0.6-0.2,0.8C198.5,260.4,198.8,260.2,199.2,260z"/>
		<path class="st1" d="M228.5,430.2c-0.5,0.1-0.7-0.2-0.7-0.7C228.2,429.4,228.5,429.6,228.5,430.2z"/>
		<path class="st1" d="M224.3,426.7c-0.5,0.1-0.7-0.2-0.7-0.7C224.1,425.9,224.3,426.1,224.3,426.7z"/>
		<path class="st1" d="M223,425.5c-0.5,0.1-0.7-0.2-0.7-0.7C222.7,424.7,223,424.9,223,425.5z"/>
		<path class="st1" d="M218.5,421.2c-0.5,0-0.7-0.2-0.7-0.7C218.3,420.3,218.5,420.6,218.5,421.2z"/>
		<path class="st1" d="M176.1,254.9c-0.6-0.6-0.1-0.7,0.2-0.9C176.4,254.4,176.5,254.7,176.1,254.9z"/>
		<path class="st1" d="M198.3,396.8c-0.4-0.1-0.7-0.4-0.7-0.9C198.2,395.9,198.3,396.2,198.3,396.8z"/>
		<path class="st1" d="M197.3,395.2c-0.4-0.1-0.7-0.3-0.6-0.9C197.2,394.3,197.3,394.7,197.3,395.2z"/>
		<path class="st1" d="M183.5,370.7c-0.4-0.1-0.7-0.4-0.5-0.9C183.5,369.9,183.7,370.2,183.5,370.7z"/>
		<path class="st1" d="M194.9,391.3c-0.4-0.1-0.7-0.3-0.6-0.9C194.7,390.4,194.9,390.7,194.9,391.3z"/>
		<path class="st1" d="M193.1,388.5c-0.4-0.1-0.7-0.4-0.6-0.9C193,387.6,193.3,387.9,193.1,388.5z"/>
		<path class="st1" d="M192.5,387.3c-0.4-0.1-0.7-0.4-0.6-0.9C192.4,386.4,192.6,386.7,192.5,387.3z"/>
		<path class="st1" d="M176.8,252.5c-0.6-0.6-0.1-0.7,0.2-0.9C177.1,252,177.1,252.4,176.8,252.5z"/>
		<path class="st1" d="M188.7,380.6c-0.4-0.1-0.7-0.3-0.6-0.9C188.6,379.7,188.8,380,188.7,380.6z"/>
		<path class="st1" d="M278.1,219.4c0-0.1,0.1-0.2,0.1-0.4c-1.1-3.8-0.7-4.6,2.5-6.1c7.9-3.7,16.1-6.1,24.4-7.7
			c2.9-0.6,5.9-0.9,8.8-1c6.3,0,12.5-0.4,18.8,0.7c3.7,0.7,7.2,1.9,10.8,2.7c6.6,1.4,12.6,4.5,18.7,7.4c1.4,0.7,3,1.2,3.9,2.9
			c-1.1,0-2.1-0.6-3-1.2c-6.1-3.4-12.4-6.3-19.1-7.9c-5.8-1.4-11.6-3.5-17.6-3.5c-8.7,0.2-17.5-0.6-26.2,2.2
			c-4.6,1.5-9.3,2.4-13.7,4.4c-1.8,0.8-3.6,1.5-5.4,2.4c-2.6,1.1-3,2.2-1.2,4.8c2.7,4,5.2,8.2,8.2,12.1c5.1,6.7,9.7,13.7,14.5,20.8
			c3.6,5.3,7.5,10.3,11,15.7c3.5,5.4,7.6,10.3,10.9,15.7c4.6,7.5,9.8,14.3,14.9,21.4c3.7,5.2,7.2,10.6,10.5,16.2
			c1.5,2.5,3.6,4.7,4.6,7.7c0.2,0.5,0.7,1.1,0.1,1.6c-0.5,0.5-1,0.1-1.4-0.1c-2.6-1.4-4.4-3.8-6.4-6.1c-0.6-0.7-1-1.4-1.5-2
			c-4.6-5.4-9.3-10.8-13.8-16.4c-1.9-2.3-3.8-4.6-5.6-6.9c-0.3-0.4-0.7-0.7-0.6-1.3c0.8-0.1,1.2,0.8,1.6,1.3
			c7.5,8.6,14.4,18,22.3,26.1c0.4,0.5,0.9,1.5,1.7,0.7c0.6-0.7,0.1-1.5-0.4-2.1c-1.2-1.4-2-3-3-4.5c-5.2-8.1-10.8-15.9-16.2-23.9
			c-5.9-8.8-12-17.3-18-26c-2.7-3.9-5.4-7.7-8.2-11.6c-3.1-4.3-6-8.9-9-13.3c-5.3-7.7-10.6-15.4-16-23c-0.4-0.6-0.6-1.3-1.4-1.1
			C278.3,219.7,278.2,219.5,278.1,219.4z"/>
		<path class="st3" d="M278.4,219.8c0.8-0.2,1.1,0.6,1.4,1.1c5.3,7.7,10.7,15.4,16,23c3,4.4,5.9,9,9,13.3c2.7,3.8,5.5,7.7,8.2,11.6
			c5.9,8.7,12.1,17.2,18,26c5.3,8,11,15.7,16.2,23.9c1,1.5,1.9,3.2,3,4.5c0.4,0.6,0.9,1.5,0.4,2.1c-0.7,0.9-1.2-0.2-1.7-0.7
			c-7.9-8.2-14.8-17.5-22.3-26.1c-0.4-0.6-0.8-1.4-1.6-1.3c-0.2-1-0.7-1.5-1.5-1.9c0.1-0.4-0.1-0.6-0.4-0.8
			c-4.9-5.8-9.8-11.6-14.7-17.3c-0.2-0.3-0.5-0.8-1-0.7c-0.9-1.7-2.1-3-3.5-4.1c0.2-0.7-0.3-1.1-0.6-1.5c-4.2-4.9-8.4-9.7-12.6-14.6
			c-0.2-0.2-0.4-0.5-0.7-0.4c-0.7-1.4-1.7-2.4-2.8-3.3c0.1-0.6,0.1-1.1,0.2-1.7c3.5,2.5,6.3,6.1,9.1,9.4c2.2,2.7,4.2,5.5,6.4,8.1
			c6.1,7.2,12.4,14.2,18.4,21.4c2.2,2.6,4.1,5.5,6.3,7.9c2.8,3,5.3,6.5,8.4,9.2c0.2,0.2,0.5,0.5,0.7,0.3c0.4-0.4,0.1-0.8-0.1-1.2
			c-1.7-3-3.5-5.9-5.3-8.9c-4.9-7.9-10.6-15-15.7-22.8c-4.8-7.5-10.2-14.5-15.4-21.8c-3.4-4.8-6.7-9.8-10-14.7
			c-3.8-5.6-7.6-11.1-11.5-16.7C278.7,220.8,278.2,220.5,278.4,219.8z"/>
		<path class="st1" d="M308.9,176.2c-0.3,0.7-0.9,0.5-1.4,0.5c-5.4-0.2-10.6,1.2-15.8,2.2c-6.7,1.3-13.4,3-20,5.4
			c-3,1.1-6.1,2.1-9,3.6c-4.3,2.3-4.7,0.9-6.9-2c-4-5.4-7.6-11-11.5-16.5c-2.9-4.1-3.4-5,1.2-7.6c3.5-2,6.7-4.5,10.3-6
			c0.6-0.2,1.1-0.5,1.6-0.4c0.1,1-0.7,1.1-1.2,1.4c-4.1,2-7.7,4.9-11.8,7.1c-1.2,0.6-1.4,1.7-0.7,2.9c2.1,3.3,4.1,6.6,6.4,9.7
			c2.2,3,4.5,6.1,6.6,9.2c1.5,2.4,2.7,2.7,5.2,1.6c5.4-2.4,10.9-4.8,16.7-6.3c6.6-1.7,13.2-3.3,20-4.5
			C302.1,175.9,305.5,175.5,308.9,176.2z"/>
		<path class="st1" d="M399.3,203.2c-1.8-0.1-3.2-1.5-4.5-2.5c-4.3-3.2-8.7-6.3-13.2-8.8c-7.7-4.2-15.8-7.4-24.1-9.9
			c-6.1-1.9-12.4-3.1-18.6-4.3c-2.8-0.5-5.6-1.1-8.5-1c-0.6,0.1-1.4,0.4-1.9-0.5c2-0.6,4.1-0.5,6.1-0.2c5.2,0.7,10.5,1.4,15.6,2.7
			c8.9,2.2,17.7,4.8,26.1,9.1c5.4,2.7,10.7,5.8,15.6,9.6c2,1.5,4.1,2.8,6.1,4.2C398.6,202,399.4,202.2,399.3,203.2z"/>
		<path class="st1" d="M384.3,375c-0.9,1.2-1.9,2.5-2.7,3.7c-0.4,0.6-1,1.4-0.6,2.1c0.4,0.9,1.4,0.6,2,0.3c1.7-0.7,3.3-1.5,5-2.2
			c-0.1,0.2,0,0.6-0.2,0.7c-2.2,1.5-4.5,3.1-7.1,3.6c-1.4,0.3-2.2-0.7-2-2.1C379,379.6,382.9,375.3,384.3,375z"/>
		<path class="st1" d="M307.5,276.5c0.5-0.1,0.7,0.4,1,0.7c4.9,5.8,9.8,11.5,14.7,17.3c0.2,0.2,0.4,0.4,0.4,0.8
			c-0.6,0-1.1-0.4-1.4-0.9c-4.6-5.4-9.2-10.9-13.9-16.3C307.8,277.5,307.5,277.1,307.5,276.5z"/>
		<path class="st1" d="M408.5,332.3c-0.6,2.8-1.7,5.5-2.7,8.2c-2.3,6.7-5.6,12.8-9,18.8c-0.2,0.4-0.5,0.9-1,1.1
			c-0.1-1.4,0.7-2.4,1.4-3.3c4.3-7,7.6-14.6,10-22.7C407.5,333.6,407.6,332.6,408.5,332.3z"/>
		<path class="st1" d="M265.4,227c0.6-0.1,0.9,0.4,1.2,0.9c4.5,5.2,8.9,10.5,13.3,15.7c0.2,0.3,0.6,0.6,0.5,1.2
			c-0.6,0-0.9-0.5-1.3-0.9c-4.4-5.2-8.9-10.5-13.2-15.7C265.7,227.8,265.4,227.5,265.4,227z"/>
		<path class="st1" d="M441.1,281.4c-0.9-1.9-0.4-4-0.6-5.9c-0.5-5.2-1.5-10.2-3.1-15c-0.3-1-0.9-2-0.7-3.2c0.5,0,0.6,0.4,0.7,0.9
			c2.4,6.9,4,13.9,4,21.4C441.5,280.2,441.7,280.9,441.1,281.4z"/>
		<path class="st1" d="M290.1,255.9c0.3-0.1,0.5,0.2,0.7,0.4c4.2,4.9,8.4,9.7,12.6,14.6c0.3,0.4,0.9,0.7,0.6,1.5
			c-0.5-0.1-0.8-0.5-1.1-0.9c-4-4.6-8-9.2-11.9-13.8C290.5,257.2,290,256.7,290.1,255.9z"/>
		<path class="st1" d="M437.3,314.6c0.7-3.4,1.7-6.7,2.2-10.2c0.6-3.4,1.2-6.8,1.2-10.3c0-0.6-0.2-1.2,0.4-1.6
			c0.8,1.2,0.4,2.7,0.3,4c-0.4,5.8-1.7,11.3-3,16.8C438.2,313.8,438.1,314.5,437.3,314.6z"/>
		<path class="st1" d="M327.8,176.2c-4.8,0.4-9.7,0.1-14.5,0.1c-1.2,0-2.5,0.2-3.7-0.1c0.2-0.8,0.7-0.6,1.2-0.6c5.2,0,10.5,0,15.7,0
			C327,175.6,327.6,175.4,327.8,176.2z"/>
		<path class="st1" d="M433.2,247.5c-0.4-0.1-0.7-0.5-0.8-0.9c-2.2-6-5.4-11.5-8.7-16.7c-0.2-0.3-0.4-0.6-0.3-1.1
			c1.6,0.8,2.2,2.7,3.2,4.1c2.5,4.2,4.8,8.5,6.4,13.2C433.1,246.7,433.3,247,433.2,247.5z"/>
		<path class="st1" d="M248.1,240.8c-0.2-0.6,0.1-0.9,0.4-1.2c3-3.7,6.2-6.9,9.3-10.3c0.2-0.2,0.5-0.4,0.7-0.2
			c-0.4,1.4-1.5,2.3-2.4,3.2c-2.5,2.4-4.7,5.2-7.1,7.9C248.8,240.4,248.5,240.7,248.1,240.8z"/>
		<path class="st1" d="M425.6,341.4c1.4-3.3,3.1-6.6,5.2-9.4c0.2,0.1,0.4,0.4,0.2,0.6c-1.5,2.8-3.2,5.7-4.7,8.5
			C426.2,341.4,425.9,341.4,425.6,341.4z"/>
		<path class="st1" d="M397.3,250.1c1,0.2,1.3,1.2,1.7,2c1,2,2.4,4,2.8,6.4c-0.4,0.1-0.8-0.1-1-0.5c-0.9-2.6-2.3-4.9-3.5-7.3
			C397.3,250.5,397.3,250.2,397.3,250.1z"/>
		<path class="st1" d="M287.5,250.9c-0.1,0.6-0.1,1.1-0.2,1.7c-2.1-1.8-4-3.7-5.4-6.3c1.4,0.4,2,2,3,2.9c0.7,0.7,1.3,1.7,2.4,1.4
			C287.3,250.7,287.4,250.8,287.5,250.9z"/>
		<path class="st1" d="M383.9,232.8c0.5-0.1,0.9,0.1,1.2,0.4c1.5,1.8,3.2,3.6,4.7,5.4c0.2,0.2,0.2,0.6,0.2,0.9
			c-1.2-0.1-1.7-1.3-2.4-2.1C386.4,235.9,385,234.6,383.9,232.8z"/>
		<path class="st1" d="M410.3,213c-1.6-0.5-2.4-2.2-3.7-3.3c-0.9-0.7-2-1.3-2.5-2.6C406.9,208.2,408.7,210.4,410.3,213z"/>
		<path class="st1" d="M406.3,269.4c1.5,2.5,2.6,5.3,2.9,8.4C408,275.1,406.3,272.7,406.3,269.4z"/>
		<path class="st1" d="M412,297.2c0.4,2.6,1,5.2,0.4,7.9C411.9,302.5,411.2,299.9,412,297.2z"/>
		<path class="st1" d="M402.8,260.7c1.9,1.6,2.2,4.1,2.7,6.4C403.8,265.4,403.5,263,402.8,260.7z"/>
		<path class="st1" d="M409.3,279c0.7,2,1.5,4.1,1.6,6.3C409.6,283.5,409,281.4,409.3,279z"/>
		<path class="st1" d="M410.9,322.4c-0.2,2.2-1.1,4.3-1.7,6.3C408.9,326.3,409.5,324.3,410.9,322.4z"/>
		<path class="st1" d="M435.9,254.3c-0.9-0.4-1.1-1.4-1.4-2.3c-0.5-1.4-0.9-2.7-1.4-4.1c0.5,0,0.7,0.4,0.9,0.8
			C434.7,250.5,435.3,252.4,435.9,254.3z"/>
		<path class="st1" d="M260.4,227.7c0.9-2.3,2.2-3.1,3.7-2.2C262.5,225.4,261.7,227.2,260.4,227.7z"/>
		<path class="st1" d="M412.3,305.9c0,1.6,0.4,3.2-0.3,4.8C411.6,309,411.1,307.3,412.3,305.9z"/>
		<path class="st1" d="M408,363c0.7-1.3,1.4-2.7,2.9-3C410.3,361.4,409.7,362.8,408,363z"/>
		<path class="st1" d="M411.7,292.8c0.6,1.1,0.4,2.4,0.3,3.6C410.7,295.3,411.3,294.1,411.7,292.8z"/>
		<path class="st1" d="M413.4,216.3c-1.2-0.3-1.8-1.3-2.4-2.4C412.3,214,413.1,214.8,413.4,216.3z"/>
		<path class="st1" d="M421.2,226c-0.9-0.7-1.9-1.4-2-2.7C420.4,223.8,421.2,224.6,421.2,226z"/>
		<path class="st1" d="M411.9,311.4c0.1,1.1,0.4,2.2-0.3,3.2C411.1,313.4,410.9,312.3,411.9,311.4z"/>
		<path class="st1" d="M401.7,205.2c-1.1-0.2-1.9-0.7-2.2-1.9C400.6,203.5,401.5,203.8,401.7,205.2z"/>
		<path class="st1" d="M404.1,207.2c-1.1-0.1-1.8-0.7-2.2-1.9C403.1,205.3,403.7,206.1,404.1,207.2z"/>
		<path class="st1" d="M418.4,222.3c-0.9-0.3-1.5-0.9-1.7-2C417.8,220.4,418.4,221,418.4,222.3z"/>
		<path class="st1" d="M389,378.1c0.6-0.9,1.5-1.4,2.5-1.5C391,377.9,390,378.1,389,378.1z"/>
		<path class="st1" d="M423.3,228.6c-0.9-0.4-1.5-0.9-1.6-2.1C422.6,226.8,423.2,227.3,423.3,228.6z"/>
		<path class="st1" d="M379.2,228c1,0,1.5,0.5,1.7,1.6C379.9,229.6,379.5,228.9,379.2,228z"/>
		<path class="st1" d="M377.8,226.5c0.9,0,1.3,0.6,1.4,1.5C378.3,228.1,377.8,227.5,377.8,226.5z"/>
		<path class="st1" d="M246.1,243.6c-0.1-1.1,0.4-1.5,1.2-1.6C247.2,242.8,246.8,243.3,246.1,243.6z"/>
		<path class="st1" d="M411.6,316.9c0.1,0.7,0.3,1.4-0.2,2C410.8,318.1,410.6,317.4,411.6,316.9z"/>
		<path class="st1" d="M411.3,288.9c0.6,0.6,0.4,1.3,0.2,2C410.6,290.4,410.8,289.6,411.3,288.9z"/>
		<path class="st1" d="M393.9,363.5c-0.1,0.9-0.6,1.4-1.4,1.7C392.5,364.1,393,363.6,393.9,363.5z"/>
		<path class="st1" d="M436.6,256.6c-0.4-0.4-0.7-0.9-0.6-1.6C436.7,255.3,437.3,255.6,436.6,256.6z"/>
		<path class="st1" d="M441.4,286.1c-0.5-0.4-0.4-1.1-0.2-1.6C442,284.9,441.9,285.5,441.4,286.1z"/>
		<path class="st1" d="M258.9,228.9c0.1-0.7,0.3-1.2,1.1-1C259.9,228.6,259.6,228.9,258.9,228.9z"/>
		<path class="st1" d="M395.9,360.4c0,0.7-0.4,1.2-1,1.3C394.9,360.8,395.2,360.4,395.9,360.4z"/>
		<path class="st1" d="M441.2,289.3c-0.2-0.4-0.2-0.9,0.2-1.2C442,288.6,441.9,289.1,441.2,289.3z"/>
		<path class="st1" d="M411.2,320.4c0.1,0.4,0.2,0.9-0.2,1.2C410.5,321.1,410.5,320.7,411.2,320.4z"/>
		<path class="st1" d="M409.2,329.5c0.2,0.6,0.1,1.1-0.5,1.4C408.5,330.3,408.4,329.7,409.2,329.5z"/>
		<path class="st1" d="M244,246.3c-0.1-0.6,0.1-1,0.6-1.1C244.6,245.7,244.6,246.2,244,246.3z"/>
		<path class="st1" d="M391.5,376.5c0.1-0.6,0.5-0.9,1.1-0.7C392.4,376.6,392,376.6,391.5,376.5z"/>
		<path class="st1" d="M411,286.1c0.3,0.2,0.4,0.5,0.2,0.8C410.7,286.8,410.5,286.6,411,286.1z"/>
		<path class="st1" d="M402.2,259.2c0.3,0.1,0.3,0.4,0.4,0.7c-0.2-0.1-0.5,0-0.6-0.2C401.7,259.6,402,259.3,402.2,259.2z"/>
		<path class="st1" d="M394.9,362c0.1,0.6-0.2,0.8-0.6,0.9C394.2,362.3,394.4,361.9,394.9,362z"/>
		<path class="st1" d="M264.3,151.8c0.1-0.5,0.2-1,0.8-0.5C265,151.8,264.7,151.9,264.3,151.8z"/>
		<path class="st1" d="M390.5,367.9c0,0.5-0.2,0.8-0.7,0.9C389.7,368.2,390,367.9,390.5,367.9z"/>
		<path class="st1" d="M385.8,373.5c-0.1,0.5-0.3,0.8-0.8,0.7C385,373.6,385.2,373.4,385.8,373.5z"/>
		<path class="st1" d="M265.3,151.4c0.1-0.6,0.4-0.8,0.8-0.8C266.1,151.3,265.9,151.5,265.3,151.4z"/>
		<path class="st1" d="M243.3,247.5c-0.1-0.6,0.1-0.8,0.6-0.8C243.9,247.1,243.8,247.4,243.3,247.5z"/>
		<path class="st4" d="M312.8,330.6c0.5,7.5-2.7,13.1-7.7,16.9c-3.5,2.6-7.6,4.2-11.9,4.8c-5.9,0.9-11.5-0.7-16.7-3.7
			c-3.6-2.1-6.5-5.3-8.2-9.7c-0.9-2.3-2-4.3-2-7.1c0-9,4.1-14.9,10.6-18.8c7.1-4.3,14.6-4.5,22-1.9c5.9,2,10.7,6.4,13.3,13.2
			C313,326.4,312.7,328.5,312.8,330.6z M311.7,330.6c0.6-6.3-2.2-10.6-6.3-14.2c-1.6-1.4-3.5-2.1-5.2-3.2c-3.4-2.1-7.2-2.6-10.9-2.4
			c-4.3,0.2-8.7,1.1-12.5,3.9c-3.5,2.5-6.9,4.9-8,9.8c-0.1,0.4-0.2,0.7-0.5,1.1c-1,1.2-1.1,2.7-1.2,4.2c-0.2,3,0.9,5.5,1.9,8.2
			c1.4,4.2,4.2,7,7.2,9c3.9,2.7,8.4,3.6,13.1,3.9c3.4,0.2,6.7-0.8,9.9-1.7c2-0.6,4.2-1.3,5.7-2.7
			C309.2,342.4,312.3,337.5,311.7,330.6z"/>
		<path class="st5" d="M222.9,430.3c-0.4,0.5-0.8,0.2-1.2,0c-4.8-2.7-9.6-5.2-14.4-7.9c-5.7-3.2-10.6-7.6-15.8-11.8
			c-4.3-3.6-8.7-7.2-12.8-11.1c-5-4.8-9.7-9.8-14-15.5c-3-4-5.9-8-8.8-12c-1.5-2-2.5-4.5-4-6.6c-2.8-4-4.5-8.7-7.2-12.8
			c-1.5-2.2-2.4-4.9-3.5-7.3c-2.5-5.5-4.5-11.3-5.9-17.3c-0.7-2.9-1.7-5.7-2.5-8.5c-1.2-4.2-1.7-8.5-2.5-12.8
			c-1.1-6.1-1.9-12.3-2.2-18.6c-0.2-3.3-0.9-6.7-1-10.1c-0.1-4.3,0.8-8.4,1.2-12.7c0.2-3.2,0.7-6.4,0.9-9.5c0.2-4,1.4-7.7,1.9-11.6
			c0.7-5.7,2.8-10.9,3.9-16.4c1.1-5.4,3.5-10.3,5.1-15.5c0.7-2.2,1.9-4.3,3-6.3c1.6-3.1,3.1-6.3,4.8-9.3c3.2-5.6,6.7-10.9,9.9-16.5
			c2.9-5,6.7-8.9,10.5-13.1c2.1-2.4,4.2-4.8,6.3-7.2c3.2-3.7,6.3-7.6,10.2-10.4c2.6-1.9,5.1-3.8,7.7-5.8c2-1.6,2.2-5.3,0.5-7.2
			c-3-3.3-6.1-6.5-9.1-9.8c-4.8-5.3-8.5-11.8-13.4-17c-2-2.2-4-4.3-6.1-6.3c-1.5-1.5-3.2-1.3-4.8-0.6c-2.8,1.2-5.7,0.9-8.5,1.5
			c-0.4,0.1-0.8-0.1-0.9-0.6c-0.1-0.6,0.3-0.7,0.7-1c2.8-2,5.6-4.1,8.7-5.5c0.2-0.1,0.5-0.4,0.7-0.6c4-3.3,8.1-6.3,12.3-9.2
			c2.2-1.6,4.1-3.7,6.4-5.1c1-0.6,1.6-0.6,2.4,0.6c2.8,4.1,5,8.9,8.3,12.6c1.5,1.7,2.8,3.5,4.3,5.3c1.1,1.5,1.8,3.3,2.9,4.8
			c2.3,3.1,4.6,6.1,6.7,9.4c2.4,3.8,4.8,7.4,7.5,10.8c1.7,2.2,4.9,2.4,7.1,0.7c2.4-1.9,5-3.3,7.9-4c3-0.6,5.5-2.6,8.4-3.5
			c3.3-1.1,6.6-2.3,9.8-3.8c4.6-2.2,9.6-3.2,14.4-4.3c3.6-0.8,7-2.2,10.5-3c2-0.4,2.7,0.4,2.5,2.7c-0.2,1.7-0.1,3.4-0.1,5.1
			c0,7.9,0,15.7,0,23.6c0,1,0,1.9,0.2,2.9c0.3,1.5-0.6,2.4-1.5,3c-0.9,0.6-1.9,1.2-3,1.4c-1.4,0.3-2.6,0.9-3.8,2.1
			c-1,1.1-2.4,1.5-3.8,1.4c-0.3-0.1-0.7,0.1-1,0.2c-5.1,3-10.6,5.3-15.4,9.2c-0.4,0.3-0.9,0.7-1.3,0.9c-3.3,2-3.8,5.9-1,9
			c3.2,3.4,5.3,7.6,7.7,11.6c2.2,3.7,4.9,7.1,7.3,10.6c1.4,2,3.3,1.9,5,1.1c4.1-2.2,8.4-3.7,12.6-5.3c4.2-1.6,8.5-3.3,13-3.8
			c2.4-0.2,4.4-1.7,6.7-2c2.9-0.3,5.9-0.7,8.8-1.2c7.2-1.1,14.4-1.3,21.6-1.2c3.7,0.1,7.3,1.2,11,1.5c1.4,0.1,3,0.3,4.4,0.4
			c2.6,0.1,5,1.2,7.5,1.7c5.3,1.2,10.5,2.3,15.5,4.4c4.6,1.9,9.2,3.6,13.7,5.8c3.7,1.8,7.4,3.8,11.1,5.6c2.1,1.1,4.1,2.5,5.9,4.2
			c1.7,1.6,3.7,2.8,5.4,4.3c5.3,4.6,10.5,9.1,15.2,14.5c3.5,4.1,6.6,8.9,9.5,13.6c2,3.3,4,6.6,5.8,10.1c1.5,3,2.8,6.3,3.9,9.6
			s1.6,6.8,2.6,10c1,3.2,1.4,6.4,1.5,9.6c0.2,3.7,1.1,7.4,1.2,11.1c0.1,2.4,0,4.8-0.4,7.2c-0.7,4.1-0.9,8.3-1.4,12.4
			c-0.2,2.5-1.6,4.6-1.5,7.2c0.1,3.6-1.5,6.6-2.8,9.5c-1.1,2.7-1.9,5.8-3.9,8.1c-1.5,1.7-2,4.2-3.3,6.1c-2.5,3.7-4.5,7.7-7.2,11.2
			c-2,2.5-4.2,5-6.3,7.4c-4.6,5.1-9.7,9.7-14.7,14.2c-1.2,1.1-2.8,1.7-3.8,3.2c-0.3,0.5-0.9,0.8-1.3,0.2c-0.6-0.6,0-1.1,0.3-1.4
			c3.1-3.4,6.1-6.9,8.5-11c2.5-4.3,5.2-8.5,6.9-13.4c1.1-3.2,2.8-6.2,3.5-9.5c1.2-5.3,2-10.9,3.3-16.2c2-8.5,1.2-16.9,1.5-25.4
			c0.1-3.3-1.4-6.2-1.8-9.3c-0.1-0.9-0.2-1.7-0.2-2.5c-0.1-2-0.2-3.9-1.2-5.6c-0.8-1.5-0.7-3.3-1-5c-0.7-4-2.4-7.6-3.8-11.2
			c-2.9-7.9-7.5-14.4-12.2-20.9c-2.4-3.2-4.6-6.6-7.2-9.4c-3.8-4.2-8.2-7.6-12.6-11c-3.3-2.7-7-4.8-10.2-7.6
			c-1.5-1.2-3.2-1.8-4.8-2.5c-3-1.4-5.8-3.3-9-4.2c-3.8-1.1-7.7-2.2-11.5-3.5c-2.4-0.8-5-0.5-7.4-1.1c-6.8-1.5-13.7-0.9-20.4-0.6
			c-4.4,0.2-9,0.4-13.2,1.9c-4.9,1.8-10,2.3-14.7,4.9c-2.7,1.5-5.5,2.7-8.3,4.1c-1.9,1-2.5,4.3-1.1,6.4c1.3,1.9,2.7,3.7,4.1,5.5
			c4.5,5.9,8.2,12.4,12.4,18.4c2.4,3.4,5,6.7,7.2,10.2c2.5,3.8,5.2,7.5,7.9,11.1c1.9,2.5,3.5,5.3,5.3,7.9
			c4.1,5.9,7.9,11.9,12.3,17.5c1.7,2.2,3.3,4.6,5.2,6.7c0.2,0.2,0.3,0.6,0.4,0.8c0.2,0.4,0.4,0.8,0,1.1c-0.4,0.3-0.6-0.1-0.9-0.4
			c-1.7-2-3.3-4.1-5-6.2c-2.4-3-4.7-6.2-7.4-8.9c-1.4-1.4-2.6-3.1-4-4.5c-3.9-4.1-7.5-8.5-11-13.2c-3.3-4.5-7-8.7-10.9-12.5
			c-4.1-4-7.5-8.9-11-13.6c-2-2.6-4.1-5-6.3-7.4c-2.2-2.5-4.7-4.5-6.6-7.3c-1.2-1.9-4.3-2.2-6.3-0.4c-3.6,3.4-7.6,6.2-10.7,10.3
			c-2.8,3.7-5.4,7.4-7.7,11.5c-0.9,1.6-2,3-3,4.5c-4.3,6.2-7.3,13.2-9.7,20.6c-1.7,5.1-2.7,10.6-3.9,16c-0.4,1.7-0.4,3.7-0.4,5.4
			c-0.1,8-0.1,16,0,24.1c0,3,0.4,5.8,1.2,8.7c0.9,3.5,1.4,7.1,2.5,10.6c1,3,1.5,6.1,3,8.9c1.2,2.4,2.2,4.8,3.3,7.2
			c1.8,3.9,4,7.4,6.3,10.9c2.4,3.6,4.9,6.9,7.7,10c0.1,0.1,0.2,0.2,0.4,0.4c0.5,0.7,1.4,1.5,0.9,2.3c-0.6,0.7-1.4-0.1-2.1-0.6
			c-6.4-3.7-11.8-9-17.2-14.2c-6-5.8-11.5-12.1-16-19.5c-2.8-4.7-5.8-9.5-8-14.6c-1.3-3-3.2-5.8-3.5-9.5c-0.2-2-1.4-4-1.8-6.3
			c-1.8-9.8-2.5-19.7-2.1-29.6c0.2-4.6,0.7-9.1,1.8-13.6c0.4-1.4,0.2-3.1,0.6-4.4c1.2-3.5,1.5-7.4,3.6-10.4c0.1-0.2,0.3-0.4,0.4-0.7
			c1.6-5.8,5-10.3,7.6-15.4c2.7-5,5.9-9.2,9-13.7c1.6-2.4,4-3.9,5.9-5.9c4-4.3,8.7-7.7,12.9-11.8c0.3-0.3,0.6-0.6,1-0.7
			c1.4-0.4,2.5-1,2.7-2.8c0.1-2.2,0.1-4.2-1.9-5.9c-2.4-2.2-4.1-5-6.3-7.5c-3.2-3.7-6.4-7.4-9.7-11c-1.4-1.4-4.3-0.7-6.1,1.2
			c-2.6,2.5-5.3,4.9-7.8,7.6c-1.9,2-3.8,4.2-5.4,6.6c-2.4,3.5-5,6.6-7.6,9.8c-4.6,5.7-9,11.7-12.3,18.4c-2.4,4.7-4.8,9.3-6.7,14.4
			c-1,2.5-1.9,5.1-3.3,7.4c-0.2,0.2-0.4,0.6-0.4,0.9c-0.3,2.5-1.6,4.5-2.4,6.6c-1.3,3.7-2.5,7.4-3.2,11.3c-0.1,0.9-0.6,1.5-0.7,2.4
			c-1.9,6.1-2.9,12.3-3.4,18.8c-0.3,3.6-0.6,7.2-1.1,10.7c-0.6,4.2-0.2,8.4-0.3,12.6c-0.2,5.9,0.9,11.6,1.2,17.4
			c0.3,5.3,1.5,10.5,2.2,15.7c0.1,1.1,0.7,2,1,3.1c1.4,4.8,2.4,9.7,4.1,14.2c1,2.7,1.9,5.4,3.2,8c1.1,2.2,2.1,4.5,3.1,6.7
			c1.1,2.4,2,5,3,7.4c2.4,5.8,5.6,11,9,16.1c3.1,4.6,6.4,9,9.6,13.5c2.8,4.1,6.1,7.7,9.5,11.3c3.3,3.6,7.1,6.6,10.3,10.2
			C222.3,429.3,222.8,429.6,222.9,430.3z"/>
		<path class="st5" d="M311.7,330.6c0.6,6.9-2.5,11.8-6.7,15.8c-1.5,1.4-3.7,2.2-5.7,2.7c-3.2,0.9-6.5,1.9-9.9,1.7
			c-4.6-0.2-9.1-1.2-13.1-3.9c-3-2-5.8-4.8-7.2-9c-0.9-2.7-2-5.2-1.9-8.2c0.1-1.5,0.1-3,1.2-4.2c0.2-0.2,0.4-0.7,0.5-1.1
			c1.1-5,4.5-7.4,8-9.8c3.9-2.8,8.2-3.7,12.5-3.9c3.7-0.2,7.5,0.3,10.9,2.4c1.7,1.1,3.6,1.7,5.2,3.2
			C309.5,320,312.2,324.3,311.7,330.6z"/>
	</g>
</g>
</svg>
