<?xml version="1.0" encoding="utf-8"?>
<!-- Generator: Adobe Illustrator 19.2.0, SVG Export Plug-In . SVG Version: 6.00 Build 0)  -->
<svg version="1.1" id="Layer_1" xmlns="http://www.w3.org/2000/svg" xmlns:xlink="http://www.w3.org/1999/xlink" x="0px" y="0px"
	 width="572.5px" height="782.1px" viewBox="0 0 572.5 782.1" style="enable-background:new 0 0 572.5 782.1;" xml:space="preserve"
	>
<style type="text/css">
	.st0{fill:#CDCDCD;}
	.st1{fill:#E3E3E3;}
	.st2{fill:#727272;}
	.st3{fill:#1C1C1C;}
	.st4{fill:#010101;}
</style>
<g>
	<path class="st0" d="M113.8,125.3c-0.5,0-1.1,0-1.6,0c-3.7-0.3-7.3,0.4-10.8,1.6c-4.5,1.4-9.1,2.3-13.8,2.7
		c-2.8,0.3-4.7-2.8-3.5-5.4c0.6-1.3,1.4-2.6,2.6-3.6c5.7-4.6,11.9-8.3,17.5-13.2c3.7-3.3,8.1-5.4,11.4-9.5c1.7-2.1,1.8-3.6-0.1-5.5
		C109.2,86,103.7,78.8,97.8,72c-3.2-3.7-6.6-7.1-9.2-11.3c-3.3-5.4-8-6.6-13.1-5.6c-9.4,1.8-18.7,3.9-28,6c-0.9,0.2-1.9,0.8-2.5-0.3
		c-0.6-1.2,0.5-1.8,1.1-2.6c0.4-0.5,0.8-0.9,1.3-1.2c9-6.7,18.2-13.1,26.9-20.3c3.2-2.7,6.5-5.2,9.9-7.4c5.8-3.7,11.4-7.7,16.9-11.7
		c5.4-3.9,10.8-8,16.3-11.8c2.8-1.9,4.3-1.3,6.3,1.8c3.1,4.6,6.2,9.2,9.3,13.7c4.6,6.6,9.4,13,13.9,19.6c4.6,6.7,9,13.7,13.6,20.4
		c8.8,12.8,17.8,25.5,26.6,38.4c3.4,4.9,6.2,5.8,11.2,3.2c1.7-0.9,3.4-1.7,5-2.6c13.9-7.3,28.2-13.8,42.6-19.7
		c10.5-4.3,21.2-8.2,32.1-10.7c4.2-1,8.2-3.1,12.5-3.4c8.4-0.6,16.5-3.9,24.9-4.8c3.9-0.4,4.6-0.2,4.6,4.4c0,22.6,0,45.3,0,67.9
		c0,2,0,4,0.4,6c0.5,2.2-0.1,4.6-2,5.4c-3.5,1.4-6.7,4.2-10.6,4c-1.3-0.1-2.1,0.6-2.7,1.8c-1.3,2.8-2.4,5.6-2.3,9
		c0.1,7.1-0.1,14.2,0.1,21.4c0.1,4.9-2,7.8-5.4,9.8c-1.6,0.9-3.4,1.4-5.2,2c-1.1,0.4-2.2,0.6-2.7,1.9l0,0c-0.5-0.1-1-0.2-1.5-0.4
		c0.4-2.3,2.2-2.3,3.6-2.9c6.8-2.7,9.3-6.1,9.5-12.6c0.3-9.5-0.4-18.9,0.5-28.4c0.8-8.1,0.2-16.3,0.1-24.5c0-4.4-3-7.3-6.8-6.5
		c-3.4,0.7-6.9,1.2-10.3,1.9c-15,3.2-29.8,6.9-44.2,13.1c-7,3-14.2,5.1-20.8,9.2c-3.4,2.1-6.8,4.1-10.4,5.8c-4.4,2.2-6.6,1.6-9-2
		c-4.3-6.6-9.3-12.4-13.6-19c-6.4-9.9-13.5-19.3-20.2-29.1c-4.3-6.4-8.6-12.9-13-19.2c-2.9-4.1-5.7-4.6-9.5-1.5
		c-3.4,2.7-6.8,5.3-10.4,7.7c-4.6,3-9,6.2-13.3,9.7c-1,0.8-1.8,1.6-1.3,3.2c-2.1,1.6-4.1,3.1-6.2,4.7c-0.1-0.4-0.3-0.9-0.7-0.5
		c-0.5,0.4-0.2,0.8,0.1,1.2c-0.1,0.1-0.2,0.3-0.4,0.3c-1.1-1.3-2.1-0.3-2.9,0.4c-6.8,5.3-13.8,10-20.4,15.8
		c-1.4,1.2-3.9,2.1-3.1,4.6c0.9,2.8,3.6,1.9,5.4,1.5c8.1-1.7,16.2-3.6,24.4-4.7c3-0.4,5.2,0,7.5,2.5c9.4,10.2,17.6,21.7,26.6,32.4
		c4.5,5.3,8.7,10.9,13.2,16.2c1.7,2,1.7,4-0.1,5.8c-1.6,1.6-3.2,3.1-4.9,4.7c-9.2,8.7-18.9,16.8-27.3,26.7
		c-4.6,5.4-8.9,11-13.4,16.5c-7.4,9.2-14.4,18.8-20.4,29.2c-7.7,13.3-14.2,27.5-20,42c-3.5,8.6-6.4,17.6-9,26.6
		c-6.3,22.2-9.2,45-9.6,68.4c-0.2,9.9,0.6,19.7,0.7,29.6c0,3,0.2,6.1,0.6,9.2c1.4,11.1,3.4,22.1,5.9,32.9c1.8,7.9,4.3,15.5,6.8,23.1
		c3,9,6.8,17.6,10.5,26.2c2.8,6.8,6.8,12.9,9.7,19.6c1.1,2.6,2.2,5.1,3.8,7.3c6.5,9.1,13.1,18.3,19.7,27.4
		c8.6,11.7,18,22.5,28.1,32.3c9.4,9.1,19.2,17.4,29.5,25c4.3,3.1,8.8,5.9,12.8,9.2c5.6,4.6,11.6,8.3,17.7,11.5
		c7.2,3.7,14.3,7.9,21.8,10.8c0.2,0.1,0.3,0.7,0.5,1c-3.2,0.1-5.8-1.9-8.5-3.2c-6-2.8-12.1-5.5-17.9-8.9c-5-3-9.8-6.6-14.6-10
		c-8.4-5.8-17-11.4-24.9-18.1c-7.9-6.7-15.8-13.5-22.8-21.5c-2.2-2.5-4.2-5.2-6.5-7.4c-5.6-5.1-10-11.5-14.8-17.5
		c-5.7-7.2-10.6-15.2-16.9-21.8c-0.8-0.8-1.5-1.9-2.6-1.1c-1,0.8-0.6,2.1-0.3,3.2c0.4,1.9,1.5,3.4,2.1,5.1c1.5,3.9,1.5,8.3,2.8,12.2
		c2.3,7,3.9,14.2,6.2,21.2c2.8,8.6,5.9,17,9.2,25.3c3.2,7.9,6.1,16,9.8,23.7c2.9,6,5.6,12.1,9,17.8c5.1,8.5,10.4,16.9,15.6,25.3
		c7.1,11.7,15.4,22.1,23.7,32.5c6.3,7.9,13.2,15.3,20.1,22.6c5.5,5.8,11.5,11.2,17.3,16.6c4.1,3.8,8.5,7.4,12.7,11.1
		c0.9,0.8,2.1,1.7,1.5,3s-2,0.8-3,0.3c-6.1-2.7-12-5.8-18-8.8c-5.6-2.8-11.3-5.5-16.8-8.7c-4.8-2.8-9.6-5.8-14.2-9
		c-3-2-5.8-4.4-8.8-6.4c-4.3-2.9-8.7-5.9-12.8-9.1c-10.1-7.9-20.2-15.7-29.7-24.7c-9.1-8.7-17.9-17.9-26.5-27.2
		c-5.4-5.8-10.4-11.9-15.2-18.3c-6.7-8.9-13-18.3-19.2-27.7c-1.8-2.7-3.2-5.7-5.1-8.3c-3.9-5.2-6.9-11.2-10.2-16.9
		c-3-5.2-5.4-11.1-7.9-16.8c-3.4-7.8-6.4-15.8-10-23.6c-1.1-2.5-2.5-4.9-3.1-7.8c-1.1-4.8-3-9.3-4.5-13.9
		c-2.4-7.6-5.5-14.9-6.7-22.9c-0.6-3.7-2.9-6.7-3.1-10.4c-0.5-9.6-3.5-18.7-4.2-28.4c-0.6-7.4-2.7-14.6-2.4-22
		C5,447.5,3.3,436.4,4,425.1c0.6-10.3,0.3-20.8,1.3-31.1c0.7-7.4,1.9-14.8,2.7-22.2c0.6-6.1,2.9-11.8,3.2-18c0.1-2.2,0.2-4.5,1-6.5
		c1.3-3.1,2.1-6.4,2.9-9.8c1.5-6.4,3.6-12.5,5.5-18.8c2.1-6.9,4.3-13.8,7.1-20.2c3.6-8.3,6.8-16.9,10.5-25.1
		c5.2-11.3,10.7-22.4,17.1-32.8c4.6-7.4,9.2-14.7,14.2-21.8s9.6-14.7,15.3-21.2c9.7-11.3,19.7-22.3,30-32.8
		c5.3-5.4,10.6-10.7,16.5-15.2c4.8-3.6,4.9-5.3,0.9-10.4c-2.6-3.3-5.5-6.3-8.2-9.5c-0.6-0.7-1.2-1.3-1.7-2.1
		C120.2,123.5,118.2,123,113.8,125.3z"/>
	<path class="st1" d="M113.8,125.3c4.4-2.3,6.3-1.8,9.2,2.4c0.5,0.7,1.1,1.4,1.7,2.1c2.7,3.2,5.6,6.2,8.2,9.5
		c4,5.1,3.9,6.7-0.9,10.4c-5.9,4.5-11.2,9.8-16.5,15.2c-10.4,10.5-20.3,21.5-30,32.8c-5.6,6.6-10.2,14.1-15.3,21.2
		c-5,7-9.6,14.4-14.2,21.8c-6.4,10.4-11.9,21.5-17.1,32.8c-3.8,8.2-6.9,16.8-10.5,25.1c-2.8,6.4-5,13.4-7.1,20.2
		c-1.9,6.2-4,12.4-5.5,18.8c-0.8,3.4-1.6,6.6-2.9,9.8c-0.8,2-0.9,4.3-1,6.5c-0.2,6.2-2.5,11.9-3.2,18c-0.8,7.4-2,14.8-2.7,22.2
		c-1,10.3-0.7,20.7-1.3,31.1c-0.6,11.3,1.1,22.4,0.7,33.6c-0.2,7.5,1.9,14.7,2.4,22c0.7,9.6,3.7,18.7,4.2,28.4
		c0.2,3.7,2.5,6.7,3.1,10.4c1.2,8,4.3,15.3,6.7,22.9c1.5,4.6,3.4,9.1,4.5,13.9c0.7,2.8,2,5.2,3.1,7.8c3.5,7.8,6.5,15.8,10,23.6
		c2.5,5.7,4.9,11.6,7.9,16.8c3.3,5.7,6.3,11.7,10.2,16.9c1.9,2.5,3.3,5.6,5.1,8.3c6.2,9.5,12.4,18.8,19.2,27.7
		c4.8,6.4,9.9,12.6,15.2,18.3c8.7,9.3,17.4,18.5,26.5,27.2c9.4,9,19.6,16.8,29.7,24.7c4.1,3.2,8.5,6.2,12.8,9.1c3,2,5.8,4.4,8.8,6.4
		c4.7,3.2,9.4,6.2,14.2,9c5.5,3.2,11.2,5.9,16.8,8.7c6,3,11.9,6.1,18,8.8c1,0.4,2.4,0.9,3-0.3c0.6-1.3-0.6-2.2-1.5-3
		c-4.3-3.7-8.6-7.3-12.7-11.1c-5.9-5.4-11.8-10.8-17.3-16.6c-6.9-7.3-13.8-14.6-20.1-22.6c-8.3-10.4-16.6-20.9-23.7-32.5
		c-5.2-8.5-10.5-16.8-15.6-25.3c-3.4-5.7-6.1-11.8-9-17.8c-3.7-7.7-6.6-15.8-9.8-23.7c-3.3-8.3-6.5-16.7-9.2-25.3
		c-2.3-7-3.9-14.3-6.2-21.2c-1.3-4-1.2-8.3-2.8-12.2c-0.7-1.7-1.7-3.2-2.1-5.1c-0.2-1.1-0.6-2.5,0.3-3.2c1-0.8,1.8,0.3,2.6,1.1
		c6.3,6.6,11.2,14.6,16.9,21.8c4.8,6,9.2,12.4,14.8,17.5c2.4,2.2,4.4,4.9,6.5,7.4c7,8,14.8,14.8,22.8,21.5
		c7.9,6.7,16.5,12.3,24.9,18.1c4.9,3.3,9.6,7,14.6,10c5.7,3.5,11.8,6.2,17.9,8.9c2.8,1.3,5.4,3.3,8.5,3.2c1.8,0.1,3.4,0.9,4.9,2
		c2.6,3.1,6.1,2.6,9.3,3c2.2,0.3,2.9-1.2,1.8-3.6c-1.7-3.8-4.6-5.7-8-7c-0.3-0.2-0.6-0.5-1-0.7c0-1.4-0.6-2-1.8-1.8
		c-0.1,0-0.3,0-0.4-0.1c-0.9-2.3-2.7-3.1-4.6-3.8c-0.1,0-0.3,0-0.4-0.1c0-0.9-0.5-1.3-1.2-1.2c-0.2,0-0.3,0-0.4-0.1
		c-0.1-1.3-0.6-1.9-1.8-1.8c-0.4,0-0.8-0.2-1-0.7c-0.1-1.4-0.7-2-1.9-1.8c-0.1,0-0.3,0-0.4-0.1c0-1-0.4-1.3-1.2-1.2
		c-0.3-0.2-0.7-0.5-1-0.7c0-1-0.4-1.4-1.2-1.2c-1.1-0.1-1.5-1.2-2.1-2c-0.1-1.6-0.9-2.6-2.4-2.5c-0.7-0.1-1.3-0.5-1.5-1.3
		c0-1-0.4-1.4-1.2-1.2c-1.3-0.3-2-1.4-2.6-2.6c-1.8-4.4-5.5-6.8-8.1-10.3c-0.6-0.8-1.2-1.9-2.4-1.8c-3.4-3.3-6.5-7-9.3-11
		c0-1.4-0.3-2.4-1.8-2.4c-1.1-0.9-2.1-1.9-2.7-3.3c0-1-0.1-1.9-1.2-1.8c-0.3-0.5-0.7-0.9-1-1.4c0.1-1.4-0.2-2.4-1.7-2.5
		c-0.2-0.4-0.4-0.7-0.6-1.1c0.1-1-0.2-1.5-1.1-1.4c-0.4-0.2-0.6-0.6-0.6-1.1c0.1-0.9-0.2-1.4-1-1.4l0,0c-0.2-2.1-0.8-3.8-2.7-4.5
		c-0.1-0.1-0.1-0.3-0.1-0.5c0.1-0.9-0.2-1.4-1-1.4c-0.1-0.1-0.1-0.3-0.1-0.5c0.2-1.4-0.4-2-1.6-2.1c-0.1-0.1-0.1-0.3-0.1-0.4
		c0.1-0.9-0.2-1.4-1-1.5c-0.1-0.1-0.1-0.3-0.1-0.5c0.1-0.9-0.2-1.4-1-1.5c-0.1-0.1-0.1-0.3-0.1-0.5c-1-3.3-2-6.6-4.9-8.4
		c-0.1-0.1-0.1-0.3-0.1-0.5c0.1-0.9-0.2-1.4-1-1.4c-0.6-1.4-1.2-2.8-1.8-4.2c0-1.7-0.7-2.8-2.1-3.4c-1.1-2.3-1.9-4.8-3.4-6.9
		c0.1-0.8-0.1-1.3-0.8-1.5c-0.3-0.8-0.6-1.6-0.9-2.4c-0.2-2.2-1.3-3.8-2.7-5.2c-0.4-1.2-0.8-2.5-1.2-3.7c-0.6-3-2-5.6-3.2-8.3
		c-0.4-2.2-1-4.3-1.9-6.3c-0.3-2-0.4-4-1-5.9c-2.3-6.9-3.4-14.1-5-21.1c-3.1-14.2-5.2-28.5-5.5-43.2c-0.3-14.2-0.5-28.5,1.3-42.6
		c1.8-14.5,4.5-28.9,8.5-42.9c0.2-0.8,1.2-1.9,0-2.8c0.1-0.4,0.2-0.8,0.2-1.2c0.5-0.3,0.5-0.9,0.4-1.4c0.2-0.8,0.5-1.6,0.7-2.4
		c0.6-0.3,0.5-0.8,0.4-1.4c1.8-5,3.2-10.3,5.5-15.1c2.4-4.9,3.9-10.3,6.3-15.3c3.3-7.1,7.2-13.6,10.9-20.4s7.6-13.4,11.9-19.7
		c4.2-6.2,8.8-12,13.6-17.4c1.3,0.2,2-0.8,2.8-1.6c3.2-3.7,6.4-7.4,9.6-11.1c0.6-0.7,1.5-1.3,1.4-2.6c2.6-3.1,5-6.4,8-8.9
		c2.4-2,4.3-5.6,8.1-3.4c0,0.3-0.1,0.7,0.1,0.9c3.4,5.1,7.4,9.5,11.4,14c0.5,0.6,1.2,0.5,1.8,0.5c3.7,4.1,7.4,8.1,11,12.3
		c1.5,1.8,1.9,3.8-0.2,5.7c-0.9,0.8-1.6,1.8-2.5,2.4c-7.1,5-13.9,10.6-19.9,17.3c-1.8,0.4-2.8,1.8-3.4,3.7l0,0
		c-1.5,0.2-2.4,1.4-3.4,2.5c-3.3,3.5-5.8,7.9-9,11.6c-5.9,6.9-10.6,14.8-14.9,23.1c-3,5.6-5.2,11.6-7.7,17.5
		c-2,4.6-3.4,9.3-5.4,13.9c-0.3,0.7-0.7,1.5,0,2.3c0,0.4-0.1,0.8-0.1,1.3c-0.6,0.2-1.1,0.6-0.4,1.3c-0.1,0.4-0.1,0.8-0.2,1.3
		c-1,0.3-1.1,1.3-1.4,2.2c-1.4,3.6-2.1,7.4-2.5,11.3c-0.8,7.4-2.4,14.7-2.6,22.2c-0.2,10.7,1,21.3,2.3,31.9
		c0.9,7.4,3.4,14.3,5.3,21.2c1.5,5.3,3.9,10.4,6,15.6c3.1,8,6.8,15.5,11,22.7c0.8,1.4,1.4,3.3,3.1,3.8l0.1,0.1
		c0.3,2.7,1.6,4.6,3.8,5.7l0.1,0.1c0.2,2.3,1.6,3.5,3.2,4.4l0.1,0.1c0.1,1.6,0.7,2.7,2.1,3.1c2.9,2.7,5.5,5.7,7.9,9
		c2,3.8,4.8,6.6,7.7,9.2c2.1,1.9,3.7,4.6,6.6,5.3l0.1,0.1c1,2,2.4,3.3,4.3,3.8l0.1,0.1c0.2,1.4,1.1,1.8,2.2,1.8l0.1,0.1
		c0.1,1.1,0.8,1.2,1.6,1.2l0.1,0.1c0.2,1.4,1.1,1.8,2.2,1.8l0.1,0.1c0.4,1.6,1.5,1.7,2.7,1.9l0.1,0.1c0.2,1.4,1,1.8,2.1,1.8
		c0.2,0.2,0.4,0.5,0.7,0.7c0.7,1.9,2.3,2.2,3.8,2.5l0.1,0.1c0,1.9,1.4,2.3,2.4,3.1c1.2,0.9,2.7,1.5,3.9,2.4
		c6.2,4.9,13,8.1,19.7,11.7c3.9,2.1,6.3,1.4,7.5-0.9c1.1-2.3-0.2-5.4-3.4-8.1c-2.8-2.3-5.7-4.3-8.3-6.7c-5.3-5-10-10.9-14.9-16.5
		c-0.7-0.9-1.4-1.7-1.3-3l0.1-0.1c1,0.1,1.6,1,2.2,1.7c5.7,6.9,11.8,13.4,18.1,19.6c1.9,1.8,4.2,2.9,6.1,4.8
		c1.9,1.8,3.4,3.7,3.7,6.7c0.4,3.5-2.3,6.7-5.4,5.9c-4.1-1.2-8.2-2.3-11.5-5.7c-1.3-1.4-3.1-1.8-4.7-2.6
		c-8.1-4.1-15.1-10.2-22.5-15.7c-6-4.4-11.8-8.9-17.3-14.1c-3.4-3.2-6.9-6.3-9.6-10.5c-0.9-1.4-2.3-2.3-3.5-3.6
		c-6.2-7-11.5-14.8-16.8-22.7c-3.6-5.5-7.1-11.2-9.2-17.4c-1.7-5-4.4-9.5-5.4-14.8c-0.2-1.1-0.7-2.1-1.3-3.1
		c-1.2-2.2-2.4-4.4-2.6-7.2c-0.1-2.2-0.8-4.5-1.9-6.5c-2.2-4.1-1.8-9-2.8-13.4c-2.1-9.3-2.3-18.8-2.4-28.3
		c-0.1-8.3,1.3-16.4,2.4-24.5c0.9-6.3,2.7-12.1,4.4-18.2c1.7-6.5,4.4-12.4,6.8-18.5c1.8-4.4,3.2-8.9,5.2-13.2
		c3.8-8,8.1-15.5,13.5-22.2c3.9-4.9,7.7-10,11.8-14.7c4.8-5.5,9.6-11.2,15-15.9c4.1-3.6,7.9-7.9,13-9.9c2.4-0.9,2.6-2.8,0.8-4.8
		c-4-4.3-8.1-8.5-12.1-12.8c-3.4-3.6-6.3-7.7-9.3-11.7c-1.9-2.6-2.6-2.7-4.8-0.3c-4.1,4.5-8.4,8.8-12.5,13.3
		c-10.8,11.9-21.8,23.6-29.7,38.5c-3.2,6-7.4,11.3-10.5,17.4c-3.8,7.4-7.8,14.7-11.2,22.5c-1.8,4.1-3.1,8.5-5.1,12.6
		c-1.7,3.5-1.8,7.7-3,11.4c-3.3,9.9-5.6,20.3-7,30.8c-1,6.9-3.4,13.4-3.8,20.4c-0.1,0.7-0.3,1.5-0.3,2.2c0.1,11-1.1,22.1-0.5,33.1
		c0.7,11.7,0.3,23.4,3.7,34.8c2,6.9,2.7,14.4,4,21.6c0.9,5.2,2.8,10.1,4.4,15c0.8,2.4,1.6,4.7,1.7,7.3c0,1.3,0.3,2.6,1,3.6
		c1.4,2.2,1.4,5.2,2.6,7.2c2.5,4.4,2.9,10,6.3,13.8c1.1,1.2,1.2,3,2.1,4.5c3.9,6.8,7.5,13.8,11.5,20.5c6.8,11.3,13.7,22.6,22.4,32.1
		c2.7,3,5.1,6.4,7.8,9.5c7.6,8.8,15.6,17,24.5,24.1c5.7,4.5,11.1,9.4,17.1,13.2c1.9,1.2,3.1,3.6,4.1,5.9c1.1,2.6,0,5.1-2.4,5.6
		c-1.8,0.3-3.9,0.7-5.5-0.1c-2.9-1.6-6.1-2.3-9.1-3.4c-8.9-3.5-17.1-8.5-25.8-12.7c-4.2-2-7.9-5.3-11.9-7.8c-6-3.6-11.5-8.2-17.3-12
		c-4.9-3.2-9.8-6.6-14.4-10.4c-7-5.8-13.2-12.8-20.2-18.6c-0.5-0.4-1-0.9-1.5-1.5c-5.1-6-10.7-11.4-15.8-17.2c-2.8-3.2-5.3-7-8-10.5
		c-2.9-3.7-5.6-7.6-8.1-11.6c-0.5-0.8-1.1-2.2-2.4-1.4c-1.2,0.7-0.9,1.9-0.6,3c1.8,6.1,3.9,12.1,5.3,18.3c1.4,6,3.5,11.7,5,17.7
		c1.1,4.5,3.2,8.6,4.9,12.7c5.5,13.6,11.5,26.9,18.3,39.8c4.8,9.1,9.7,18.2,15.2,26.8c3.9,6,8.1,11.7,12.3,17.5
		c3.6,5,7.3,9.8,10.9,14.7c5.3,7.2,11.5,13.4,17.5,19.7c3.1,3.2,6.1,6.5,9.1,9.7c7.4,7.8,15.2,15,23.4,21.6c4.9,4,10.3,7.3,14.8,12
		c1.2,1.2,3.2,1.2,4.1,3c0.5,1,1.1,2,0.7,3.3c-0.5,1.4-1.6,1.1-2.6,1.2c-5.7,0.6-10.5-2.7-15.5-4.9c-9.8-4.1-19.4-9-28.9-14.1
		c-3.2-1.7-6.4-3.6-9.6-5.6c-8.9-5.7-17.8-11.3-26.6-17.2c-9.4-6.4-18.7-13.1-27.2-21c-7.6-7-15.3-13.8-22.8-20.9
		c-8.3-7.8-16-16.2-23.1-25.5c-3.6-4.7-7.4-9.1-11.2-13.6c-7.7-9.2-14.3-19.3-20.6-29.8c-3.5-5.9-7.2-11.8-10.4-17.9
		c-3.5-6.5-7.1-13-10.3-19.8c-3.2-7.1-6.6-14.1-9.5-21.4c-2.5-6.4-4.2-13.4-6.9-19.7c-2.5-5.8-3.7-12.1-5.3-18.1
		c-2.1-7.7-5.1-15.1-5.6-23.4c-0.2-3.8-2.4-7-2.9-10.8C4.4,485.1,1.7,472,2,458.5c0.1-6.2-1-12.4-1.7-18.6
		c-0.6-5.1-0.2-10.1-0.1-15.2c0.2-5.3,1-10.5,1.3-15.8c0.7-12.2,1.2-24.4,3.3-36.5c1.5-8.8,4.2-17.3,5-26.2c0-0.2,0.1-0.4,0.2-0.6
		c2.8-6.1,3.4-13,5.6-19.4c1.8-5.2,3.4-10.6,4.8-16c1.2-5,3-9.8,4.9-14.5c5.2-12.7,10.4-25.5,17.1-37.3c4.1-7.3,8.6-14.5,12.7-21.9
		c4.6-8.2,9.7-15.9,15-23.5c2.7-3.9,5.4-7.8,8.4-11.3c5.5-6.5,10.7-13.5,16.3-19.9c5.9-6.8,11.9-13.5,18.7-19.2
		c5.2-4.5,10.1-9.4,15.1-14.3c1.4-1.4,3.8-1.5,4.1-4.3c0.3-2.8-2-3.3-3.1-4.9c-2.6-3.9-6.2-7-8.8-11c-0.7-1.1-1.8-1.3-2.9-1.4
		C116.5,125.7,115.1,126.3,113.8,125.3z"/>
	<path class="st1" d="M288.3,195c0.5,0.1,1,0.2,1.5,0.4c-0.2,1.9-1.5,2.6-2.8,3.1c-7.1,2.2-13,7.3-19.6,10.8
		c-4.4,2.3-8.6,5.5-13,8.1c-2.3,1.3-2,3.1-0.8,4.9c5,6.9,9.5,14.2,15,20.7c2.3,2.7,4.3,5.7,6.4,8.7c1.4,1.9,2.8,2.3,4.9,1.3
		c7.6-3.6,15.3-7.2,23.2-9.9c1.2-0.4,2.6-0.3,3.8-0.7c9.1-2.7,18.3-4.7,27.6-6.5c2.4-0.5,4.9-0.7,7.4-0.8
		c13.2-0.1,26.3-1.2,39.5-0.6c9,0.4,18.1-0.4,26.9,1.4c8,1.7,16.4,1.7,24.1,5.7c2.6,1.3,5.7,1.2,8.6,1.8c6.5,1.4,12.1,5.5,18.4,7.4
		c6.7,2,12.4,6.3,18.5,9.6c7.4,4.1,13.9,10.1,21.1,14.5c5.7,3.4,10.5,8.1,15.9,11.9c0.5,0.3,0.9,0.8,1.3,1.2
		c5.2,5.7,10.6,11.2,15.4,17.3c6,7.6,12.7,14.7,17.4,23.6c2.5,4.7,5.5,9.1,7.1,14.2c2.8,8.6,7,16.4,9.5,25.2
		c1.6,5.6,3,11.3,4.8,16.8c0.7,2.1,1.3,4.5,1.3,6.8c0,10.5,1.4,21,0.5,31.5c-0.6,6.8,0.5,13.9-1.6,20.5c-1.4,4.4-1.2,9.5-3,13.4
		c-2.3,5-2.5,10.8-5.5,15.3c-0.7,1.1-1.1,2.5-1.5,3.7c-4,12.6-9.8,23.9-17.1,34.4c-3.4,4.8-6.9,9.4-10.7,13.7
		c-7.7,8.9-15.1,18.5-24.7,25.1c-3.6,2.5-7.2,4.9-10.3,8.4c-1.7,1.9-4.2,2.5-6.2,4c-5.1,3.6-9.8,7.8-15.2,10.6
		c-2.2,1.2-4.7,2-7.1,2.5c-2,0.4-4.1-3.1-3.5-5.6c1.3-5.3,4.8-8.5,8.4-11.3c7.8-6.1,13.8-13.9,19.2-22.8c5.4-8.8,10.2-18,14.9-27.3
		c1.5-3,2.4-6.4,3.4-9.7c1.4-4.9,4.5-9.2,4.9-14.4c0.4-5.1,2.3-9.5,3.2-14.3c0.7-3.8,0.8-7.7,1-11.6c0.3-4.6,0.5-9.4,0.3-13.9
		c-0.3-6.6-0.2-13.3-0.6-20c-0.3-5.3-1.3-10.2-2.9-15c-0.6-1.6-0.6-3.5-0.7-5.3c-0.1-3.2-1.5-5.9-2.7-8.8c-2.1-4.7-3.4-9.7-5-14.7
		c-0.4-1.4-1.2-2.6-1.9-3.9c-4.4-8.3-8-17.1-13-25c-6.9-10.8-15.5-19.5-24.2-28.1c-2.2-2.2-4.4-4.4-6.8-6.4c-6.2-5.3-13.1-9-20-12.8
		c-6.1-3.3-12.5-6.2-18.8-8.9c-6.4-2.8-13.1-5.3-20.1-5.9c-4.2-0.3-8.1-2.8-12.3-3.4c-0.9-0.1-1.8-0.4-2.7-0.4
		c-10.1,0-20.3-0.1-30.4,0c-3.2,0-6.4,0.9-9.4,2.1c-3.5,1.3-7,2.4-10.8,2.4c-0.6,0-1.3,0.2-1.9,0.4c-8.5,2.6-16.7,6-24.9,9.8
		c-2.2,1-2.7,2.8-1.1,5c5.8,7.9,10.7,16.6,16.8,24.2c4.9,6.1,9.1,13,13.6,19.5c7.9,11.5,15.9,22.9,23.7,34.5
		c6,8.8,12.5,17.1,18.2,26.2c7.5,11.9,15.2,23.5,23.9,34.4c4.4,5.6,8.5,11.6,12,18c3.7,6.8,8.7,12.6,13,18.9c1.2,1.8,2,3.7,1.9,6.1
		c-0.2,3.5-2.5,5.3-5,3.3c-2-1.6-3.8-3.7-5.5-5.7c-2.3-2.6-4.4-5.3-6.7-7.9c-6.8-7.7-13.9-15.1-20.3-23.3
		c-6.8-8.6-13.4-17.5-21-25.2c-7.4-7.6-14.1-16.1-20.7-24.7c-4.6-6-9.6-11.7-14.9-17c-3.5-3.5-6.6-7.4-9.8-11.3
		c-7.5-9.1-14.4-18.9-22.5-27.3c-6.6-6.8-13-13.8-18.3-22c-1.5-2.3-3.6-3.9-5-6.3c-0.8-1.3-1.9-0.9-2.9,0.1
		c-9.4,9.9-18.8,19.7-27.4,30.5c-3.1,3.9-5.3,8.8-7.3,13.6c-3.1,7.1-6.5,14-9.2,21.3c-3.4,9-6.7,18.2-7.8,27.8
		c-1.2,10.5-3.8,20.9-3.3,31.7c0.3,5.9,1.3,11.7,1.9,17.6c0.5,4.2,0.5,8.5,1.3,12.5c3.2,14.7,8,28.6,14.4,41.9
		c2.7,5.6,5.8,10.7,8.5,16.3c0.3,0.7,0.5,1.4,0.5,2.1l-0.1,0.1c-1.9-0.3-2.4-2.2-3.2-3.7c-4.6-9.5-9.7-18.6-13.2-28.8
		c-2.9-8.5-6.6-16.6-8.2-25.5c-1.4-7.8-2.6-15.8-3.2-23.8c-0.6-7.2-0.6-14.3,0-21.5c0.3-4.1,1.5-8.1,1.7-12.2
		c0.4-9.3,2.9-18.2,5.5-26.8c3.6-11.9,8.4-23.2,14.4-33.9c1.1-1.9,2.6-3.6,2.9-6c0.2-0.3,0.4-0.6,0.7-0.9c0.7-0.1,1-0.6,0.9-1.3
		c0-0.2,0.1-0.4,0.2-0.6c0.9-0.1,1-0.9,1-1.7c0.5-1.3,1.2-2.2,2.3-2.7c1.2-0.4,1.9-1.1,2-2.6c0.1-1,0.5-1.6,1.3-1.9
		c0.7-0.1,1.1-0.6,1.6-1.2c3.8-4.2,7.4-8.8,11.5-12.7c1.5-1.4,3.2-2.8,3.9-5.1c0.2-0.1,0.3-0.2,0.5-0.3c1,0,1.5-0.5,1.7-1.6
		c0.2-0.1,0.4-0.2,0.5-0.3c2.2-0.8,3.4-3.7,6-3.6c1.4-0.1,2,1,2.3,2.4c0,0.8,0.4,1.4,0.9,1.9c7.1,8.4,14.3,16.9,21.4,25.3
		c0.6,0.7,1.1,1.5,2.1,1.4c1.3,0.3,2,1.1,2.2,2.6c2.2,4.2,5.3,7.4,8.7,10.2c1.8,1.4,3.4,3.1,4.5,5.3c-0.1,1.3,0.7,2.1,1.4,2.9
		c6.4,7.4,12.9,14.8,19.3,22.3c0.5,0.6,1,1.3,1.8,1.4c2.3,1.8,4.2,4,5.7,6.6c0,1,0.5,1.8,1.1,2.5c7.5,8.8,14.9,17.6,22.4,26.4
		c0.7,0.8,1.3,1.5,2.3,1.5c1.2,0.6,2.2,1.5,2.5,3.1c0,1,0.5,1.5,1,2.1c3.1,3.7,6.1,7.3,9.1,11.1c7.3,9,14.9,17.7,22.3,26.5
		c0.9,1.1,1.6,2.3,2.5,3.3c3.1,3.7,6.1,7.6,10.3,9.8c0.7,0.4,1.5,1,2.3,0.2c0.9-0.9,0.1-1.8-0.2-2.6c-1.7-4.7-5-8.2-7.5-12.4
		c-5.4-8.9-11-17.7-17-26.1c-8.1-11.4-16.6-22.5-24-34.6c-5.4-8.8-12-16.7-17.6-25.4c-5.6-8.7-12-16.8-17.7-25.4
		c-7.6-11.3-15.2-22.8-23.4-33.6c-4.7-6.2-8.7-13-13.2-19.5c-2.8-4.1-2.2-5.9,2-7.7c2.9-1.3,5.8-2.5,8.7-3.8
		c7.2-3.2,14.9-4.6,22.2-7.1c14-4.7,28.2-3.3,42.3-3.6c9.7-0.2,19,3.3,28.4,5.6c10.7,2.6,20.9,7.4,30.8,12.8
		c1.6,0.9,3.1,1.9,4.9,1.9c4,1.5,7.3,4.6,10.8,7.1c2.9,2,5.7,4.1,8,6.9c0.1,1.6,0.8,2.6,2.3,2.5l0,0c0.5,1.5,1.3,2.7,2.8,2.6
		c1.6,1.7,3.2,3.4,4.8,5.1c1.7,2.9,4.1,5.1,6.2,7.5c1.1,1.3,1.9,3.2,3.8,3.4c4.4,5.2,8.5,10.7,11.7,17c0,0.3-0.1,0.7,0,0.9
		c2,3.9,4.2,7.5,5.7,11.8c0.3,0.8,0.9,1,1.6,0.8c0.2,0.4,0.4,0.9,0.6,1.3c-0.4,0.2-0.7,0.5-0.4,0.9c0.2,0.2,0.6,0.2,1,0.3
		c0.4,0.2,0.5,0.7,0.5,1.2c1.1,3.6,1.7,7.6,4.4,10.4c0.7,1.1,1,2.3,1.2,3.6c0.1,5.2,2.8,9.2,4.7,13.6c0.1,0.6,0.1,1.2,0.2,1.9
		c-0.5,3.9,0.5,7.3,2.6,10.2c0,0.4,0.1,0.8,0.1,1.2c-0.9,0.8-0.4,1.1,0.3,1.3c0.1,1,0.1,2.1,0.2,3.1c-0.9,1.2-1.2,2.4,0.4,3.2
		c0.1,1,0.1,2.1,0.2,3.1c-0.7,2-1.5,4,0.5,5.8c0,0.4,0,0.8,0,1.3c-1.3,4.3-0.2,8.5,0.6,12.8c0,0.4,0,0.8,0,1.3
		c-2.1,2.4-1.1,5-0.5,7.7c0,0.4,0,0.8-0.1,1.3c-1.8,1.5-1.3,3.3-0.5,5.1c-0.1,1.3-0.1,2.5-0.2,3.8c-1.5,0.8-1.3,2-0.4,3.2
		c-0.1,0.8-0.1,1.7-0.2,2.5c-1.2,0.4-1.3,1-0.4,2c0,0.4-0.1,0.8-0.1,1.2c-2.2,2.9-3.2,6.3-2.7,10.2c0,0.4-0.1,0.8-0.1,1.2
		c-1.2,0.3-1,1.3-0.8,2.3c-0.1,0.7-0.1,1.5-0.2,2.2c-1.6,0.4-1.7,2.1-2.1,3.4c-3.9,13.1-9.2,25.3-16.1,36.6c-1,1.6-2.3,3.1-2.2,5.3
		l0,0c-1.2,0-1.8,0.7-1.6,2.1c0,0.2,0,0.3-0.1,0.4c-0.9,0-1.2,0.5-1,1.5c0,0.5-0.2,0.9-0.6,1.1c-1.5,0.1-2.2,1-2.2,2.7
		c-0.7,1.8-2,3.1-3.3,4.3c-0.9-0.1-1.2,0.4-1.1,1.4c-1.7,3.1-3.8,5.7-6.5,7.6c-0.9-0.2-1.3,0.2-1.3,1.2c-0.4,0.4-0.7,0.8-1.1,1.2
		c-2.4,0.4-8.6,7.4-8.9,9.9c-0.2,2.3,1,3.8,3.2,3.4c4.2-0.9,7.8-3.4,11.4-5.8c0.2-0.1,0.2-0.8,0.3-1.2c0.3-0.8,1-0.9,1.5-1.3
		c1.7,0.1,3.3-0.3,4-2.5l0,0c0.8,0.1,1.6,0.1,1.7-1.2c8.7-6.4,17.2-13.2,25.2-20.7c2.6-0.3,3.7-2.5,4.7-4.8
		c8.4-9.5,17-18.8,23.6-30.1c0.5,0.1,0.9,0,1.2-0.5c2.5-4.6,5.1-9.1,7.6-13.7c0.2-0.4-0.1-0.8-0.4-1c3.9-9.2,8.2-18.1,10.6-28
		c1.2-0.1,1.4-1.2,1.7-2.2c2.2-8.9,4.3-17.9,4.9-27.1c0.1-2.1,0.7-4.4-0.5-6.4c0.1-1.7,0.1-3.4,0.2-5c1.2-0.4,1.2-1.1,0.3-2
		c0-1.1,0-2.1,0-3.2c0.8-1,1-1.9-0.3-2.6c-0.1-1.7-0.1-3.4-0.2-5.1c0.9-0.8,0.6-1.9,0.6-2.9c0-12.1-2.7-23.5-6.5-34.6
		c-0.3-0.7-0.4-1.4-1.2-1.4c0-0.4-0.1-0.8-0.1-1.2c1.2-1.5,0.2-2.1-0.9-2.6c-0.1-0.4-0.1-0.7-0.2-1.1c-1-3-1.9-6.1-2.9-9.1
		c-0.2-0.7-0.6-1.3-1.4-1.3c-0.1-0.1-0.1-0.3-0.1-0.5c0.2-0.8-0.2-1.4-0.4-2.1c-2.7-7.7-6.5-14.6-10.4-21.4
		c-1.4-2.4-2.5-5.4-5.1-6.7c-0.1-0.1-0.1-0.3-0.1-0.4c0-2-1.1-3-2.6-3.4c-0.2-0.2-0.4-0.5-0.6-0.7c-0.1-2.4-1.4-3.7-3.3-4.4
		c-0.7-0.4-0.9-1.1-1.2-1.8c-0.1-2-1.1-3-2.7-3.3c-2.1-1.9-3.9-4-5.5-6.4c-0.5-2.2-1.7-3.6-3.8-3.9c-0.4-0.4-0.8-0.8-1.2-1.2
		c-2.5-4.3-5.5-8-10-9.6l0,0c-0.8-1.7-1.7-3-3.5-3.1c-0.1,0-0.3,0-0.4-0.1c-0.4-2.2-1.9-2.7-3.5-3.1c-0.1,0-0.3,0-0.4-0.1
		c0-1.7-1.3-1.9-2.2-2.5c-3.3-2.3-6.8-4.3-9.9-6.8c-7.9-6.2-16.5-11.1-25.2-15.5c-13.5-6.8-27.7-11.1-42.1-14.7
		c-8.3-2.1-16.8-3.3-25.2-4.4c-3.2-0.4-6.6-0.7-9.8,0.3c-0.4,0-0.8,0-1.1,0c-0.3-1.3-1.2-1-2-1c-8.4,0-16.9,0-25.3,0
		c-0.8,0-1.7-0.3-2,1c-0.4,0-0.8,0-1.1,0c-5.5-1.1-11-0.5-16.4,0.3c-10.9,1.7-21.6,4.5-32.3,7.2c-9.3,2.3-18.1,6.3-26.9,10.2
		c-4,1.7-5.8,1.2-8.4-2.6c-3.4-5.1-7.1-10-10.7-14.9c-3.7-5-7-10.4-10.3-15.6c-1.2-1.9-0.8-3.7,1.1-4.7c6.5-3.5,12.4-8.2,19-11.4
		c0.9-0.4,2.1-0.6,2-2.2c3.6-1.9,7.3-3.8,10.9-5.7c0.6,0.2,1.1,0,1.3-0.8h0.2l0.1,0.1c0.9,0.2,1.4-0.2,1.3-1.3
		C287.7,195.2,288,195.1,288.3,195z"/>
	<path class="st1" d="M289.8,195.4c0.5-1.3,1.6-1.6,2.7-1.9c1.8-0.6,3.6-1.1,5.2-2c3.4-2,5.6-4.9,5.4-9.8c-0.2-7.1,0-14.2-0.1-21.4
		c-0.1-3.4,1-6.2,2.3-9c0.6-1.2,1.4-1.9,2.7-1.8c4,0.2,7.1-2.6,10.6-4c1.9-0.8,2.5-3.2,2-5.4c-0.5-2-0.4-4-0.4-6
		c0-22.6,0-45.3,0-67.9c0-4.7-0.8-4.8-4.6-4.4c-8.4,0.9-16.4,4.2-24.9,4.8c-4.4,0.3-8.3,2.4-12.5,3.4c-11,2.5-21.6,6.4-32.1,10.7
		c-14.4,6-28.7,12.4-42.6,19.7c-1.7,0.9-3.4,1.7-5,2.6c-5,2.6-7.8,1.7-11.2-3.2c-8.8-12.8-17.8-25.5-26.6-38.4
		c-4.6-6.7-9-13.7-13.6-20.4c-4.6-6.6-9.3-13-13.9-19.6c-3.2-4.5-6.3-9.1-9.3-13.7c-2-3-3.5-3.7-6.3-1.8
		c-5.5,3.8-10.9,7.9-16.3,11.8c-5.6,4-11.2,8.1-16.9,11.7c-3.4,2.1-6.7,4.7-9.9,7.4c-8.7,7.3-17.9,13.6-26.9,20.3
		c-0.5,0.3-0.9,0.8-1.3,1.2c-0.6,0.7-1.7,1.4-1.1,2.6c0.6,1.1,1.6,0.5,2.5,0.3c9.3-2,18.7-4.1,28-6c5.2-1,9.8,0.2,13.1,5.6
		c2.6,4.2,6.1,7.7,9.2,11.3c5.9,6.8,11.4,14.1,17.7,20.4c1.9,1.9,1.8,3.4,0.1,5.5c-3.3,4-7.7,6.2-11.4,9.5
		c-5.5,4.9-11.8,8.6-17.5,13.2c-1.2,1-2,2.3-2.6,3.6c-1.3,2.6,0.6,5.7,3.5,5.4c4.6-0.4,9.3-1.3,13.8-2.7c3.6-1.1,7.1-1.9,10.8-1.6
		c-0.1,0.3-0.3,0.8-0.4,0.8c-5.9,0.4-11.1,4.2-17.1,4.2c-2.7,0-5.5,0.7-8.1,1.4c-2.1,0.6-4.1,0.9-5-1.6c-0.9-2.3-1-5.1,0.8-7.2
		c1.7-2,3.5-4.2,5.7-5.5c6.5-3.8,12.2-8.8,18.3-13.3c2.1-1.6,4.3-2.8,6-5c1.5-1.8,1.7-3.3-0.1-5c-6.2-5.6-11.1-12.7-16.4-19.3
		c-3.7-4.6-7.8-9-11.5-13.5c-2.2-2.7-5-2.4-7.5-1.8c-11.5,2.7-23,5.1-34.5,7.1c-2.6,0.5-5.3-0.1-7.9-0.4c-1.2-0.1-1.5-1.3-1.2-2.4
		c0.6-1.9,1.3-3.7,3-4.7c10-5.7,19.1-13.2,28.6-19.8c9.9-6.9,19.3-14.6,29.1-21.7c6.7-4.9,13.2-10,20.2-14.2c2.3-1.4,4.1-4,7.1-3.4
		c1.3,0.3,2.5,0.7,3.4,1.9c7.2,10.6,14.7,21.1,21.6,32.1c4.4,7,9.5,13.4,14.3,20.1c5,6.9,9.5,14.2,14.3,21.3
		c4.9,7.3,10.1,14.5,15.3,21.6c2.3,3.2,3.8,3.2,7.3,1.3c12.5-6.5,25-12.7,38.1-17.6c5.6-2.1,11.2-4.5,16.7-6.7
		c0.4-0.2,0.8-0.4,1.3-0.6c9.5-3.2,18.8-7.1,28.5-9.2c7-1.5,13.8-4.2,20.9-5.2c4.7-0.6,9.2-2,13.8-2.8c4.2-0.8,6.3,1.2,6.3,6.2
		c0,26.8,0,53.6,0,80.4c0,2.6-1.1,4.2-2.9,5.6c-3.6,3-8,3.7-12,5.5c-2.7,1.2-4,3.1-3.9,6.4c0.1,7.4-0.2,14.9,0.1,22.3
		c0.2,5.3-3.2,9.1-6.4,10.3C295.2,194.2,292.4,194.7,289.8,195.4z"/>
	<path class="st2" d="M325.1,526.7c-14.4-0.2-26.4-7.2-35.4-20.7c-3.3-4.9-5.3-10.6-5-17.1c0.2-3.4-0.4-6.9,0.3-10.2
		c2.6-11.9,8.8-20.6,18-26.3c10.8-6.8,22.3-7.5,34.2-4.9c7.5,1.6,13.7,5.8,19.1,11.9c5.2,5.8,10.3,11.8,11.2,20.6
		c1.2,10.4-0.2,20-6.7,28c-4.9,6-10.5,10.5-16.9,14.5C337.8,526.2,331.7,526,325.1,526.7z M362.9,486c-0.1-3.4,0.3-6.8-0.9-10
		c-4.2-11.1-11.9-18.1-21.5-21.4c-11.9-4.1-24.1-3.8-35.6,3.1c-10.6,6.4-17.2,15.9-17.1,30.4c0,4.3,1.8,7.7,3.2,11.4
		c2.7,7.1,7.5,12.2,13.2,15.6c8.4,4.9,17.2,7.4,26.9,6c7-1,13.7-3.5,19.3-7.8C358.6,507.1,363.8,498.1,362.9,486z"/>
	<path class="st1" d="M254.4,536.6c1.8,0.4,2.3,2.1,2.8,3.8l-0.1,0.1C255.6,539.7,254.8,538.4,254.4,536.6L254.4,536.6z"/>
	<path class="st1" d="M253.3,534.7c1,0.1,1.1,1,1.1,1.9l-0.1,0.1C253.6,536.3,253.2,535.7,253.3,534.7L253.3,534.7z"/>
	<path class="st3" d="M113.3,104.4c2.1-1.6,4.1-3.1,6.2-4.7c1.3-0.6,2.4-1.4,3.5-2.4c7.1-6,14.9-10.6,22.5-15.8
		c3.2-2.2,5.2-1.6,7.4,1.8c6.2,9.6,12.6,18.9,19.1,28.2c4.8,6.9,9.6,13.8,14.5,20.7c4.5,6.3,8.8,12.7,13.1,19.2
		c2.2,3.4,5.2,4.1,8.5,2c3.2-2,6.4-4.2,9.9-5.5c5.5-2,10.7-5,16.2-7c6.4-2.3,12.6-5.4,19.1-7.4c10.7-3.3,21.6-6,32.4-8.8
		c2.9-0.8,6-1.2,9-1.4c4-0.3,5.2,1.1,5,5.7c-0.2,9.1,0.2,18.2-0.4,27.4c-0.5,7.8-0.3,15.7,0,23.6c0.2,4.2-1.4,6.5-4.4,8.2
		c-3.6,2.1-7.3,3.9-11,5.8c-11.3,5.7-22.4,11.8-33.1,18.9c-4.3,2.8-5.2,5.9-1.6,11.6c1.6,2.5,3.8,4.2,5.4,6.7
		c5.2,8,10.5,16,15.9,23.8c3.8,5.5,5.8,5.9,11.5,3.3c3.6-1.7,7.2-3.2,10.8-4.7c12.7-5.3,25.8-8.6,39-11.3c9.3-1.9,18.7-3.4,28.2-3.5
		c8.5-0.1,17-0.1,25.4,0c4,0.1,8.1,0.2,12.1,1c10.6,2,21.2,3.7,31.7,6.6c15.1,4.1,29.7,9.7,43.8,17.1c12,6.3,23.1,14.5,33.7,23.5
		c6.6,5.6,13,11.5,18.9,18.1c9,10,16.5,21.6,23.1,33.9c3.6,6.7,7.1,13.6,9.5,21.1c1.8,5.4,3.1,11.1,4.8,16.5
		c3.7,11.8,4.1,24.1,4.9,36.2c0.8,11.2-1.2,22.4-3,33.4c-1.6,9.8-4.3,19.3-8.1,28.2c-4.1,9.5-9,18.4-14.1,27.2
		c-8.4,14.5-19.3,26.1-30.7,37.2c-8.7,8.4-17.8,16.3-28.2,21.8c-0.9,0.5-2,1.6-2.7,0.4c-0.6-0.9,0.4-1.9,1.1-2.7
		c3.7-4.7,7.4-9.5,11.1-14.1c8.4-10.3,14.9-22,20-34.9c2.4-6.1,4.8-12.2,6.5-18.6c2.6-9.6,4.3-19.5,5.7-29.4
		c1.3-9.1,1.9-18.2,1-27.3c-1.2-11.5-2.5-23-5.5-34.3c-3.5-13.2-7.8-25.8-14-37.6c-4.3-8.3-9.3-16-15-23.1
		c-5.8-7.3-11.7-14.4-18.6-20.4c-4.4-3.8-8.8-7.5-13.5-10.9c-5.8-4.2-11.5-8.5-17.7-11.6c-9.8-4.9-19.8-9.1-30.3-11.7
		c-7.6-1.9-15.1-4-22.8-4.3c-11.8-0.4-23.7-0.8-35.6,0.9c-16.3,2.3-31.8,7.4-46.8,15c-1.8,0.9-3.2,2.3-2.9,4.5
		c0.2,2.3,0.8,4.8,3.2,5.7c0.2,0.2,0.3,0.5,0.5,0.7c-0.3,1,0.4,1.5,0.9,2.2c6.2,9,12.3,17.9,18.5,26.9c5.4,7.9,10.7,15.9,16.2,23.7
		c8.2,11.8,16.9,23.2,24.8,35.3c8.1,12.6,17.4,24.1,25.3,36.9c2.9,4.7,5.7,9.5,8.5,14.3c0.4,0.6,0.8,1.3,0.2,1.9
		c-0.4,0.4-0.8-0.1-1.2-0.5c-5-4.3-9-9.9-13.5-14.8c-3.6-3.9-6.7-8.7-10.2-12.8c-9.7-11.7-19.8-23-29.7-34.6
		c-3.6-4.2-6.9-8.8-10.4-13.1c-4.6-5.5-9.1-11.1-14.7-15.2c-0.1-0.2-0.2-0.3-0.3-0.4c0.1-0.8-0.3-1.4-0.7-1.9
		c-2.7-3.1-5.3-6.2-7.7-9.5c-6.4-8.4-13.3-16.1-20.2-24c-1.7-1.9-3.7-3.5-5.2-5.6c-2.3-2.9-4-3.5-7.1-2.3c-2.1,0.8-3.2,2.7-4.8,4.1
		c-11.9,10-21.6,22.5-30.1,36.3c-4.4,7.1-8.1,14.7-11.3,22.7c-6.5,16.1-10.8,33-11.8,50.7c-1.1,19-1,38.2,4.1,56.8
		c2.3,8.4,4.7,16.7,7.8,24.8c2.8,7.3,6.1,14.2,9.9,20.8c6.6,11.5,15.7,20.3,23.5,30.5c0.9,1.2,2.7,2.5,1.7,4.2
		c-0.9,1.4-2.6,0.1-3.8-0.6c-5.8-3.5-11.5-7-17-11.1c-10.4-7.9-20-17-29.2-26.8c-8.3-8.8-15.2-18.9-21.4-29.7
		c-5.8-9.9-10.5-20.5-14.3-31.8c-2.8-8.2-4.5-16.6-5.7-25.1c-1.8-12-2.5-24.2-1.2-36.4c0.7-6.9,1.1-13.9,2.9-20.6
		c1.4-5.3,2.6-10.7,4.4-15.9c2.1-5.9,4.2-11.9,7.1-17.3c3.4-6.4,6.4-13.1,10.1-19.4c4.4-7.5,9.9-14,14.3-21.5
		c1.6-2.8,4.3-4.7,6.4-6.9c7.8-8.2,16.1-15.7,25.1-22.2c2.9-2.1,3.5-4.9,1.6-8.1c-0.6-1-1.3-2.1-2.1-3c-7.3-8.5-14.7-17-22.1-25.5
		c-3.3-3.8-5.6-4.1-9.2-0.8c-4.1,3.9-8.3,7.7-12.1,12c-11.4,13.1-22.6,26.5-32.2,41.4c-9.5,14.6-17,30.4-23.8,46.8
		c-4.5,10.7-8,21.8-10.9,33.2c-4.4,17.3-7,34.9-7.7,52.8c-0.7,18.1-0.1,36.3,2.6,54.2c1.9,12.5,4.6,24.9,8.3,36.8
		c3.1,9.9,6.7,19.7,11,29.1c3.2,7,6.2,14.2,9.8,21c9,17.3,20,33,32.1,47.6c10.7,12.9,22.5,24.4,35,34.9c1.3,1.1,2.6,2.2,3.3,4.4
		c-2.4,0-4.5,0.3-6.5-0.9c-3-1.7-6-3.4-9-4.8c-12.8-5.9-24.7-13.5-36.4-21.6c-4.5-3.1-8.8-6.8-12.9-10.6
		c-6.6-6.1-13.6-11.5-20.2-17.5c-4.4-4-8.3-8.6-12.5-12.9c-5.7-5.8-10.3-12.8-15.5-19.2c-4.7-5.8-8.8-12.2-12.8-18.5
		c-4.5-7-8.6-14.2-12.4-21.7s-7.8-14.8-11-22.7C75.9,490,71,474.1,67.7,457.5c-4.2-21.1-6.2-42.4-5.7-64c0.1-4.5,1-9.1,1-13.6
		c-0.2-13,2.7-25.4,5-37.9c2.3-12.1,5.6-23.9,9.7-35.4c2.9-8,5.9-16,9.7-23.5c4.6-8.9,8.9-18,14.1-26.6c4.5-7.5,9.1-14.9,14.2-21.8
		c6.9-9.4,14.6-18,22.4-26.4c3.7-4.1,7.3-8.3,11.5-11.8c5.6-4.7,10.8-9.9,16.5-14.4c3.5-2.8,3.4-5.8,0.4-9.3
		c-4.4-5.1-8.9-10.1-13.3-15.4c-8.9-10.7-17.3-22.1-27.2-31.9c-2.3-2.3-4-6.8-8-5.4c-4.4,1.6-8.9,1.6-13.3,2.2
		c-3.4,0.5-6.6,2-10.1,1.6c-0.6-0.1-1.4,0.2-1.6-0.8c-0.2-0.7,0.2-1.2,0.7-1.6c1.7-1.8,3.2-4.2,5.2-5.1c5.5-2.5,9.1-7.9,14.1-11
		c0.1-0.1,0.3-0.2,0.4-0.3C113,105,113.3,104.9,113.3,104.4z M217.7,647.1c-0.1-1.1-0.9-1.7-1.6-2.4c-5.3-5.8-11.3-10.7-16.7-16.5
		s-10.7-11.6-15.3-18.3c-5.1-7.3-10.5-14.4-15.5-21.8c-5.5-8.2-10.7-16.6-14.5-26c-1.6-4-3.1-8.1-4.9-12c-1.6-3.6-3.2-7.3-5-10.8
		c-2.1-4.1-3.5-8.6-5.1-12.9c-2.8-7.4-4.4-15.3-6.6-23c-0.5-1.7-1.3-3.3-1.6-5c-1.2-8.4-3.1-16.7-3.6-25.3c-0.5-9.4-2.3-18.6-2-28.1
		c0.2-6.8-0.4-13.6,0.5-20.3c0.8-5.7,1.2-11.5,1.7-17.3c0.8-10.3,2.5-20.4,5.5-30.3c0.4-1.3,1-2.4,1.2-3.8c1-6.3,3-12.4,5.1-18.3
		c1.3-3.6,3.4-6.8,3.9-10.7c0.1-0.5,0.4-1,0.6-1.4c2.4-3.6,3.8-7.9,5.4-12c3.2-8.1,7.1-15.6,10.9-23.2c5.5-11,12.4-20.6,19.9-29.8
		c4.2-5.2,8.5-10.3,12.3-15.8c2.6-3.8,5.6-7.3,8.7-10.6c4.1-4.3,8.4-8.1,12.6-12.2c3-2.9,7.7-4.2,9.9-1.9
		c5.4,5.8,10.6,11.8,15.7,17.8c3.4,4,6.4,8.6,10.1,12.1c3,2.8,3.2,6,3,9.6c-0.2,2.9-2.1,3.9-4.3,4.5c-0.6,0.2-1.1,0.7-1.6,1.2
		c-6.7,6.7-14.3,12.2-20.9,19.1c-3.1,3.3-6.9,5.6-9.5,9.6c-4.9,7.4-10.2,14.3-14.5,22.2c-4.3,8.1-9.7,15.5-12.3,24.8
		c-0.1,0.4-0.4,0.7-0.6,1.1c-3.5,4.9-3.9,11.2-5.8,16.8c-0.8,2.2-0.4,4.8-1,7.1c-1.8,7.2-2.5,14.5-2.9,21.9
		c-0.7,16.1,0.5,32.1,3.4,47.9c0.7,3.6,2.6,6.7,2.9,10.1c0.5,5.9,3.6,10.4,5.7,15.3c3.5,8.3,8.2,16,12.9,23.6
		c7.3,11.9,16.2,22.1,25.9,31.5c8.8,8.5,17.5,17,27.8,23c1.1,0.6,2.5,2.1,3.4,0.9c0.9-1.3-0.5-2.6-1.4-3.7c-0.2-0.2-0.4-0.5-0.6-0.7
		c-4.5-5-8.7-10.4-12.4-16.2c-3.7-5.7-7.4-11.3-10.2-17.6c-1.8-3.9-3.3-7.9-5.3-11.7c-2.3-4.5-3.2-9.6-4.8-14.4
		c-1.8-5.6-2.6-11.4-4-17.1c-1.2-4.6-1.9-9.3-1.9-14c-0.1-13-0.1-25.9,0-38.9c0-2.9,0.1-6,0.7-8.8c1.9-8.7,3.5-17.5,6.3-25.9
		c3.9-11.8,8.7-23.2,15.7-33.2c1.7-2.4,3.5-4.6,4.9-7.2c3.7-6.6,8.1-12.6,12.5-18.5c5-6.6,11.5-11.2,17.3-16.6
		c3.1-2.9,8.1-2.4,10.1,0.6c3.1,4.6,7.2,7.9,10.7,11.8s7,7.8,10.2,12c5.7,7.6,11.2,15.4,17.8,22c6.3,6.2,12.3,12.9,17.6,20.2
		c5.5,7.5,11.3,14.7,17.7,21.3c2.2,2.3,4.2,5,6.5,7.3c4.4,4.4,8.1,9.5,12,14.4c2.7,3.4,5.4,6.7,8,10c0.4,0.4,0.8,1.1,1.4,0.7
		c0.6-0.4,0.2-1.2,0-1.7s-0.4-1-0.7-1.3c-3-3.4-5.6-7.3-8.4-10.9c-7.1-9-13.3-18.8-19.9-28.3c-2.9-4.2-5.5-8.8-8.5-12.8
		c-4.4-5.8-8.7-11.7-12.8-17.9c-3.7-5.6-7.8-11-11.7-16.4c-6.9-9.7-12.8-20.3-20.1-29.8c-2.2-2.9-4.5-5.9-6.6-8.9
		c-2.3-3.4-1.4-8.8,1.7-10.4c4.4-2.2,9-4.2,13.4-6.6c7.5-4.2,15.9-5,23.7-7.9c6.8-2.5,14.3-2.8,21.4-3.1c11-0.5,22-1.6,33,0.9
		c3.9,0.9,8.2,0.4,12,1.7c6.2,2.1,12.4,3.8,18.6,5.6c5.1,1.5,9.7,4.5,14.5,6.8c2.6,1.2,5.3,2,7.7,4c5.2,4.5,11.1,8.1,16.5,12.3
		c7,5.6,14.2,10.9,20.4,17.7c4.3,4.7,7.9,10,11.7,15.2c7.6,10.5,15,21.1,19.7,33.8c2.2,6,4.9,11.7,6.1,18.1c0.5,2.7,0.3,5.5,1.6,8
		c1.5,2.8,1.7,6,1.9,9.1c0.1,1.4,0.2,2.7,0.4,4.1c0.7,5.1,3.1,9.8,2.9,15.1c-0.4,13.7,0.8,27.3-2.4,41c-2,8.5-3.4,17.5-5.3,26.1
		c-1.2,5.3-3.9,10.2-5.7,15.4c-2.7,7.9-7,14.7-11.1,21.7c-3.9,6.6-8.7,12.3-13.7,17.8c-0.6,0.6-1.5,1.3-0.5,2.3
		c0.8,0.9,1.6,0.4,2.1-0.4c1.6-2.5,4.2-3.4,6.2-5.2c8.2-7.3,16.3-14.7,23.8-23c3.5-3.9,7-7.8,10.2-12c4.4-5.5,7.5-12.2,11.6-18.1
		c2.1-3.1,2.9-7.2,5.3-9.9c3.3-3.7,4.5-8.8,6.3-13.1c2-4.7,4.6-9.6,4.5-15.4c-0.1-4.1,2.1-7.6,2.5-11.6c0.7-6.7,1.1-13.4,2.2-20.1
		c0.6-3.8,0.8-7.7,0.7-11.6c-0.1-6.1-1.6-11.9-1.9-17.9c-0.2-5.2-0.9-10.4-2.5-15.5c-1.7-5.3-2.4-10.8-4.2-16.2
		c-1.8-5.4-3.8-10.7-6.3-15.5c-2.9-5.6-6.2-10.9-9.4-16.3c-4.7-7.7-9.5-15.3-15.3-22c-7.5-8.7-16-16.1-24.5-23.5
		c-2.8-2.5-6.1-4.4-8.8-7c-2.9-2.8-6.1-5.1-9.5-6.8c-6-3-12-6.1-18-9c-7.3-3.5-14.7-6.2-22.1-9.3c-8.1-3.4-16.6-5.2-25.1-7.1
		c-4-0.9-7.9-2.6-12.1-2.8c-2.3-0.1-4.8-0.5-7.1-0.7c-6-0.3-11.7-2.3-17.7-2.4c-11.7-0.1-23.3,0.3-34.9,2c-4.7,0.7-9.4,1.3-14.2,1.9
		c-3.8,0.4-7.1,2.9-10.9,3.2c-7.3,0.7-14.1,3.5-21,6.1c-6.9,2.6-13.8,5-20.4,8.6c-2.6,1.4-5.7,1.6-8-1.7
		c-3.9-5.7-8.2-11.1-11.8-17.1c-3.9-6.5-7.4-13.2-12.5-18.7c-4.6-4.9-3.8-11.2,1.6-14.5c0.7-0.4,1.4-1,2.1-1.5
		c7.7-6.3,16.5-10.1,24.8-14.9c0.5-0.3,1.1-0.4,1.6-0.4c2.4,0.3,4.6-0.6,6.2-2.2c1.8-1.9,3.8-2.9,6.1-3.4c1.8-0.4,3.3-1.4,4.8-2.3
		c1.6-0.9,3-2.4,2.5-4.8c-0.3-1.6-0.3-3.2-0.3-4.7c0-12.7,0-25.4,0-38.1c0-2.8-0.1-5.5,0.1-8.3c0.3-3.6-0.9-5-4-4.3
		c-5.7,1.2-11.3,3.4-17,4.8c-7.8,1.8-15.8,3.5-23.3,7c-5.2,2.4-10.5,4.4-15.9,6.1c-4.7,1.5-8.8,4.7-13.6,5.7
		c-4.7,1-8.8,3.4-12.7,6.4c-3.5,2.7-8.6,2.3-11.4-1.2c-4.4-5.5-8.4-11.4-12.1-17.5c-3.3-5.3-7.1-10.2-10.8-15.2
		c-1.8-2.4-2.9-5.4-4.7-7.7c-2.2-2.9-4.5-5.8-6.9-8.6c-5.3-6.1-8.8-13.8-13.4-20.4c-1.3-1.9-2.3-1.9-3.9-0.9
		c-3.7,2.3-6.9,5.6-10.4,8.2c-6.7,4.9-13.4,9.6-19.8,14.9c-0.4,0.3-0.7,0.7-1.1,0.9c-5,2.3-9.5,5.7-14.1,8.9
		c-0.5,0.4-1.3,0.7-1.1,1.6c0.2,0.9,0.9,1.2,1.5,1c4.6-1,9.3-0.6,13.8-2.5c2.7-1.1,5.5-1.3,7.8,1c3.3,3.3,6.6,6.7,9.8,10.2
		c7.8,8.5,13.9,18.9,21.7,27.5c4.9,5.3,9.9,10.5,14.7,15.8c2.9,3.1,2.5,9-0.8,11.6c-4.1,3.3-8.3,6.3-12.4,9.4
		c-6.2,4.7-11.3,10.8-16.4,16.8c-3.3,3.9-6.7,7.8-10.2,11.6c-6,6.7-12.2,13-16.9,21.1c-5.2,9-10.9,17.5-16,26.6
		c-2.8,4.9-5.2,10.1-7.8,15.1c-1.7,3.3-3.7,6.6-4.8,10.2c-2.6,8.4-6.4,16.2-8.2,25c-1.8,8.9-5.2,17.3-6.3,26.5
		c-0.8,6.3-2.8,12.2-3.1,18.7c-0.2,5.1-1,10.3-1.4,15.4c-0.6,6.8-2.1,13.5-1.9,20.5c0.2,5.5,1.3,10.9,1.6,16.3
		c0.5,10.2,1.7,20.2,3.5,30.1c1.2,6.9,2.1,13.9,4,20.7c1.3,4.6,2.9,9.1,4,13.8c2.3,9.7,5.5,19.1,9.6,28c1.8,4,3.3,8.3,5.6,11.8
		c4.4,6.5,7.1,14.2,11.7,20.6c2.4,3.3,4,7.3,6.4,10.6c4.6,6.5,9.4,13,14.2,19.4c6.9,9.2,14.5,17.4,22.6,25.1
		c6.6,6.3,13.6,12.2,20.6,18c8.2,6.9,16.3,14,25.5,19.1c7.7,4.3,15.5,8.5,23.2,12.8C216.4,647.4,216.9,647.9,217.7,647.1z"/>
	<path class="st2" d="M112.3,105.4c-5,3.1-8.6,8.5-14.1,11c-2,0.9-3.5,3.3-5.2,5.1c-0.4,0.4-0.8,1-0.7,1.6c0.2,0.9,1,0.7,1.6,0.8
		c3.5,0.4,6.7-1.1,10.1-1.6c4.4-0.6,8.9-0.6,13.3-2.2c4-1.4,5.7,3.1,8,5.4c9.8,9.7,18.2,21.1,27.2,31.9c4.3,5.2,8.9,10.2,13.3,15.4
		c3,3.5,3,6.5-0.4,9.3c-5.7,4.5-10.9,9.7-16.5,14.4c-4.2,3.5-7.8,7.8-11.5,11.8c-7.8,8.5-15.5,17.1-22.4,26.4
		c-5.1,6.9-9.7,14.4-14.2,21.8c-5.2,8.5-9.5,17.6-14.1,26.6c-3.8,7.5-6.9,15.5-9.7,23.5c-4.1,11.5-7.4,23.3-9.7,35.4
		c-2.3,12.5-5.2,24.9-5,37.9c0.1,4.5-0.9,9.1-1,13.6c-0.5,21.6,1.4,42.9,5.7,64c3.3,16.6,8.2,32.5,14.4,47.9
		c3.2,7.9,7.2,15.2,11,22.7c3.8,7.6,8,14.7,12.4,21.7c4.1,6.4,8.1,12.7,12.8,18.5c5.2,6.4,9.9,13.5,15.5,19.2
		c4.2,4.3,8.1,8.9,12.5,12.9c6.6,6,13.7,11.4,20.2,17.5c4.1,3.9,8.4,7.5,12.9,10.6c11.7,8.1,23.7,15.8,36.4,21.6
		c3.1,1.4,6.1,3,9,4.8c2,1.2,4.1,0.9,6.5,0.9c-0.7-2.2-2-3.4-3.3-4.4c-12.5-10.5-24.3-22-35-34.9c-12.2-14.6-23.1-30.3-32.1-47.6
		c-3.5-6.8-6.6-14-9.8-21c-4.3-9.4-7.9-19.1-11-29.1c-3.8-12-6.4-24.3-8.3-36.8c-2.7-17.9-3.3-36.1-2.6-54.2
		c0.7-17.9,3.3-35.5,7.7-52.8c2.9-11.4,6.4-22.5,10.9-33.2c6.9-16.3,14.4-32.2,23.8-46.8c9.7-14.9,20.8-28.3,32.2-41.4
		c3.8-4.3,8-8.1,12.1-12c3.5-3.3,5.9-3,9.2,0.8c7.4,8.5,14.7,17,22.1,25.5c0.8,0.9,1.5,1.9,2.1,3c1.9,3.2,1.3,6-1.6,8.1
		c-9,6.5-17.3,14-25.1,22.2c-2.2,2.3-4.8,4.2-6.4,6.9c-4.4,7.5-9.9,14-14.3,21.5c-3.7,6.3-6.7,13-10.1,19.4
		c-2.9,5.4-5,11.4-7.1,17.3c-1.9,5.2-3,10.6-4.4,15.9c-1.8,6.8-2.2,13.7-2.9,20.6c-1.3,12.2-0.6,24.4,1.2,36.4
		c1.3,8.5,2.9,16.9,5.7,25.1c3.8,11.2,8.6,21.8,14.3,31.8c6.2,10.7,13.1,20.9,21.4,29.7c9.2,9.7,18.8,18.8,29.2,26.8
		c5.5,4.2,11.2,7.6,17,11.1c1.1,0.7,2.9,2.1,3.8,0.6c1-1.6-0.7-2.9-1.7-4.2c-7.9-10.1-17-19-23.5-30.5c-3.8-6.6-7.1-13.5-9.9-20.8
		c-3.1-8.1-5.5-16.4-7.8-24.8c-5.1-18.6-5.2-37.7-4.1-56.8c1-17.6,5.4-34.5,11.8-50.7c3.2-8,7-15.5,11.3-22.7
		c8.4-13.8,18.2-26.3,30.1-36.3c1.6-1.4,2.7-3.3,4.8-4.1c3.1-1.2,4.9-0.7,7.1,2.3c1.6,2,3.6,3.7,5.2,5.6c6.9,7.8,13.8,15.6,20.2,24
		c2.5,3.3,5.1,6.4,7.7,9.5c0.5,0.5,0.9,1.1,0.7,1.9c-1.8,0.3-2.7-1.2-3.9-2.3c-1.6-1.6-2.6-4-4.8-4.7c-0.2-1.5-1-2.3-2.2-2.6
		c0.1-0.9-0.4-1.4-0.8-1.9c-7.2-8.5-14.3-16.9-21.5-25.4c-0.6-0.7-1-1.5-2-1.4c-0.3-1.4-0.8-2.4-2.3-2.4c-2.4-1.4-4.5-0.1-6,3.6
		c-0.2,0.1-0.4,0.2-0.5,0.3c-1.2-0.3-1.6,0.4-1.7,1.6c-0.2,0.1-0.3,0.2-0.5,0.2c-0.5-0.2-0.9,0-1.2,0.4
		c-5.1,5.5-10.3,10.8-15.1,16.7c-0.4,0.5-1,1-0.6,1.9c-0.8,0.3-1.3,0.9-1.3,1.9c-1.3,0.2-2.1,1-2,2.6c-1.1,0.5-1.9,1.4-2.3,2.7
		c-0.9,0.1-1.2,0.7-1,1.7c-0.1,0.2-0.2,0.4-0.2,0.6c-0.7,0.1-1.1,0.4-0.9,1.3c-0.2,0.3-0.4,0.6-0.7,0.9c-0.9,0-1.3,0.8-1.7,1.4
		c-3.4,5.6-6.8,11.4-9.4,17.6c-5.4,12.9-10.1,26-12,40.2c-1,7.5-2.5,14.9-2.9,22.4c-0.9,18.1,1.6,35.8,5.8,53.1
		c3.3,13.7,8.6,26.5,15.3,38.5c4.1,7.4,8.7,14.4,14,20.7c3.8,4.5,7.4,9.1,11.8,12.9c3.2,2.8,6.1,6.3,9.3,9.2c1.1,1,1.7,2.4,0.9,3.9
		c-0.8,1.4-2.1,0.9-3.3,0.7c-0.4-0.1-0.7-0.3-1-0.5c-6.3-3.6-12.9-6.2-18.8-10.7c-2-1.5-4.4-2.5-6.6-3.7L251,558
		c-0.8-1.7-2.3-2.2-3.8-2.5c-0.2-0.2-0.4-0.5-0.7-0.7c-0.3-1.2-1-1.9-2.1-1.8l-0.1-0.1c-0.5-1.4-1.5-1.8-2.7-1.9l-0.1-0.1
		c-0.4-1.2-1-1.9-2.2-1.8l-0.1-0.1c-0.2-1-0.7-1.4-1.6-1.2l-0.1-0.1c-0.4-1.2-1-1.9-2.2-1.8l-0.1-0.1c-0.9-2.1-2.4-3.2-4.3-3.8
		l-0.1-0.1c-0.3-0.5-0.5-1.1-0.9-1.5c-4.1-4.2-8.5-8-12.2-12.7c-0.3-0.4-0.8-0.5-1.3-0.4c-2.3-3.3-4.9-6.4-7.9-9
		c0.1-1.7-1-2.5-2.1-3.1l-0.1-0.1c-0.2-2.3-1.7-3.3-3.2-4.4l-0.1-0.1c-0.7-2.4-1.8-4.4-3.8-5.7l-0.1-0.1c0.1-1.4-0.7-2.3-1.3-3.3
		c-6.2-9.4-10.6-20-14.7-30.7c-2.3-6.1-4-12.4-5.7-18.8c-2.6-9.8-3.7-19.8-4.6-29.8c-1-12,0.8-23.9,2.4-35.7
		c0.6-4.3,2.4-8.2,2.8-12.5c0.1-0.4,0.1-0.8,0.2-1.3c0.6-0.3,0.6-0.7,0.4-1.3c0-0.4,0.1-0.8,0.1-1.3c0.9-0.5,0.8-1.6,1.1-2.4
		c2.7-6.9,5.1-14,8.1-20.7c7.7-17.2,17.9-32.1,30-45.4c0.6-0.6,1.4-1.1,1.2-2.3l0,0c1.8-0.4,2.9-1.7,3.4-3.7
		c6-6.7,12.8-12.3,19.9-17.3c0.9-0.6,1.7-1.6,2.5-2.4c2.1-1.8,1.7-3.9,0.2-5.7c-3.6-4.2-7.3-8.2-11-12.3c-3.6-4.5-7.2-9-10.9-13.4
		c-0.7-0.8-1.2-2-2.4-2c-3.7-2.2-5.7,1.4-8.1,3.4c-3.1,2.5-5.4,5.8-8,8.9c-0.3,0-0.6-0.1-0.8,0.1c-4.4,5-9.1,9.7-13,15.2
		c-4.9,5.5-9.5,11.3-13.6,17.4c-4.3,6.3-8.2,12.9-11.9,19.7c-3.7,6.7-7.6,13.3-10.9,20.4c-2.3,5-3.9,10.4-6.3,15.3
		c-2.3,4.8-3.7,10-5.5,15.1c-0.6,0.3-1.4,0.5-0.4,1.4c-0.2,0.8-0.5,1.6-0.7,2.4c-0.6,0.3-1.4,0.6-0.4,1.4c-0.1,0.4-0.2,0.8-0.2,1.2
		c-1.1,0.2-1,1.4-1.3,2.2c-1,3.5-1.9,7.1-2.7,10.7c-3.6,15.5-6.4,31.1-6.8,47.2c-0.6,23.6-0.5,47.1,4.8,70.1
		c1.9,8.3,3.5,16.7,6,24.8c0.4,1.2,0.3,2.8,1.8,3.4c0.9,2,1.4,4.1,1.8,6.3c-0.3,3.5,1.3,6,3.2,8.3c0.4,1.2,0.8,2.5,1.2,3.7
		c0,2.3,1.2,3.9,2.7,5.2c0.3,0.8,0.6,1.6,0.9,2.4c-0.3,0.9,0.1,1.3,0.8,1.5c1.5,2.1,2.3,4.6,3.4,6.9c0.1,1.6,0.6,2.9,2.1,3.4
		c0.6,1.4,1.2,2.8,1.8,4.2c-0.1,0.9,0.3,1.3,1,1.4c0,0.2,0,0.3,0.1,0.5c1.2,3.1,2.4,6.3,4.9,8.4c0,0.2,0,0.3,0.1,0.5
		c-0.1,0.9,0.3,1.3,1,1.5c0,0.2,0,0.3,0.1,0.5c-0.1,0.9,0.3,1.3,1,1.5c0,0.2,0,0.3,0.1,0.4c-0.1,1.3,0.6,1.9,1.6,2.1
		c0,0.2,0,0.3,0.1,0.5c-0.1,0.9,0.3,1.3,1,1.4c0,0.2,0,0.3,0.1,0.5c0.4,1.9,1.2,3.5,2.7,4.5l0,0c-0.1,0.9,0.3,1.3,1,1.4
		c0,0.5,0.1,0.9,0.6,1.1c-0.1,0.9,0.3,1.3,1.1,1.4c0.2,0.4,0.4,0.7,0.6,1.1c0,1.3,0.7,2.1,1.7,2.5c0.3,0.5,0.7,0.9,1,1.4
		c0,0.9,0.3,1.6,1.2,1.8c0.6,1.4,1.6,2.4,2.7,3.3c0.1,1.3,0.7,2.1,1.8,2.4c2.9,3.9,5.9,7.7,9.3,11c1.5,3.8,4.7,6,7,8.9
		c1,1.2,1.8,3,3.5,3.2c0.6,1.2,1.4,2.3,2.6,2.6c0.1,0.8,0.5,1.3,1.2,1.2c0.3,0.8,0.8,1.2,1.5,1.3c0.3,1.4,1,2.4,2.4,2.5
		c0.6,0.7,1,1.9,2.1,2c0.1,0.8,0.5,1.3,1.2,1.2c0.3,0.2,0.7,0.5,1,0.7c0.1,0.9,0.5,1.3,1.2,1.2c0.1,0.1,0.2,0.2,0.4,0.1
		c0.2,1.1,0.8,1.8,1.9,1.8c0.2,0.5,0.5,0.7,1,0.7c0.2,1.2,0.7,1.9,1.8,1.8c0.1,0.1,0.3,0.2,0.4,0.1c0.1,0.8,0.5,1.3,1.2,1.2
		c0.1,0.1,0.2,0.2,0.4,0.1c0.9,2.3,2.6,3.2,4.6,3.8c0.1,0.1,0.2,0.1,0.4,0.1c0.2,1.1,0.7,1.9,1.8,1.8c0.3,0.2,0.6,0.5,1,0.7
		c0.1,1.3,0.9,1.8,1.7,2.2c0.9,0.5,1.7,1.3,2.4,2.1c0.8,0.9,1.2,1.9,0.8,3.1c-0.4,1.2-1.4,0.8-2.2,0.8c-2-0.1-4-0.3-6-0.5
		c-1.5-1.2-3.1-1.9-4.9-2c-0.2-0.4-0.3-0.9-0.5-1c-7.5-2.9-14.6-7.1-21.8-10.8c-6.1-3.2-12.1-6.9-17.7-11.5
		c-4.1-3.3-8.6-6.1-12.8-9.2c-10.3-7.6-20.2-16-29.5-25c-10.2-9.8-19.6-20.6-28.1-32.3c-6.6-9.1-13.2-18.2-19.7-27.4
		c-1.6-2.2-2.7-4.7-3.8-7.3c-2.9-6.7-6.8-12.8-9.7-19.6c-3.6-8.7-7.5-17.2-10.5-26.2c-2.5-7.6-5-15.2-6.8-23.1
		c-2.5-10.8-4.5-21.8-5.9-32.9c-0.4-3-0.6-6.1-0.6-9.2c-0.1-9.9-0.9-19.7-0.7-29.6c0.4-23.3,3.3-46.1,9.6-68.4
		c2.6-9.1,5.5-18,9-26.6c5.8-14.5,12.3-28.7,20-42c6-10.4,13-20,20.4-29.2c4.4-5.5,8.8-11.1,13.4-16.5c8.4-9.9,18.1-17.9,27.3-26.7
		c1.6-1.5,3.3-3,4.9-4.7c1.8-1.8,1.7-3.8,0.1-5.8c-4.5-5.3-8.8-10.9-13.2-16.2c-9-10.7-17.2-22.2-26.6-32.4
		c-2.3-2.5-4.5-2.9-7.5-2.5c-8.2,1.1-16.3,3.1-24.4,4.7c-1.8,0.4-4.5,1.3-5.4-1.5c-0.8-2.5,1.7-3.4,3.1-4.6
		c6.5-5.7,13.6-10.5,20.4-15.8C110.2,105.1,111.2,104.1,112.3,105.4z"/>
	<path class="st2" d="M306.9,306.3c-2.4-0.9-2.9-3.4-3.2-5.7c-0.2-2.2,1.2-3.6,2.9-4.5c15-7.5,30.5-12.6,46.8-15
		c11.9-1.7,23.7-1.3,35.6-0.9c7.6,0.3,15.2,2.4,22.8,4.3c10.5,2.6,20.5,6.8,30.3,11.7c6.2,3.1,12,7.4,17.7,11.6
		c4.7,3.4,9.1,7.1,13.5,10.9c6.8,6,12.8,13.1,18.6,20.4c5.7,7.1,10.6,14.9,15,23.1c6.2,11.8,10.5,24.4,14,37.6
		c3,11.3,4.3,22.8,5.5,34.3c0.9,9,0.3,18.2-1,27.3c-1.4,9.9-3,19.8-5.7,29.4c-1.7,6.3-4.1,12.5-6.5,18.6c-5,12.8-11.5,24.6-20,34.9
		c-3.8,4.6-7.4,9.4-11.1,14.1c-0.6,0.8-1.6,1.8-1.1,2.7c0.7,1.1,1.8,0,2.7-0.4c10.4-5.5,19.6-13.4,28.2-21.8
		c11.4-11.1,22.3-22.6,30.7-37.2c5.1-8.8,10-17.7,14.1-27.2c3.8-8.9,6.6-18.4,8.1-28.2c1.8-11,3.8-22.2,3-33.4
		c-0.8-12.2-1.3-24.5-4.9-36.2c-1.7-5.4-3-11.1-4.8-16.5c-2.5-7.4-5.9-14.4-9.5-21.1c-6.6-12.3-14.1-23.9-23.1-33.9
		c-5.9-6.5-12.2-12.5-18.9-18.1c-10.6-9-21.7-17.2-33.7-23.5c-14.1-7.4-28.7-13-43.8-17.1c-10.5-2.9-21.1-4.6-31.7-6.6
		c-4-0.8-8.1-0.9-12.1-1c-8.5-0.1-17-0.1-25.4,0c-9.5,0.1-18.9,1.6-28.2,3.5c-13.2,2.7-26.3,6-39,11.3c-3.6,1.5-7.2,3.1-10.8,4.7
		c-5.7,2.6-7.7,2.2-11.5-3.3c-5.4-7.8-10.7-15.8-15.9-23.8c-1.6-2.5-3.9-4.1-5.4-6.7c-3.5-5.7-2.7-8.8,1.6-11.6
		c10.7-7,21.8-13.2,33.1-18.9c3.7-1.9,7.4-3.7,11-5.8c3-1.7,4.6-4,4.4-8.2c-0.3-7.9-0.5-15.8,0-23.6c0.6-9.1,0.2-18.3,0.4-27.4
		c0.1-4.6-1-6-5-5.7c-3,0.2-6,0.7-9,1.4c-10.8,2.8-21.7,5.5-32.4,8.8c-6.5,2-12.7,5.1-19.1,7.4c-5.5,2-10.7,5-16.2,7
		c-3.4,1.3-6.7,3.4-9.9,5.5c-3.3,2.1-6.3,1.4-8.5-2c-4.3-6.5-8.6-12.9-13.1-19.2c-4.9-6.8-9.7-13.8-14.5-20.7
		c-6.5-9.3-12.9-18.7-19.1-28.2c-2.2-3.4-4.2-4-7.4-1.8c-7.6,5.1-15.4,9.8-22.5,15.8c-1.1,0.9-2.3,1.8-3.5,2.4
		c-0.5-1.5,0.3-2.4,1.3-3.2c4.3-3.4,8.7-6.7,13.3-9.7c3.6-2.3,7-4.9,10.4-7.7c3.8-3,6.6-2.6,9.5,1.5c4.4,6.3,8.6,12.8,13,19.2
		c6.6,9.8,13.7,19.2,20.2,29.1c4.3,6.6,9.3,12.5,13.6,19c2.4,3.6,4.6,4.2,9,2c3.5-1.7,7-3.7,10.4-5.8c6.6-4,13.8-6.2,20.8-9.2
		c14.3-6.1,29.2-9.9,44.2-13.1c3.4-0.7,6.9-1.2,10.3-1.9c3.8-0.8,6.8,2.1,6.8,6.5c0,8.2,0.6,16.4-0.1,24.5
		c-0.9,9.5-0.1,18.9-0.5,28.4c-0.2,6.4-2.7,9.8-9.5,12.6c-1.4,0.6-3.2,0.6-3.6,2.9c-0.3,0.1-0.5,0.1-0.8,0.2c-0.7,0-1.2,0.4-1.3,1.3
		l-0.1-0.1h-0.2c-0.9-0.8-1.1,0-1.3,0.8c-3.6,1.9-7.3,3.8-10.9,5.7c-1-0.1-1.8,0.3-2.6,0.7c-5.9,2.4-11.1,6.5-16.7,9.7
		c-7.5,4.2-6.6,5.8-2,12.3c6.3,8.8,12.2,17.9,18.5,26.6c3.5,4.8,4.1,7,11.2,3.3c4.6-2.4,9.6-4,14.5-5.8c10.6-3.9,21.4-6.6,32.3-8.7
		c8.5-1.7,16.9-3.9,25.6-3.5c0.8,0,1.7,0.3,2.2-0.8c0.4,0,0.8,0,1.1,0c2,0.6,4,0.3,6,0.2c7.8-0.1,15.6,0.4,23.4-0.2
		c0.4,0,0.8,0,1.1,0c0.8,1.3,2,0.8,3,0.8c4.6-0.3,9.2,0.7,13.7,1.6c10.1,1.9,20.1,3.9,30,6.9c13.4,4,26.4,9.2,39,16
		c7.5,4.1,14.5,9,21.4,14.2c2.2,1.7,4.4,3.8,7.3,4.1c0.1,0.1,0.2,0.2,0.4,0.1c0.5,2,1.8,2.8,3.5,3.1c0.1,0.1,0.2,0.2,0.4,0.1
		c0.6,1.9,1.8,2.8,3.5,3.1l0,0c0.8,2,2.6,3,4,4.2c2,1.7,3.3,4.5,5.9,5.4c0.4,0.4,0.8,0.8,1.2,1.2c0.9,1.8,1.9,3.4,3.8,3.9
		c1.6,2.4,3.4,4.5,5.5,6.4c0.3,1.8,1.3,2.8,2.7,3.3c0.3,0.7,0.5,1.4,1.2,1.8c0.4,2.2,1.8,3.3,3.3,4.4c0.2,0.2,0.4,0.5,0.6,0.7
		c0.2,1.9,1.2,2.8,2.6,3.4c0,0.2,0,0.3,0.1,0.4c-0.1,0.7,0.2,1.2,0.5,1.7c5.4,8.5,10.5,17.3,14.1,27c0.3,0.7,0.6,1.3,1.3,1.4
		c0,0.2,0,0.3,0.1,0.5c0.7,2.2,1.4,4.5,2.2,6.7c0.5,1.4,0.6,3.1,2.2,3.7c0.1,0.4,0.1,0.7,0.2,1.1c-0.2,1.1,0.2,1.9,0.9,2.6
		c0,0.4,0.1,0.8,0.1,1.2c-0.2,1.9,0.6,3.5,1.2,5.2c2.6,7.8,4.2,15.8,5,24.2c0.3,3.2-0.4,6.5,1,9.6c0.1,1.7,0.1,3.4,0.2,5.1
		c-0.3,0.9-0.5,1.9,0.3,2.6c0,1.1,0,2.1,0,3.2c-0.7,0.5-0.6,1.2-0.3,2c-0.1,1.7-0.1,3.4-0.2,5c-0.9,0.7-0.6,1.7-0.6,2.6
		c0,5.6-1,11.1-1.9,16.6c-0.9,5.6-2.5,11-3.6,16.5c-2.4,9.9-6.7,18.9-10.6,28c-3.4,4.6-6,9.8-8.4,15.2
		c-6.6,11.4-15.2,20.6-23.6,30.1c-2.4,0.6-3.5,2.8-4.7,4.8c-8,7.5-16.5,14.3-25.2,20.7c-0.9-0.3-1.4,0.2-1.7,1.2l0,0
		c-1.6,0.3-3,1-4,2.5c-0.5,0.4-1.3,0.5-1.5,1.3c-2.7,1.2-5.4,2.5-8.1,3.6c-1,0.4-2.5,0.9-3.2-0.5c-0.6-1.2,0.3-2.4,1-3.4
		c1.4-2,2.9-4,4.4-6c0.4-0.4,0.7-0.8,1.1-1.2c0.7,0,1.1-0.4,1.3-1.2c2.7-1.9,4.9-4.5,6.5-7.6c0.7-0.1,1.1-0.6,1.1-1.4
		c1.3-1.3,2.6-2.5,3.3-4.3c1.2-0.4,2-1.2,2.2-2.7c0.4-0.2,0.6-0.6,0.6-1.1c0.7-0.2,1.1-0.6,1-1.5c0.1-0.1,0.1-0.3,0.1-0.4
		c1-0.3,1.6-0.9,1.6-2.1l0,0c0.8-0.2,1.2-1,1.6-1.7c5.6-9.7,10.8-19.5,14.5-30.4c1.5-4.4,3.3-8.7,4.3-13.3c0.1-0.7,0.1-1.5,0.2-2.2
		c0.9-0.4,1.1-1.2,0.8-2.3c0-0.4,0.1-0.8,0.1-1.2c1-3.4,2.4-6.6,2.7-10.2c0-0.4,0.1-0.8,0.1-1.2c0.7-0.5,0.6-1.2,0.4-2
		c0.1-0.8,0.1-1.7,0.2-2.5c0.9-1,0.6-2.1,0.4-3.2c0.1-1.3,0.1-2.5,0.2-3.8c1-1.6,0.5-3.4,0.5-5.1c0-0.4,0-0.8,0.1-1.3
		c1.2-2.5,0.6-5.1,0.5-7.7c0-0.4,0-0.8,0-1.3c1.1-4.3,0.2-8.5-0.6-12.8c0-0.4,0-0.8,0-1.3c0.1-1.9,0.6-3.9-0.5-5.8
		c-0.1-1-0.1-2.1-0.2-3.1c0.2-1.1,0.5-2.3-0.4-3.2c-0.1-1-0.1-2.1-0.2-3.1c0.2-0.6,0.2-1-0.3-1.3c0-0.4-0.1-0.8-0.1-1.2
		c-0.2-3.6-1.5-6.9-2.6-10.2c-0.1-0.6-0.1-1.2-0.2-1.9c-0.5-5-2.2-9.5-4.7-13.6c-0.2-1.3-0.5-2.5-1.2-3.6c-0.8-3.8-1.4-7.8-4.4-10.4
		c0-0.5,0-0.9-0.5-1.2c0-0.5-0.1-1-0.6-1.2c-0.2-0.4-0.4-0.9-0.6-1.3c-0.6-4-2.8-7-4.5-10.3c-0.6-1.3-1.2-2.9-2.8-3.2
		c-3.2-6.4-7.3-11.8-11.7-17c-0.1-0.5-0.1-1.1-0.4-1.4c-2.5-2.9-5-5.8-7.6-8.7c-0.6-0.6-1.2-0.9-2-0.7c-1.6-1.7-3.2-3.4-4.8-5.1
		c-0.3-1.8-1.3-2.6-2.8-2.6l0,0c-0.2-1.5-0.8-2.5-2.3-2.5c-2.3-2.8-5.1-4.9-8-6.9c-3.6-2.5-6.8-5.6-10.8-7.1
		c-1.4-2.7-4.1-3.6-6.3-4.7c-9.8-4.7-19.6-9.7-30.2-11.9c-5.9-1.2-11.6-3.3-17.5-4.4c-10.1-1.9-20.2-1.1-30.3-1.1
		c-4.7,0-9.6,0.6-14.2,1.6c-13.5,2.7-26.7,6.6-39.5,12.5c-5.3,2.5-5.9,3.7-4.1,9.9C307,305.9,306.9,306.1,306.9,306.3z"/>
	<path class="st2" d="M113.3,104.4c0,0.5-0.3,0.6-0.6,0.6c-0.3-0.4-0.6-0.8-0.1-1.2C113,103.6,113.1,104.1,113.3,104.4z"/>
	<path class="st0" d="M251.5,558.5c2.2,1.2,4.6,2.2,6.6,3.7c5.9,4.5,12.5,7.1,18.8,10.7c0.3,0.2,0.7,0.4,1,0.5
		c1.2,0.2,2.5,0.8,3.3-0.7s0.2-2.9-0.9-3.9c-3.2-2.9-6.1-6.4-9.3-9.2c-4.4-3.8-8-8.5-11.8-12.9c-5.3-6.3-9.9-13.3-14-20.7
		c-6.6-12-11.9-24.8-15.3-38.5c-4.2-17.3-6.7-35-5.8-53.1c0.4-7.6,1.9-15,2.9-22.4c1.9-14.2,6.6-27.4,12-40.2
		c2.6-6.2,5.9-11.9,9.4-17.6c0.4-0.7,0.8-1.5,1.7-1.4c-0.3,2.4-1.8,4.1-2.9,6c-6,10.7-10.8,22-14.4,33.9c-2.6,8.6-5,17.5-5.5,26.8
		c-0.2,4.1-1.4,8-1.7,12.2c-0.6,7.2-0.6,14.3,0,21.5c0.7,8,1.8,15.9,3.2,23.8c1.6,8.9,5.3,17.1,8.2,25.5
		c3.4,10.2,8.6,19.3,13.2,28.8c0.7,1.5,1.3,3.4,3.2,3.7c0,0.9,0.4,1.5,1.1,1.9c0.5,1.7,1.3,3.1,2.8,3.8c-0.1,1.3,0.5,2.2,1.3,3
		c4.9,5.6,9.6,11.4,14.9,16.5c2.6,2.5,5.5,4.5,8.3,6.7c3.3,2.7,4.6,5.8,3.4,8.1c-1.1,2.3-3.5,3-7.5,0.9c-6.7-3.6-13.6-6.9-19.7-11.7
		c-1.2-1-2.6-1.5-3.9-2.4C252.9,560.8,251.5,560.4,251.5,558.5z"/>
	<path class="st0" d="M143.6,523.4c-1.4-0.5-1.4-2.2-1.8-3.4c-2.5-8.1-4-16.5-6-24.8c-5.3-23.1-5.4-46.6-4.8-70.1
		c0.4-16.1,3.2-31.7,6.8-47.2c0.8-3.6,1.8-7.1,2.7-10.7c0.2-0.8,0.1-2,1.3-2.2c1.3,0.9,0.3,2,0,2.8c-4,14-6.6,28.4-8.5,42.9
		c-1.8,14.1-1.6,28.3-1.3,42.6c0.3,14.6,2.4,29,5.5,43.2c1.5,7.1,2.7,14.3,5,21.1C143.3,519.3,143.3,521.4,143.6,523.4z"/>
	<path class="st0" d="M178.9,374.6c-0.4,4.3-2.2,8.2-2.8,12.5c-1.6,11.8-3.4,23.7-2.4,35.7c0.9,10,2,20,4.6,29.8
		c1.7,6.4,3.4,12.7,5.7,18.8c4.1,10.7,8.5,21.3,14.7,30.7c0.7,1,1.5,1.9,1.3,3.3c-1.7-0.5-2.3-2.4-3.1-3.8
		c-4.2-7.2-7.8-14.7-11-22.7c-2-5.2-4.5-10.3-6-15.6c-1.9-7-4.4-13.8-5.3-21.2c-1.3-10.6-2.5-21.1-2.3-31.9
		c0.2-7.6,1.8-14.8,2.6-22.2c0.4-3.9,1.1-7.7,2.5-11.3C177.8,375.9,177.9,374.8,178.9,374.6z"/>
	<path class="st0" d="M220,299.9c0.2,1.2-0.6,1.7-1.2,2.3c-12.2,13.2-22.4,28.2-30,45.4c-3,6.7-5.4,13.8-8.1,20.7
		c-0.3,0.8-0.2,2-1.1,2.4c-0.7-0.8-0.3-1.6,0-2.3c1.9-4.5,3.4-9.3,5.4-13.9c2.5-5.9,4.8-11.9,7.7-17.5c4.3-8.2,9-16.2,14.9-23.1
		c3.2-3.7,5.7-8,9-11.6C217.5,301.3,218.5,300.2,220,299.9z"/>
	<path class="st0" d="M231.6,661.1c2,0.2,4,0.4,6,0.5c0.8,0,1.8,0.4,2.2-0.8s0-2.2-0.8-3.1c-0.7-0.8-1.5-1.6-2.4-2.1
		c-0.8-0.4-1.7-0.9-1.7-2.2c3.3,1.3,6.3,3.2,8,7c1,2.4,0.4,4-1.8,3.6C237.8,663.7,234.2,664.2,231.6,661.1z"/>
	<path class="st0" d="M217.2,527.9c0.5-0.2,0.9-0.1,1.3,0.4c3.7,4.7,8.1,8.5,12.2,12.7c0.4,0.4,0.6,1,0.9,1.5
		c-2.9-0.7-4.5-3.4-6.6-5.3C222,534.5,219.2,531.7,217.2,527.9z"/>
	<path class="st0" d="M221.8,243.1c1.2,0,1.7,1.2,2.4,2c3.6,4.5,7.2,9,10.9,13.4c-0.6,0.1-1.3,0.1-1.8-0.5c-4-4.5-8-8.9-11.4-14
		C221.7,243.8,221.8,243.4,221.8,243.1z"/>
	<path class="st0" d="M191.9,270.7c3.9-5.6,8.5-10.3,13-15.2c0.2-0.2,0.5-0.1,0.8-0.1c0.1,1.2-0.7,1.9-1.4,2.6
		c-3.2,3.7-6.4,7.4-9.6,11.1C193.9,269.9,193.2,270.9,191.9,270.7z"/>
	<path class="st0" d="M206.8,628.5c-1.8-0.2-2.5-1.9-3.5-3.2c-2.3-3-5.5-5.1-7-8.9c1.2-0.1,1.8,0.9,2.4,1.8
		C201.3,621.7,204.9,624.1,206.8,628.5z"/>
	<path class="st0" d="M167.4,575.7c-2.5-2.1-3.7-5.3-4.9-8.4C165.4,569.1,166.4,572.4,167.4,575.7z"/>
	<path class="st0" d="M148.6,538c-1.9-2.4-3.5-4.9-3.2-8.3C146.6,532.4,148.1,535,148.6,538z"/>
	<path class="st0" d="M200,505.5c2,1.3,3.1,3.3,3.8,5.7C201.7,510.1,200.3,508.3,200,505.5z"/>
	<path class="st0" d="M231.7,650.8c-1.9-0.6-3.7-1.4-4.6-3.8C229,647.7,230.8,648.5,231.7,650.8z"/>
	<path class="st0" d="M231.6,542.5c1.9,0.6,3.5,1.7,4.3,3.8C233.9,545.9,232.5,544.6,231.6,542.5z"/>
	<path class="st0" d="M203.9,511.3c1.5,1,3,2.1,3.2,4.4C205.5,514.8,204.1,513.6,203.9,511.3z"/>
	<path class="st0" d="M152.5,546.9c-1.5-1.3-2.6-2.9-2.7-5.2C151.2,543.2,152.3,544.7,152.5,546.9z"/>
	<path class="st0" d="M223.4,296.2c-0.5,2-1.5,3.3-3.4,3.7C220.6,298,221.6,296.6,223.4,296.2z"/>
	<path class="st0" d="M175.2,588.9c-1.6-0.9-2.3-2.6-2.7-4.5C174.5,585.1,175.1,586.9,175.2,588.9z"/>
	<path class="st0" d="M247.7,555.9c1.5,0.3,3,0.8,3.8,2.5C249.9,558.1,248.4,557.8,247.7,555.9z"/>
	<path class="st0" d="M207.2,515.8c1.2,0.6,2.2,1.3,2.1,3.1C207.9,518.5,207.3,517.4,207.2,515.8z"/>
	<path class="st0" d="M159.6,561.1c-1.5-0.5-2-1.8-2.1-3.4C158.9,558.3,159.7,559.4,159.6,561.1z"/>
	<path class="st0" d="M214.5,636.2c-1.3-0.1-2-1.1-2.4-2.5C213.6,633.6,214.4,634.6,214.5,636.2z"/>
	<path class="st0" d="M242.1,551.5c1.2,0.1,2.2,0.4,2.7,1.9C243.7,553.2,242.5,553,242.1,551.5z"/>
	<path class="st0" d="M239.9,549.6c1.2-0.1,1.8,0.7,2.2,1.8C240.9,551.4,240.1,551,239.9,549.6z"/>
	<path class="st0" d="M180.2,596.5c-1-0.4-1.7-1.2-1.7-2.5C180,594.1,180.3,595.2,180.2,596.5z"/>
	<path class="st0" d="M236,546.4c1.2-0.1,1.8,0.7,2.2,1.8C237.1,548.2,236.2,547.8,236,546.4z"/>
	<path class="st0" d="M186.9,605.4c-1.1-0.3-1.7-1.1-1.8-2.4C186.6,603,186.9,604,186.9,605.4z"/>
	<path class="st0" d="M244.9,553.4c1.2-0.1,1.8,0.6,2.1,1.8C245.9,555.2,245.1,554.8,244.9,553.4z"/>
	<path class="st0" d="M222.3,643.2c-1.1,0.1-1.6-0.7-1.9-1.8C221.6,641.2,222.2,641.8,222.3,643.2z"/>
	<path class="st0" d="M225,645.7c-1.1,0.1-1.6-0.6-1.8-1.8C224.4,643.7,225,644.4,225,645.7z"/>
	<path class="st0" d="M233.9,652.7c-1.1,0.1-1.6-0.7-1.8-1.8C233.2,650.7,233.8,651.4,233.9,652.7z"/>
	<path class="st0" d="M171.3,582.1c-1-0.2-1.6-0.8-1.6-2.1C170.9,580.1,171.4,580.7,171.3,582.1z"/>
	<path class="st0" d="M182.5,599.7c-0.9-0.2-1.2-0.8-1.2-1.8C182.4,597.8,182.5,598.7,182.5,599.7z"/>
	<path class="st0" d="M238.2,548.3c0.8-0.1,1.4,0.2,1.6,1.2C239.1,549.5,238.3,549.4,238.2,548.3z"/>
	<path class="st0" d="M179.4,372c0.3,0.6,0.2,1-0.4,1.3C178.3,372.6,178.7,372.3,179.4,372z"/>
	<path class="st0" d="M226.7,647c-0.8,0.1-1.1-0.3-1.2-1.2C226.2,645.7,226.7,646,226.7,647z"/>
	<path class="st0" d="M220,641.3c-0.8,0.1-1.2-0.3-1.2-1.2C219.6,639.9,220,640.3,220,641.3z"/>
	<path class="st0" d="M217.8,639.4c-0.8,0.1-1.1-0.4-1.2-1.2C217.4,638,217.8,638.4,217.8,639.4z"/>
	<path class="st0" d="M210.6,632.4c-0.8,0-1.1-0.4-1.2-1.2C210.2,631,210.6,631.4,210.6,632.4z"/>
	<path class="st0" d="M142.1,363.7c-1-0.9-0.2-1.1,0.4-1.4C142.6,362.9,142.7,363.4,142.1,363.7z"/>
	<path class="st0" d="M177.9,593c-0.7-0.1-1.1-0.6-1.1-1.4C177.7,591.5,178,592,177.9,593z"/>
	<path class="st0" d="M176.3,590.4c-0.7-0.1-1.1-0.5-1-1.4C176.1,589,176.4,589.5,176.3,590.4z"/>
	<path class="st0" d="M154.1,550.8c-0.7-0.2-1.1-0.6-0.8-1.5C154.1,549.5,154.3,550,154.1,550.8z"/>
	<path class="st0" d="M172.4,584c-0.7-0.1-1.1-0.5-1-1.4C172.2,582.6,172.5,583.1,172.4,584z"/>
	<path class="st0" d="M169.6,579.6c-0.7-0.1-1.1-0.6-1-1.5C169.4,578.1,169.8,578.6,169.6,579.6z"/>
	<path class="st0" d="M168.5,577.6c-0.7-0.1-1.1-0.6-1-1.5C168.4,576.2,168.7,576.7,168.5,577.6z"/>
	<path class="st0" d="M143.2,359.9c-0.9-0.9-0.2-1.1,0.4-1.4C143.7,359.1,143.7,359.6,143.2,359.9z"/>
	<path class="st0" d="M162.4,566.8c-0.7-0.1-1.1-0.5-1-1.4C162.2,565.4,162.6,565.9,162.4,566.8z"/>
	<path class="st0" d="M306.9,306.3c0-0.2,0.1-0.4,0.1-0.6c-1.8-6.2-1.1-7.4,4.1-9.9c12.7-5.9,26-9.9,39.5-12.5
		c4.7-0.9,9.5-1.5,14.2-1.6c10.1,0,20.2-0.7,30.3,1.1c5.9,1.1,11.6,3.1,17.5,4.4c10.6,2.2,20.3,7.2,30.2,11.9
		c2.2,1.1,4.9,1.9,6.3,4.7c-1.8,0-3.4-1-4.9-1.9c-9.9-5.5-20-10.2-30.8-12.8c-9.4-2.3-18.7-5.7-28.4-5.6c-14.1,0.3-28.3-1-42.3,3.6
		c-7.4,2.5-15,3.9-22.2,7.1c-2.9,1.3-5.8,2.5-8.7,3.8c-4.2,1.8-4.8,3.6-2,7.7c4.4,6.4,8.4,13.3,13.2,19.5
		c8.2,10.8,15.7,22.2,23.4,33.6c5.8,8.6,12.1,16.7,17.7,25.4c5.6,8.7,12.2,16.6,17.6,25.4c7.4,12.1,15.9,23.1,24,34.6
		c6,8.4,11.6,17.1,17,26.1c2.5,4.1,5.8,7.6,7.5,12.4c0.3,0.8,1.1,1.7,0.2,2.6c-0.8,0.8-1.6,0.2-2.3-0.2c-4.2-2.2-7.1-6.2-10.3-9.8
		c-0.9-1.1-1.6-2.3-2.5-3.3c-7.4-8.8-15-17.5-22.3-26.5c-3-3.7-6.1-7.4-9.1-11.1c-0.5-0.6-1.1-1.2-1-2.1c1.3-0.1,1.9,1.3,2.6,2.1
		c12.1,13.9,23.3,29,36,42.2c0.7,0.8,1.5,2.5,2.7,1.1c0.9-1.1,0.1-2.5-0.6-3.4c-1.9-2.2-3.2-4.9-4.8-7.3
		c-8.4-13.1-17.4-25.7-26.1-38.6c-9.5-14.2-19.4-27.9-29-42c-4.3-6.3-8.8-12.5-13.2-18.7c-5-7-9.7-14.4-14.6-21.5
		c-8.6-12.4-17.2-24.8-25.8-37.2c-0.6-0.9-1-2.1-2.3-1.8C307.2,306.8,307.1,306.6,306.9,306.3z"/>
	<path class="st2" d="M307.4,307c1.3-0.4,1.7,0.9,2.3,1.8c8.6,12.4,17.3,24.8,25.8,37.2c4.9,7.1,9.6,14.5,14.6,21.5
		c4.4,6.2,8.9,12.4,13.2,18.7c9.6,14,19.5,27.8,29,42c8.6,12.9,17.7,25.4,26.1,38.6c1.6,2.5,3,5.1,4.8,7.3c0.7,0.9,1.5,2.4,0.6,3.4
		c-1.2,1.4-1.9-0.4-2.7-1.1c-12.7-13.2-23.9-28.2-36-42.2c-0.7-0.9-1.3-2.2-2.6-2.1c-0.3-1.6-1.2-2.5-2.5-3.1c0.1-0.6-0.2-1-0.6-1.3
		c-7.9-9.3-15.8-18.7-23.7-28c-0.4-0.5-0.8-1.3-1.6-1.1c-1.5-2.7-3.4-4.8-5.7-6.6c0.4-1.2-0.5-1.7-1-2.4
		c-6.8-7.9-13.5-15.7-20.3-23.6c-0.3-0.4-0.6-0.8-1.2-0.7c-1.1-2.2-2.7-3.9-4.5-5.3c0.1-0.9,0.2-1.8,0.3-2.7
		c5.6,4.1,10.1,9.8,14.7,15.2c3.6,4.3,6.8,8.9,10.4,13.1c9.9,11.6,20,22.9,29.7,34.6c3.5,4.2,6.6,8.9,10.2,12.8
		c4.5,4.9,8.5,10.5,13.5,14.8c0.4,0.3,0.8,0.8,1.2,0.5c0.7-0.6,0.2-1.3-0.2-1.9c-2.8-4.8-5.6-9.5-8.5-14.3
		c-7.9-12.8-17.2-24.3-25.3-36.9c-7.8-12.1-16.5-23.5-24.8-35.3c-5.5-7.8-10.8-15.8-16.2-23.7c-6.1-9-12.3-17.9-18.5-26.9
		C307.9,308.6,307.1,308.1,307.4,307z"/>
	<path class="st0" d="M356.6,236.6c-0.5,1.1-1.5,0.8-2.2,0.8c-8.7-0.4-17.1,1.9-25.6,3.5c-10.9,2.1-21.7,4.9-32.3,8.7
		c-4.9,1.8-9.9,3.4-14.5,5.8c-7,3.7-7.6,1.5-11.2-3.3c-6.4-8.7-12.3-17.8-18.5-26.6c-4.7-6.6-5.5-8.1,2-12.3
		c5.6-3.2,10.8-7.3,16.7-9.7c0.9-0.4,1.7-0.8,2.6-0.7c0.1,1.6-1.1,1.8-2,2.2c-6.6,3.3-12.5,7.9-19,11.4c-1.9,1-2.3,2.8-1.1,4.7
		c3.4,5.3,6.6,10.6,10.3,15.6c3.6,4.9,7.3,9.8,10.7,14.9c2.5,3.8,4.4,4.3,8.4,2.6c8.8-3.9,17.6-7.8,26.9-10.2
		c10.7-2.7,21.4-5.4,32.3-7.2C345.6,236.1,351.1,235.5,356.6,236.6z"/>
	<path class="st0" d="M502.7,280.2c-2.9-0.2-5.1-2.4-7.3-4.1c-6.9-5.2-14-10.1-21.4-14.2c-12.5-6.8-25.6-12-39-16
		c-9.9-3-20-5-30-6.9c-4.5-0.8-9-1.8-13.7-1.6c-1,0.1-2.2,0.6-3-0.8c3.2-1,6.6-0.8,9.8-0.3c8.4,1.1,16.9,2.3,25.2,4.4
		c14.3,3.6,28.6,7.8,42.1,14.7c8.7,4.4,17.3,9.3,25.2,15.5c3.2,2.5,6.6,4.5,9.9,6.8C501.5,278.3,502.8,278.5,502.7,280.2z"/>
	<path class="st0" d="M478.5,557.7c-1.5,2-3,4-4.4,6c-0.7,1-1.6,2.2-1,3.4c0.7,1.4,2.2,0.9,3.2,0.5c2.7-1.1,5.4-2.4,8.1-3.6
		c-0.1,0.4,0,1-0.3,1.2c-3.6,2.4-7.2,5-11.4,5.8c-2.3,0.5-3.5-1.1-3.2-3.4C469.8,565.1,476.1,558.2,478.5,557.7z"/>
	<path class="st0" d="M354.4,398.6c0.8-0.2,1.1,0.6,1.6,1.1c7.9,9.3,15.8,18.6,23.7,28c0.3,0.4,0.7,0.7,0.6,1.3
		c-1,0-1.7-0.7-2.3-1.5c-7.5-8.8-14.9-17.6-22.4-26.4C354.9,400.3,354.4,399.6,354.4,398.6z"/>
	<path class="st0" d="M517.6,488.8c-1,4.6-2.8,8.9-4.3,13.3c-3.7,10.8-9,20.7-14.5,30.4c-0.4,0.7-0.8,1.4-1.6,1.7
		c-0.1-2.2,1.2-3.8,2.2-5.3c6.9-11.3,12.2-23.6,16.1-36.6C515.9,490.9,516,489.2,517.6,488.8z"/>
	<path class="st0" d="M286.4,318.6c1-0.1,1.5,0.7,2,1.4c7.2,8.4,14.3,16.9,21.5,25.4c0.4,0.5,0.9,1,0.8,1.9c-1,0-1.5-0.8-2.1-1.4
		c-7.1-8.4-14.3-16.9-21.4-25.3C286.8,319.9,286.4,319.4,286.4,318.6z"/>
	<path class="st0" d="M570.2,406.5c-1.4-3-0.7-6.4-1-9.6c-0.8-8.4-2.4-16.4-5-24.2c-0.5-1.6-1.4-3.3-1.2-5.2c0.8,0,1,0.7,1.2,1.4
		c3.8,11.1,6.5,22.5,6.5,34.6C570.8,404.6,571.1,405.8,570.2,406.5z"/>
	<path class="st0" d="M326.2,365.3c0.5-0.1,0.8,0.3,1.2,0.7c6.8,7.9,13.6,15.7,20.3,23.6c0.5,0.6,1.4,1.2,1,2.4
		c-0.8-0.2-1.3-0.8-1.8-1.4c-6.4-7.4-12.9-14.8-19.3-22.3C326.9,367.4,326.1,366.6,326.2,365.3z"/>
	<path class="st0" d="M564.1,460.1c1.1-5.5,2.7-10.9,3.6-16.5c0.9-5.5,1.9-11,1.9-16.6c0-0.9-0.3-2,0.6-2.6c1.3,2,0.7,4.3,0.5,6.4
		c-0.6,9.3-2.7,18.2-4.9,27.1C565.5,458.9,565.3,460,564.1,460.1z"/>
	<path class="st0" d="M387.1,236.6c-7.8,0.6-15.6,0.1-23.4,0.2c-2,0-4,0.3-6-0.2c0.3-1.3,1.2-1,2-1c8.4,0,16.9,0,25.3,0
		C385.9,235.6,386.8,235.3,387.1,236.6z"/>
	<path class="st0" d="M557.4,351.8c-0.7-0.1-1.1-0.8-1.3-1.4c-3.6-9.7-8.7-18.5-14.1-27c-0.3-0.5-0.7-1-0.5-1.7
		c2.6,1.3,3.6,4.3,5.1,6.7c4,6.8,7.8,13.7,10.4,21.4C557.2,350.4,557.6,351,557.4,351.8z"/>
	<path class="st0" d="M258.4,340.9c-0.3-0.9,0.2-1.4,0.6-1.9c4.8-5.9,10-11.2,15.1-16.7c0.4-0.4,0.8-0.6,1.2-0.4
		c-0.7,2.3-2.4,3.7-3.9,5.1c-4.1,3.9-7.6,8.4-11.5,12.7C259.6,340.3,259.1,340.8,258.4,340.9z"/>
	<path class="st0" d="M545.2,503.4c2.3-5.4,5-10.6,8.4-15.2c0.4,0.2,0.6,0.6,0.4,1c-2.5,4.6-5.1,9.2-7.6,13.7
		C546.1,503.4,545.7,503.4,545.2,503.4z"/>
	<path class="st0" d="M499.5,355.9c1.6,0.3,2.1,1.9,2.8,3.2c1.6,3.3,3.9,6.4,4.5,10.3c-0.7,0.1-1.3-0.1-1.6-0.8
		c-1.4-4.2-3.7-7.9-5.7-11.8C499.4,356.6,499.5,356.2,499.5,355.9z"/>
	<path class="st0" d="M322,357.3c-0.1,0.9-0.2,1.8-0.3,2.7c-3.4-2.9-6.5-6-8.7-10.2c2.2,0.7,3.2,3.2,4.8,4.7
		c1.2,1.1,2.1,2.7,3.9,2.3C321.8,357,321.9,357.1,322,357.3z"/>
	<path class="st0" d="M477.8,328c0.8-0.2,1.4,0.1,2,0.7c2.5,2.9,5.1,5.8,7.6,8.7c0.3,0.3,0.3,1,0.4,1.4c-1.9-0.2-2.7-2.1-3.8-3.4
		C481.9,333,479.5,330.9,477.8,328z"/>
	<path class="st0" d="M520.4,296.1c-2.6-0.8-3.9-3.6-5.9-5.4c-1.4-1.2-3.2-2.1-4-4.2C514.9,288.2,517.9,291.8,520.4,296.1z"/>
	<path class="st0" d="M513.9,387.2c2.5,4.1,4.2,8.6,4.7,13.6C516.7,396.4,514,392.4,513.9,387.2z"/>
	<path class="st0" d="M523.2,432c0.7,4.2,1.6,8.4,0.6,12.8C523,440.6,521.9,436.4,523.2,432z"/>
	<path class="st0" d="M508.4,373.1c3,2.6,3.6,6.6,4.4,10.4C510,380.7,509.5,376.8,508.4,373.1z"/>
	<path class="st0" d="M518.8,402.7c1.1,3.3,2.4,6.6,2.6,10.2C519.3,409.9,518.3,406.6,518.8,402.7z"/>
	<path class="st0" d="M521.4,472.8c-0.3,3.6-1.7,6.9-2.7,10.2C518.2,479.1,519.2,475.8,521.4,472.8z"/>
	<path class="st0" d="M561.8,362.7c-1.5-0.6-1.7-2.3-2.2-3.7c-0.8-2.2-1.4-4.4-2.2-6.7c0.8,0,1.2,0.6,1.4,1.3
		C559.9,356.6,560.9,359.6,561.8,362.7z"/>
	<path class="st0" d="M278.2,319.8c1.4-3.7,3.6-5,6-3.6C281.6,316.1,280.3,319,278.2,319.8z"/>
	<path class="st0" d="M523.7,446.1c0,2.6,0.7,5.2-0.5,7.7C522.6,451.1,521.7,448.4,523.7,446.1z"/>
	<path class="st0" d="M516.8,538.4c1.2-2.1,2.3-4.3,4.7-4.8C520.5,535.8,519.4,538,516.8,538.4z"/>
	<path class="st0" d="M522.7,425c1,1.8,0.6,3.8,0.5,5.8C521.1,429,522,427,522.7,425z"/>
	<path class="st0" d="M525.4,301.3c-1.9-0.5-2.9-2.1-3.8-3.9C523.7,297.6,524.9,299,525.4,301.3z"/>
	<path class="st0" d="M538.1,317.1c-1.5-1.1-3-2.2-3.3-4.4C536.7,313.4,538,314.7,538.1,317.1z"/>
	<path class="st0" d="M523.1,455c0.1,1.7,0.6,3.5-0.5,5.1C521.8,458.3,521.4,456.5,523.1,455z"/>
	<path class="st0" d="M506.6,283.4c-1.7-0.3-3-1.1-3.5-3.1C504.7,280.7,506.2,281.2,506.6,283.4z"/>
	<path class="st0" d="M510.5,286.6c-1.7-0.2-2.9-1.1-3.5-3.1C508.8,283.6,509.7,284.9,510.5,286.6z"/>
	<path class="st0" d="M533.6,311c-1.5-0.5-2.5-1.5-2.7-3.3C532.5,308,533.5,309,533.6,311z"/>
	<path class="st0" d="M486,562.7c1-1.5,2.4-2.2,4-2.5C489.3,562.4,487.7,562.7,486,562.7z"/>
	<path class="st0" d="M541.4,321.2c-1.4-0.6-2.5-1.5-2.6-3.4C540.3,318.3,541.3,319.2,541.4,321.2z"/>
	<path class="st0" d="M470.2,320.3c1.6,0,2.5,0.8,2.8,2.6C471.4,322.9,470.7,321.7,470.2,320.3z"/>
	<path class="st0" d="M467.9,317.8c1.5,0,2.1,1,2.3,2.5C468.7,320.4,468,319.4,467.9,317.8z"/>
	<path class="st0" d="M255.1,345.4c-0.1-1.7,0.7-2.4,2-2.6C257,344.2,256.3,345,255.1,345.4z"/>
	<path class="st0" d="M522.5,463.9c0.2,1.1,0.5,2.3-0.4,3.2C521.3,465.9,521,464.7,522.5,463.9z"/>
	<path class="st0" d="M522.1,418.6c0.9,1,0.6,2.1,0.4,3.2C521,421,521.3,419.8,522.1,418.6z"/>
	<path class="st0" d="M493.9,539.2c-0.2,1.5-1,2.3-2.2,2.7C491.7,540.2,492.5,539.3,493.9,539.2z"/>
	<path class="st0" d="M562.9,366.4c-0.7-0.7-1.1-1.5-0.9-2.6C563.1,364.3,564.1,364.8,562.9,366.4z"/>
	<path class="st0" d="M570.7,414.2c-0.8-0.7-0.6-1.7-0.3-2.6C571.7,412.2,571.5,413.2,570.7,414.2z"/>
	<path class="st0" d="M275.9,321.7c0.1-1.2,0.5-1.9,1.7-1.6C277.5,321.2,276.9,321.7,275.9,321.7z"/>
	<path class="st0" d="M497.2,534.1c0,1.2-0.6,1.9-1.6,2.1C495.5,534.8,496,534.1,497.2,534.1z"/>
	<path class="st0" d="M570.4,419.3c-0.3-0.7-0.4-1.4,0.3-2C571.6,418.2,571.5,418.9,570.4,419.3z"/>
	<path class="st0" d="M521.9,469.6c0.2,0.7,0.3,1.4-0.4,2C520.7,470.7,520.8,470,521.9,469.6z"/>
	<path class="st0" d="M518.6,484.3c0.3,1,0.2,1.8-0.8,2.3C517.6,485.6,517.4,484.6,518.6,484.3z"/>
	<path class="st0" d="M251.7,349.8c-0.2-1,0.1-1.6,1-1.7C252.7,348.9,252.7,349.7,251.7,349.8z"/>
	<path class="st0" d="M490,560.2c0.2-1,0.8-1.4,1.7-1.2C491.6,560.3,490.8,560.3,490,560.2z"/>
	<path class="st0" d="M521.6,414.1c0.5,0.3,0.6,0.8,0.3,1.3C521.1,415.3,520.7,414.9,521.6,414.1z"/>
	<path class="st0" d="M507.3,370.7c0.5,0.2,0.5,0.7,0.6,1.2c-0.3-0.1-0.8,0-1-0.3C506.6,371.3,507,370.9,507.3,370.7z"/>
	<path class="st0" d="M495.6,536.7c0.1,0.9-0.3,1.3-1,1.5C494.4,537.2,494.7,536.6,495.6,536.7z"/>
	<path class="st0" d="M284.6,197.2c0.2-0.8,0.4-1.6,1.3-0.8C285.7,197.2,285.2,197.3,284.6,197.2z"/>
	<path class="st0" d="M488.4,546.3c0,0.8-0.4,1.3-1.1,1.4C487.2,546.7,487.6,546.2,488.4,546.3z"/>
	<path class="st0" d="M480.8,555.3c-0.1,0.8-0.5,1.3-1.3,1.2C479.5,555.5,479.9,555.1,480.8,555.3z"/>
	<path class="st0" d="M286.2,196.5c0.1-0.9,0.6-1.3,1.3-1.3C287.5,196.3,287.1,196.7,286.2,196.5z"/>
	<path class="st0" d="M250.7,351.7c-0.2-0.9,0.2-1.3,0.9-1.3C251.6,351.1,251.4,351.6,250.7,351.7z"/>
	<path class="st3" d="M362.9,486c0.8,12.1-4.3,21.1-12.5,27.3c-5.6,4.2-12.3,6.8-19.3,7.8c-9.6,1.4-18.5-1.1-26.9-6
		c-5.8-3.4-10.5-8.5-13.2-15.6c-1.4-3.7-3.2-7-3.2-11.4c0-14.5,6.6-24,17.1-30.4c11.4-6.9,23.6-7.2,35.6-3.1
		c9.6,3.3,17.3,10.3,21.5,21.4C363.3,479.2,362.8,482.6,362.9,486z M361.1,486c0.9-10.2-3.5-17.1-10.1-23c-2.6-2.3-5.6-3.4-8.4-5.1
		c-5.5-3.4-11.7-4.2-17.6-3.9c-6.9,0.4-14,1.8-20.2,6.3c-5.6,4-11.1,7.9-12.9,15.9c-0.1,0.6-0.4,1.2-0.8,1.7
		c-1.6,1.9-1.7,4.3-1.9,6.8c-0.3,4.8,1.5,8.9,3,13.3c2.3,6.8,6.8,11.3,11.7,14.6c6.3,4.3,13.6,5.8,21.1,6.3c5.5,0.3,10.8-1.3,16-2.8
		c3.2-0.9,6.8-2.1,9.2-4.4C357.1,505.1,362.1,497.1,361.1,486z"/>
	<path class="st4" d="M217.7,647.1c-0.7,0.8-1.3,0.3-1.9,0c-7.8-4.3-15.5-8.4-23.2-12.8c-9.2-5.2-17.2-12.3-25.5-19.1
		c-7-5.8-14-11.7-20.6-18c-8.1-7.7-15.7-15.9-22.6-25.1c-4.8-6.4-9.5-12.9-14.2-19.4c-2.4-3.3-4.1-7.3-6.4-10.6
		c-4.5-6.4-7.2-14.1-11.7-20.6c-2.4-3.5-3.8-7.9-5.6-11.8c-4.1-8.9-7.3-18.3-9.6-28c-1.1-4.7-2.7-9.2-4-13.8
		c-1.9-6.8-2.7-13.8-4-20.7c-1.8-9.9-3-19.9-3.5-30.1c-0.3-5.4-1.4-10.8-1.6-16.3c-0.2-7,1.3-13.6,1.9-20.5
		c0.4-5.1,1.2-10.3,1.4-15.4c0.3-6.4,2.3-12.4,3.1-18.7c1.1-9.2,4.5-17.6,6.3-26.5c1.8-8.8,5.6-16.6,8.2-25
		c1.1-3.6,3.1-6.9,4.8-10.2c2.6-5,5-10.2,7.8-15.1c5.1-9,10.8-17.6,16-26.6c4.7-8.1,10.9-14.4,16.9-21.1c3.4-3.8,6.8-7.7,10.2-11.6
		c5.1-6,10.2-12.2,16.4-16.8c4.2-3.1,8.3-6.2,12.4-9.4c3.3-2.6,3.6-8.5,0.8-11.6c-4.9-5.3-9.9-10.5-14.7-15.8
		c-7.8-8.6-13.8-19-21.7-27.5c-3.2-3.5-6.5-6.9-9.8-10.2c-2.4-2.4-5.1-2.1-7.8-1c-4.5,1.9-9.2,1.5-13.8,2.5c-0.6,0.1-1.3-0.2-1.5-1
		c-0.2-0.9,0.5-1.2,1.1-1.6c4.6-3.2,9.1-6.6,14.1-8.9c0.4-0.2,0.8-0.6,1.1-0.9c6.4-5.3,13.1-10.1,19.8-14.9
		c3.6-2.6,6.7-5.9,10.4-8.2c1.6-1,2.6-1,3.9,0.9c4.6,6.7,8.1,14.3,13.4,20.4c2.4,2.8,4.6,5.7,6.9,8.6c1.8,2.4,2.9,5.3,4.7,7.7
		c3.7,5,7.5,9.9,10.8,15.2c3.8,6.1,7.8,12,12.1,17.5c2.8,3.5,7.9,3.9,11.4,1.2c3.9-3,8-5.4,12.7-6.4c4.8-1,8.9-4.2,13.6-5.7
		c5.4-1.7,10.7-3.7,15.9-6.1c7.5-3.5,15.5-5.2,23.3-7c5.8-1.3,11.3-3.5,17-4.8c3.2-0.7,4.3,0.7,4,4.3c-0.3,2.7-0.1,5.5-0.1,8.3
		c0,12.7,0,25.4,0,38.1c0,1.6,0,3.1,0.3,4.7c0.5,2.4-1,3.8-2.5,4.8c-1.5,0.9-3,1.9-4.8,2.3c-2.3,0.5-4.2,1.5-6.1,3.4
		c-1.6,1.7-3.8,2.5-6.2,2.2c-0.5-0.1-1.1,0.1-1.6,0.4c-8.3,4.8-17.1,8.6-24.8,14.9c-0.7,0.5-1.4,1.1-2.1,1.5
		c-5.4,3.3-6.2,9.5-1.6,14.5c5.1,5.5,8.6,12.2,12.5,18.7c3.6,6,7.9,11.4,11.8,17.1c2.3,3.3,5.4,3.1,8,1.7c6.6-3.6,13.5-6,20.4-8.6
		c6.8-2.6,13.7-5.4,21-6.1c3.8-0.4,7.1-2.8,10.9-3.2c4.7-0.5,9.5-1.2,14.2-1.9c11.6-1.7,23.2-2.1,34.9-2c6,0.1,11.8,2,17.7,2.4
		c2.3,0.1,4.8,0.5,7.1,0.7c4.2,0.2,8.1,1.9,12.1,2.8c8.5,1.9,16.9,3.7,25.1,7.1c7.4,3.1,14.8,5.8,22.1,9.3c6,2.9,12,6.1,18,9
		c3.4,1.7,6.6,4,9.5,6.8c2.7,2.6,5.9,4.5,8.8,7c8.5,7.4,17,14.7,24.5,23.5c5.7,6.7,10.6,14.3,15.3,22c3.2,5.3,6.5,10.7,9.4,16.3
		c2.5,4.8,4.5,10.1,6.3,15.5s2.6,11,4.2,16.2c1.6,5.1,2.2,10.3,2.5,15.5c0.3,6,1.8,11.9,1.9,17.9c0.1,3.9,0,7.8-0.7,11.6
		c-1.1,6.6-1.4,13.4-2.2,20.1c-0.4,4-2.6,7.5-2.5,11.6c0.1,5.8-2.5,10.7-4.5,15.4c-1.8,4.3-3,9.4-6.3,13.1c-2.4,2.7-3.2,6.8-5.3,9.9
		c-4,5.9-7.2,12.5-11.6,18.1c-3.3,4.1-6.8,8.1-10.2,12c-7.4,8.3-15.6,15.7-23.8,23c-2,1.8-4.6,2.7-6.2,5.2c-0.5,0.8-1.4,1.3-2.1,0.4
		c-0.9-1,0-1.7,0.5-2.3c5-5.5,9.9-11.2,13.7-17.8c4-7,8.4-13.8,11.1-21.7c1.8-5.2,4.5-10,5.7-15.4c1.9-8.6,3.3-17.6,5.3-26.1
		c3.3-13.7,2-27.3,2.4-41c0.2-5.3-2.3-10-2.9-15.1c-0.2-1.4-0.3-2.7-0.4-4.1c-0.2-3.2-0.4-6.3-1.9-9.1c-1.3-2.4-1.1-5.3-1.6-8
		c-1.2-6.4-3.9-12.2-6.1-18.1c-4.7-12.7-12.1-23.3-19.7-33.8c-3.8-5.2-7.4-10.6-11.7-15.2c-6.2-6.8-13.3-12.2-20.4-17.7
		c-5.4-4.3-11.3-7.8-16.5-12.3c-2.4-2-5.1-2.9-7.7-4c-4.8-2.2-9.4-5.3-14.5-6.8c-6.2-1.8-12.4-3.6-18.6-5.6c-3.8-1.3-8-0.8-12-1.7
		c-11-2.5-22.1-1.4-33-0.9c-7.1,0.3-14.6,0.6-21.4,3.1c-7.9,2.9-16.2,3.7-23.7,7.9c-4.4,2.4-8.9,4.4-13.4,6.6c-3.1,1.6-4,7-1.7,10.4
		c2.1,3.1,4.4,6,6.6,8.9c7.2,9.5,13.2,20.1,20.1,29.8c3.9,5.5,8,10.8,11.7,16.4c4,6.2,8.4,12.1,12.8,17.9c3.1,4.1,5.6,8.6,8.5,12.8
		c6.6,9.5,12.8,19.3,19.9,28.3c2.8,3.6,5.3,7.5,8.4,10.9c0.3,0.4,0.5,0.9,0.7,1.3c0.3,0.6,0.6,1.3,0,1.7c-0.6,0.5-1-0.2-1.4-0.7
		c-2.7-3.3-5.4-6.7-8-10c-3.9-4.9-7.6-10-12-14.4c-2.3-2.3-4.2-5-6.5-7.3c-6.3-6.6-12.1-13.8-17.7-21.3c-5.3-7.3-11.3-14-17.6-20.2
		c-6.7-6.5-12.1-14.4-17.8-22c-3.2-4.2-6.7-8.1-10.2-12c-3.5-4-7.6-7.3-10.7-11.8c-2-3-6.9-3.5-10.1-0.6c-5.8,5.5-12.3,10-17.3,16.6
		c-4.5,5.9-8.8,11.9-12.5,18.5c-1.4,2.6-3.3,4.8-4.9,7.2c-7,10-11.8,21.4-15.7,33.2c-2.7,8.3-4.4,17.2-6.3,25.9
		c-0.6,2.8-0.7,5.9-0.7,8.8c-0.1,13-0.1,25.9,0,38.9c0,4.8,0.7,9.4,1.9,14c1.4,5.7,2.2,11.5,4,17.1c1.6,4.8,2.5,9.9,4.8,14.4
		c1.9,3.8,3.5,7.8,5.3,11.7c2.9,6.3,6.5,11.9,10.2,17.6c3.8,5.8,7.9,11.2,12.4,16.2c0.2,0.2,0.4,0.4,0.6,0.7
		c0.8,1.1,2.3,2.4,1.4,3.7c-0.9,1.2-2.3-0.2-3.4-0.9c-10.3-6-19-14.6-27.8-23c-9.7-9.3-18.6-19.6-25.9-31.5
		c-4.6-7.6-9.3-15.3-12.9-23.6c-2.1-4.9-5.1-9.3-5.7-15.3c-0.3-3.3-2.3-6.5-2.9-10.1c-2.9-15.8-4.1-31.8-3.4-47.9
		c0.3-7.4,1.1-14.7,2.9-21.9c0.6-2.3,0.3-5,1-7.1c1.9-5.6,2.4-11.9,5.8-16.8c0.2-0.3,0.5-0.7,0.6-1.1c2.6-9.3,8-16.7,12.3-24.8
		c4.3-8,9.6-14.9,14.5-22.2c2.6-3.9,6.4-6.3,9.5-9.6c6.5-7,14.1-12.5,20.9-19.1c0.5-0.5,1-1,1.6-1.2c2.2-0.6,4.1-1.6,4.3-4.5
		c0.2-3.6,0.1-6.8-3-9.6c-3.8-3.5-6.7-8.1-10.1-12.1c-5.2-6-10.3-12-15.7-17.8c-2.2-2.3-6.9-1.1-9.9,1.9c-4.2,4.1-8.6,7.9-12.6,12.2
		c-3.1,3.3-6.1,6.8-8.7,10.6c-3.9,5.6-8.1,10.7-12.3,15.8c-7.5,9.2-14.5,18.9-19.9,29.8c-3.8,7.6-7.7,15.1-10.9,23.2
		c-1.6,4-3,8.3-5.4,12c-0.3,0.4-0.6,0.9-0.6,1.4c-0.5,4-2.6,7.2-3.9,10.7c-2.1,5.9-4.1,11.9-5.1,18.3c-0.2,1.4-0.9,2.5-1.2,3.8
		c-3,9.8-4.7,19.9-5.5,30.3c-0.5,5.8-0.9,11.6-1.7,17.3c-0.9,6.8-0.3,13.6-0.5,20.3c-0.3,9.5,1.5,18.7,2,28.1
		c0.5,8.6,2.4,16.9,3.6,25.3c0.2,1.7,1.1,3.3,1.6,5c2.2,7.7,3.8,15.6,6.6,23c1.6,4.3,3,8.8,5.1,12.9c1.8,3.5,3.4,7.2,5,10.8
		c1.8,3.8,3.2,8,4.9,12c3.8,9.4,9,17.8,14.5,26c5,7.5,10.4,14.5,15.5,21.8c4.6,6.6,9.9,12.5,15.3,18.3c5.4,5.8,11.4,10.7,16.7,16.5
		C216.7,645.4,217.6,646,217.7,647.1z"/>
	<path class="st4" d="M361.1,486c1,11.1-4,19.1-10.9,25.6c-2.5,2.3-6,3.5-9.2,4.4c-5.2,1.4-10.5,3.1-16,2.8
		c-7.4-0.4-14.7-2-21.1-6.3c-4.9-3.3-9.4-7.8-11.7-14.6c-1.5-4.4-3.3-8.4-3-13.3c0.1-2.4,0.2-4.9,1.9-6.8c0.4-0.4,0.6-1.1,0.8-1.7
		c1.8-8,7.3-11.9,12.9-15.9c6.3-4.5,13.3-5.9,20.2-6.3c5.9-0.3,12.1,0.5,17.6,3.9c2.8,1.7,5.8,2.8,8.4,5.1
		C357.6,468.9,362,475.8,361.1,486z"/>
</g>
</svg>
