<?xml version="1.0" standalone="no"?>
<!DOCTYPE svg PUBLIC "-//W3C//DTD SVG 20010904//EN"
 "http://www.w3.org/TR/2001/REC-SVG-20010904/DTD/svg10.dtd">
<svg version="1.0" xmlns="http://www.w3.org/2000/svg"
 width="782.000000pt" height="782.000000pt" viewBox="0 0 782.000000 782.000000"
 preserveAspectRatio="xMidYMid meet">
<metadata>
Created by potrace 1.11, written by Peter Selinger 2001-2013
</metadata>
<g transform="translate(0.000000,782.000000) scale(0.100000,-0.100000)"
fill="#000000" stroke="none">
<path d="M2190 7777 c-24 -18 -148 -108 -274 -201 -278 -205 -429 -313 -483
-346 -45 -27 -61 -65 -34 -79 19 -11 99 -7 161 8 25 5 61 13 80 16 19 3 53 11
75 17 59 15 86 20 127 21 39 2 35 5 121 -97 23 -27 47 -54 52 -60 6 -6 29 -36
52 -66 24 -30 61 -74 83 -98 45 -49 44 -61 -11 -102 -18 -14 -37 -29 -43 -35
-21 -19 -125 -95 -130 -95 -8 0 -43 -30 -73 -60 -30 -32 -38 -62 -23 -90 9
-17 17 -20 37 -15 14 3 48 8 76 11 28 3 72 12 98 20 25 8 52 16 60 17 8 2 19
6 25 9 6 4 27 3 46 -3 26 -7 52 -29 99 -86 35 -42 64 -83 65 -90 1 -7 -6 -19
-16 -26 -18 -13 -208 -187 -259 -238 -140 -141 -425 -514 -491 -644 -8 -17
-17 -32 -20 -35 -6 -5 -94 -160 -146 -255 -84 -157 -199 -465 -259 -700 -8
-27 -20 -75 -29 -105 -8 -30 -17 -71 -20 -90 -6 -35 -11 -62 -21 -110 -3 -14
-7 -36 -10 -50 -3 -14 -7 -36 -10 -50 -7 -36 -14 -97 -19 -176 -3 -38 -8 -109
-12 -159 -10 -119 -10 -325 -1 -455 14 -195 16 -215 27 -290 6 -41 13 -93 16
-115 3 -22 12 -60 19 -85 8 -25 17 -65 20 -90 3 -25 15 -77 26 -115 11 -39 25
-88 29 -110 11 -52 28 -102 83 -255 72 -201 164 -399 265 -570 50 -85 80 -136
96 -165 15 -26 49 -79 56 -85 3 -3 22 -30 43 -60 33 -49 58 -82 99 -130 7 -8
31 -37 52 -65 22 -27 45 -55 51 -61 5 -7 26 -31 45 -55 57 -72 304 -313 440
-429 14 -12 37 -32 52 -46 15 -13 32 -24 37 -24 5 0 11 -4 13 -8 4 -9 153
-116 228 -162 30 -19 57 -38 58 -42 2 -5 8 -8 13 -8 6 0 36 -17 67 -38 97 -65
240 -141 397 -212 39 -17 83 -37 98 -44 15 -7 45 -13 65 -12 30 1 38 5 40 23
2 14 -4 26 -20 34 -13 7 -25 15 -28 19 -3 3 -41 35 -85 69 -119 95 -126 101
-317 294 -98 98 -210 222 -250 275 -40 53 -75 99 -78 102 -3 3 -21 28 -39 55
-19 28 -37 52 -41 55 -8 8 -90 130 -90 136 0 2 -11 21 -23 42 -55 87 -206 381
-222 432 -8 26 -69 164 -85 192 -13 23 -130 436 -130 459 0 30 16 22 41 -18
32 -52 138 -191 174 -229 17 -17 54 -58 84 -90 104 -114 319 -306 393 -349 9
-5 79 -53 155 -105 133 -93 385 -230 421 -230 10 0 22 -4 27 -9 6 -5 26 -14
46 -20 47 -15 87 1 84 32 -4 45 -18 63 -88 115 -40 28 -86 64 -103 80 -17 15
-50 43 -72 62 -75 65 -142 131 -142 139 0 4 -10 16 -22 27 -60 53 -298 367
-298 393 0 4 -9 17 -20 29 -12 12 -18 22 -14 22 4 0 -1 9 -11 20 -10 11 -14
20 -10 20 4 0 1 8 -7 18 -8 9 -39 62 -68 117 -29 55 -57 107 -61 115 -25 45
-66 162 -90 255 -10 39 -25 94 -33 123 -8 30 -18 72 -21 95 -8 59 -25 143 -41
205 -7 30 -17 100 -21 155 -8 115 -8 413 0 498 10 95 63 358 108 534 6 22 12
47 14 55 6 31 67 176 115 274 93 191 267 465 365 572 46 51 196 213 218 236
15 16 32 26 37 23 6 -4 28 -30 49 -58 22 -29 73 -88 115 -132 41 -44 76 -87
76 -96 0 -10 -16 -24 -37 -34 -35 -17 -207 -183 -265 -256 -15 -19 -35 -44
-45 -56 -65 -79 -88 -107 -109 -139 -13 -19 -24 -37 -24 -40 0 -3 -9 -19 -21
-35 -11 -16 -17 -29 -12 -29 4 0 3 -4 -3 -8 -5 -4 -17 -23 -26 -42 -37 -81
-133 -334 -143 -380 0 -3 -5 -23 -10 -45 -5 -22 -9 -42 -10 -45 -2 -7 -19
-133 -20 -145 0 -5 -4 -15 -8 -22 -4 -6 -3 -14 2 -18 6 -3 7 -13 4 -22 -11
-27 -10 -68 1 -75 7 -5 7 -8 -1 -8 -7 0 -13 -5 -13 -11 0 -5 6 -7 13 -3 9 6 9
4 1 -7 -17 -22 -4 -210 16 -234 7 -9 8 -15 0 -20 -6 -4 -7 -13 -2 -23 5 -9 9
-32 10 -50 2 -18 10 -44 18 -58 9 -13 14 -24 12 -24 -3 0 1 -21 8 -47 6 -27
17 -47 23 -46 5 2 8 -3 5 -11 -5 -14 59 -196 82 -231 7 -11 13 -24 14 -30 1
-11 96 -163 127 -204 39 -50 108 -137 125 -156 76 -86 180 -183 227 -213 14
-9 33 -24 42 -34 9 -10 21 -18 26 -18 6 0 22 -12 36 -26 15 -15 31 -23 38 -18
7 4 9 3 5 -4 -8 -14 50 -55 65 -46 8 4 9 3 5 -4 -8 -14 50 -46 66 -36 6 4 8 3
5 -3 -7 -11 40 -44 98 -71 73 -33 100 -23 100 39 0 37 -5 46 -40 73 -51 40
-137 127 -200 201 -27 33 -58 67 -67 77 -10 10 -18 21 -18 26 0 4 -9 18 -20
32 -11 14 -20 31 -20 38 0 7 -10 29 -23 50 -85 137 -181 429 -193 582 -2 39
-9 91 -13 116 -9 49 -8 208 2 264 8 40 14 88 23 162 4 29 10 60 14 68 4 8 11
33 15 55 4 22 10 45 14 50 4 6 18 39 30 75 13 36 36 92 51 125 15 33 40 89 55
125 24 53 69 126 95 150 3 3 30 34 60 70 30 35 87 98 126 139 66 68 73 73 88
58 9 -8 16 -18 16 -21 0 -6 24 -36 48 -61 6 -8 12 -17 12 -22 0 -4 19 -29 43
-55 113 -124 167 -186 188 -213 13 -16 31 -37 39 -45 9 -8 21 -22 26 -31 11
-20 71 -94 102 -125 12 -13 22 -26 22 -30 0 -3 15 -21 33 -39 55 -56 100 -107
175 -200 106 -131 142 -174 190 -224 24 -25 94 -109 157 -186 62 -77 126 -153
140 -170 103 -118 138 -154 146 -150 4 3 11 0 15 -6 4 -8 3 -9 -4 -5 -26 16
-8 -12 42 -66 51 -56 96 -76 96 -44 0 8 3 21 6 29 3 8 -26 61 -69 123 -40 60
-82 125 -93 144 -15 28 -96 143 -136 195 -4 6 -18 24 -31 40 -35 45 -187 273
-187 280 0 3 -5 11 -10 18 -19 22 -150 208 -202 285 -28 42 -55 79 -60 80 -4
2 -8 10 -8 18 0 8 -4 14 -9 14 -5 0 -11 8 -15 18 -3 9 -21 37 -40 62 -19 25
-35 48 -35 52 -1 4 -8 16 -16 25 -18 23 -130 183 -232 333 -43 63 -81 117 -85
118 -13 6 -9 39 5 49 6 6 39 21 72 34 33 12 65 26 70 30 18 12 117 41 149 45
17 1 62 12 99 24 38 12 76 21 85 21 207 1 357 -6 378 -18 14 -7 56 -18 92 -24
37 -7 96 -23 132 -36 79 -30 298 -139 323 -160 9 -9 17 -13 17 -8 0 4 20 -9
44 -29 24 -20 47 -36 51 -36 4 0 47 -42 96 -92 49 -51 94 -92 99 -91 6 2 9 -3
7 -10 -1 -6 4 -11 11 -9 8 1 11 -2 8 -7 -5 -8 9 -30 74 -111 11 -14 27 -41 37
-60 10 -19 23 -38 28 -42 6 -4 7 -8 2 -8 -4 0 0 -12 9 -26 23 -35 104 -206
104 -220 0 -6 14 -44 30 -84 17 -41 32 -90 35 -109 5 -46 15 -92 21 -102 10
-17 18 -161 18 -334 -1 -151 -4 -196 -23 -278 -19 -81 -21 -100 -10 -113 11
-14 9 -19 -14 -36 -15 -11 -27 -28 -27 -37 0 -10 -3 -21 -7 -25 -4 -3 -8 -12
-9 -19 -1 -7 -6 -21 -10 -31 -6 -15 -4 -17 7 -11 10 6 9 3 -2 -11 -17 -20
-119 -208 -119 -220 0 -3 7 -3 16 0 8 3 12 2 9 -4 -3 -6 -15 -10 -25 -10 -10
0 -22 -9 -25 -21 -14 -43 -127 -199 -180 -247 -49 -45 -72 -73 -45 -57 6 3 10
2 10 -3 0 -6 -7 -13 -16 -16 -8 -3 -12 -2 -9 4 3 6 2 10 -3 10 -5 0 -22 -16
-36 -35 -15 -19 -24 -35 -20 -35 3 0 1 -6 -5 -14 -8 -10 -8 -21 -1 -40 8 -23
15 -26 37 -23 42 7 63 17 118 56 28 19 73 50 100 69 28 18 64 46 80 61 17 15
55 46 85 68 83 62 201 187 318 338 61 78 159 256 182 330 7 22 21 58 31 80 24
53 70 192 76 230 3 17 11 55 18 86 12 54 14 476 2 539 -22 115 -148 466 -199
553 -15 26 -28 52 -28 57 0 6 -3 10 -8 10 -4 0 -13 12 -20 28 -6 15 -25 43
-42 62 -16 19 -33 40 -37 45 -84 110 -216 253 -273 295 -18 14 -49 38 -68 53
-20 15 -42 25 -49 23 -7 -3 -12 -1 -10 5 1 6 -7 16 -17 22 -11 7 -31 22 -45
35 -15 12 -32 20 -39 17 -7 -3 -11 -1 -8 4 7 10 -46 49 -114 83 -14 7 -27 16
-30 19 -5 7 -70 38 -189 90 -30 13 -59 23 -63 22 -4 -2 -8 1 -8 6 0 8 -34 17
-95 27 -11 1 -45 12 -76 23 -60 22 -76 25 -165 37 -59 8 -67 9 -81 14 -19 6
-39 5 -50 -3 -6 -4 -14 -3 -18 4 -6 8 -10 7 -16 -2 -7 -12 -9 -12 -9 0 0 11
-3 11 -17 0 -11 -10 -14 -10 -9 -1 4 6 3 12 -3 12 -5 0 -13 -4 -16 -10 -3 -5
-12 -10 -18 -10 -8 0 -7 4 2 9 10 6 -8 9 -51 8 -39 -1 -64 -5 -61 -11 4 -5 1
-6 -8 0 -23 14 -112 16 -121 1 -6 -9 -8 -9 -8 1 0 15 -41 13 -52 -3 -5 -6 -8
-6 -8 2 0 12 -17 12 -36 0 -6 -3 -14 -3 -18 0 -12 12 -36 12 -36 0 0 -9 -2 -9
-8 0 -8 13 -29 13 -49 0 -7 -5 -13 -4 -13 1 0 6 -8 9 -17 7 -129 -25 -142 -29
-136 -39 4 -7 1 -7 -7 1 -8 8 -20 9 -36 3 -13 -5 -24 -7 -24 -4 0 4 -7 0 -17
-7 -9 -8 -19 -13 -22 -11 -3 1 -27 -2 -52 -8 -26 -6 -55 -13 -65 -15 -11 -2
-20 -4 -21 -5 -2 -2 -6 -3 -10 -4 -5 -1 -14 -5 -20 -9 -7 -5 -21 -10 -30 -12
-42 -8 -113 -47 -107 -57 4 -7 3 -8 -4 -4 -6 4 -27 0 -46 -8 l-36 -15 -27 37
c-28 36 -58 74 -78 96 -6 6 -18 24 -28 39 -10 15 -22 25 -27 22 -6 -3 -7 0 -5
8 3 7 -3 24 -15 37 -11 13 -20 26 -20 29 0 3 -10 18 -22 31 -13 14 -24 31 -25
38 -3 13 84 81 105 82 6 0 12 4 12 9 0 5 8 11 18 15 9 3 40 20 67 37 80 51
115 69 130 69 8 0 21 10 30 23 8 12 19 22 23 23 49 5 86 21 107 46 27 32 27
30 27 208 0 71 5 122 12 130 6 8 38 26 71 39 74 29 92 45 100 83 6 26 9 137 5
163 -1 6 -1 21 0 34 6 68 4 131 -3 131 -5 0 -5 5 -2 10 4 6 6 66 6 133 -1 67
-1 143 -1 170 -1 26 0 75 0 110 2 108 -14 136 -72 123 -12 -3 -34 -8 -48 -10
-88 -16 -148 -30 -242 -55 -60 -16 -108 -27 -108 -24 0 3 -6 1 -12 -5 -7 -5
-33 -15 -57 -22 -47 -12 -383 -143 -466 -181 -27 -13 -52 -24 -55 -24 -3 -1
-56 -27 -118 -58 -90 -44 -117 -54 -130 -46 -19 12 -41 43 -211 294 -63 94
-120 175 -125 182 -19 22 -30 37 -81 113 -27 41 -53 77 -57 78 -5 2 -8 8 -8
14 0 6 -16 32 -35 58 -19 26 -35 53 -35 59 0 6 -5 11 -10 11 -6 0 -14 8 -18
18 -10 24 -62 102 -91 134 -31 35 -55 34 -111 -5z m55 -1197 c3 -6 -1 -7 -9
-4 -18 7 -21 14 -7 14 6 0 13 -4 16 -10z m-100 -9 c-9 -8 -36 -10 -30 -2 2 4
11 8 20 8 8 0 13 -3 10 -6z m-45 -11 c0 -5 -2 -10 -4 -10 -3 0 -8 5 -11 10 -3
6 -1 10 4 10 6 0 11 -4 11 -10z m-169 -28 c-7 -2 -18 1 -23 6 -8 8 -4 9 13 5
13 -4 18 -8 10 -11z m404 -2 c10 -11 16 -20 13 -20 -3 0 -13 9 -23 20 -10 11
-16 20 -13 20 3 0 13 -9 23 -20z m33 -75 c-3 -3 -9 2 -12 12 -6 14 -5 15 5 6
7 -7 10 -15 7 -18z m43 -12 c13 -16 12 -17 -3 -4 -17 13 -22 21 -14 21 2 0 10
-8 17 -17z m40 -40 c13 -17 13 -17 -6 -3 -11 8 -22 16 -24 17 -2 2 0 3 6 3 6
0 17 -8 24 -17z m59 -75 c15 -21 17 -28 6 -19 -16 13 -41 51 -33 51 2 0 14
-15 27 -32z m223 -292 c3 -8 -2 -20 -11 -27 -14 -11 -15 -11 -5 0 6 7 9 20 6
27 -3 8 -3 14 0 14 3 0 7 -6 10 -14z m-43 -70 c0 -2 -7 -7 -16 -10 -8 -3 -12
-2 -9 4 6 10 25 14 25 6z m-160 -130 c0 -2 -8 -10 -17 -17 -16 -13 -17 -12 -4
4 13 16 21 21 21 13z m-220 -240 c0 -2 -8 -10 -17 -17 -16 -13 -17 -12 -4 4
13 16 21 21 21 13z m936 -208 c4 -6 3 -8 -4 -4 -5 3 -24 -6 -41 -20 -17 -14
-31 -22 -31 -17 0 6 59 53 67 53 1 0 5 -5 9 -12z m-1120 -46 c-17 -16 -18 -16
-5 5 7 12 15 20 18 17 3 -2 -3 -12 -13 -22z m1034 -9 c0 -5 -25 -34 -54 -66
-30 -32 -74 -81 -98 -109 -24 -29 -62 -74 -86 -102 -24 -28 -70 -91 -103 -141
-77 -118 -94 -141 -63 -82 49 89 144 216 279 369 39 44 81 93 95 109 27 31 30
33 30 22z m164 -29 c3 -8 2 -12 -4 -9 -6 3 -10 10 -10 16 0 14 7 11 14 -7z
m77 -31 c13 -16 12 -17 -3 -4 -10 7 -18 15 -18 17 0 8 8 3 21 -13z m43 -52
c-2 -3 -12 3 -22 13 -16 17 -16 18 5 5 12 -7 20 -15 17 -18z m-1394 -1 c-6
-11 -13 -20 -16 -20 -2 0 0 9 6 20 6 11 13 20 16 20 2 0 0 -9 -6 -20z m1497
-162 c-3 -7 -5 -2 -5 12 0 14 2 19 5 13 2 -7 2 -19 0 -25z m-1587 -8 c-6 -11
-13 -20 -16 -20 -2 0 0 9 6 20 6 11 13 20 16 20 2 0 0 -9 -6 -20z m-35 -70
c-9 -16 -18 -30 -21 -30 -2 0 2 14 11 30 9 17 18 30 21 30 2 0 -2 -13 -11 -30z
m-49 -105 c-1 -8 -5 -17 -8 -21 -5 -4 -4 16 1 34 3 9 9 -1 7 -13z m-25 -58
c-10 -9 -11 -8 -5 6 3 10 9 15 12 12 3 -3 0 -11 -7 -18z m851 -97 c-15 -27
-30 -50 -34 -50 -4 0 6 23 23 50 40 65 47 65 11 0z m508 6 c0 -3 -4 -8 -10
-11 -5 -3 -10 -1 -10 4 0 6 5 11 10 11 6 0 10 -2 10 -4z m-1399 -29 c-10 -9
-11 -8 -5 6 3 10 9 15 12 12 3 -3 0 -11 -7 -18z m1355 -35 c-17 -16 -18 -16
-5 5 7 12 15 20 18 17 3 -2 -3 -12 -13 -22z m-506 -10 c0 -5 -7 -17 -15 -28
-14 -18 -14 -17 -4 9 12 27 19 34 19 19z m-878 -34 c-8 -8 -9 -4 -5 13 4 13 8
18 11 10 2 -7 -1 -18 -6 -23z m1368 18 c0 -2 -8 -10 -17 -17 -16 -13 -17 -12
-4 4 13 16 21 21 21 13z m835 -16 c3 -5 1 -10 -4 -10 -6 0 -11 5 -11 10 0 6 2
10 4 10 3 0 8 -4 11 -10z m-1370 -59 c-21 -43 -29 -39 -8 4 9 19 18 33 21 31
2 -2 -4 -18 -13 -35z m-842 14 c-3 -9 -8 -14 -10 -11 -3 3 -2 9 2 15 9 16 15
13 8 -4z m1315 -25 c-7 -10 -14 -17 -17 -15 -4 4 18 35 25 35 2 0 -1 -9 -8
-20z m-506 -62 c-8 -8 -9 -4 -5 13 4 13 8 18 11 10 2 -7 -1 -18 -6 -23z m481
17 c-3 -9 -8 -14 -10 -11 -3 3 -2 9 2 15 9 16 15 13 8 -4z m2785 -10 c-3 -3
-9 2 -12 12 -6 14 -5 15 5 6 7 -7 10 -15 7 -18z m-1739 -49 c-2 -2 -13 8 -23
22 l-19 27 24 -22 c12 -12 21 -24 18 -27z m-1548 1 c-10 -9 -11 -8 -5 6 3 10
9 15 12 12 3 -3 0 -11 -7 -18z m-818 -2 c-3 -9 -8 -14 -10 -11 -3 3 -2 9 2 15
9 16 15 13 8 -4z m1287 -5 c0 -5 -5 -10 -11 -10 -5 0 -7 5 -4 10 3 6 8 10 11
10 2 0 4 -4 4 -10z m1114 -26 c3 -8 2 -12 -4 -9 -6 3 -10 10 -10 16 0 14 7 11
14 -7z m-2417 -36 c-3 -8 -6 -5 -6 6 -1 11 2 17 5 13 3 -3 4 -12 1 -19z m823
18 c0 -3 -4 -8 -10 -11 -5 -3 -10 -1 -10 4 0 6 5 11 10 11 6 0 10 -2 10 -4z
m441 -29 c-10 -9 -11 -8 -5 6 3 10 9 15 12 12 3 -3 0 -11 -7 -18z m-470 -31
c-14 -36 -22 -33 -9 5 6 16 12 28 14 26 3 -2 0 -16 -5 -31z m-810 -33 c-12
-20 -14 -14 -5 12 4 9 9 14 11 11 3 -2 0 -13 -6 -23z m1256 12 c0 -8 -4 -12
-9 -9 -5 3 -6 10 -3 15 9 13 12 11 12 -6z m-475 -57 c-8 -8 -9 -4 -5 13 4 13
8 18 11 10 2 -7 -1 -18 -6 -23z m458 22 c0 -5 -5 -10 -11 -10 -5 0 -7 5 -4 10
3 6 8 10 11 10 2 0 4 -4 4 -10z m1316 -20 c0 -12 -4 -16 -9 -11 -5 5 -6 14 -3
20 10 15 12 14 12 -9z m1779 1 c3 -5 2 -12 -3 -15 -5 -3 -9 1 -9 9 0 17 3 19
12 6z m-3568 -43 c-3 -8 -6 -5 -6 6 -1 11 2 17 5 13 3 -3 4 -12 1 -19z m-15
-60 c-7 -7 -12 -21 -12 -32 0 -10 -3 -17 -6 -13 -10 10 5 57 18 57 9 0 9 -3 0
-12z m448 8 c0 -3 -4 -8 -10 -11 -5 -3 -10 -1 -10 4 0 6 5 11 10 11 6 0 10 -2
10 -4z m553 -21 c-3 -9 -8 -14 -10 -11 -3 3 -2 9 2 15 9 16 15 13 8 -4z m914
9 c-3 -3 -12 -4 -19 -1 -8 3 -5 6 6 6 11 1 17 -2 13 -5z m-2690 -23 c0 -11 -5
-18 -9 -15 -4 3 -5 11 -1 19 7 21 12 19 10 -4z m1200 -11 c-2 -11 -6 -22 -9
-26 -4 -3 -5 2 -3 13 2 10 4 21 4 26 1 4 3 7 6 7 3 0 4 -9 2 -20z m1504 3 c13
-16 12 -17 -3 -4 -17 13 -22 21 -14 21 2 0 10 -8 17 -17z m-2701 -44 c0 -5 -4
-9 -8 -9 -5 0 -9 7 -9 15 0 8 4 12 9 9 4 -3 8 -9 8 -15z m2755 2 c3 -5 2 -12
-3 -15 -5 -3 -9 1 -9 9 0 17 3 19 12 6z m-1578 -23 c-3 -8 -6 -5 -6 6 -1 11 2
17 5 13 3 -3 4 -12 1 -19z m-434 -8 c-3 -11 -9 -20 -13 -20 -5 0 -6 9 -3 20 3
11 9 20 13 20 5 0 6 -9 3 -20z m424 -32 c-3 -8 -6 -5 -6 6 -1 11 2 17 5 13 3
-3 4 -12 1 -19z m-443 -40 c-4 -18 -7 -37 -6 -41 2 -5 -2 -6 -6 -3 -6 3 -5 22
1 45 13 48 22 47 11 -1z m433 -10 c-3 -7 -5 -2 -5 12 0 14 2 19 5 13 2 -7 2
-19 0 -25z m3333 12 c0 -5 -2 -10 -4 -10 -3 0 -8 5 -11 10 -3 6 -1 10 4 10 6
0 11 -4 11 -10z m-3343 -62 c-3 -7 -5 -2 -5 12 0 14 2 19 5 13 2 -7 2 -19 0
-25z m1733 -10 c0 -6 -6 -5 -15 2 -8 7 -15 14 -15 16 0 2 7 1 15 -2 8 -4 15
-11 15 -16z m-2174 -33 c-3 -23 -12 -26 -13 -5 -1 11 2 20 7 20 4 0 7 -7 6
-15z m437 -10 c-7 -21 -12 -19 -10 4 0 11 5 18 9 15 4 -3 5 -11 1 -19z m-1166
-7 c-3 -8 -6 -5 -6 6 -1 11 2 17 5 13 3 -3 4 -12 1 -19z m2940 16 c-3 -3 -12
-4 -19 -1 -8 3 -5 6 6 6 11 1 17 -2 13 -5z m18 -24 c3 -6 -1 -7 -9 -4 -18 7
-21 14 -7 14 6 0 13 -4 16 -10z m-2958 -62 c-2 -13 -4 -5 -4 17 -1 22 1 32 4
23 2 -10 2 -28 0 -40z m715 5 c-3 -16 -7 -22 -10 -15 -4 13 4 42 11 42 2 0 2
-12 -1 -27z m442 -19 c3 -8 2 -12 -4 -9 -6 3 -10 10 -10 16 0 14 7 11 14 -7z
m3426 -16 c0 -19 -16 -5 -17 14 -2 18 0 20 7 8 5 -8 10 -18 10 -22z m-4583
-20 c-3 -8 -6 -5 -6 6 -1 11 2 17 5 13 3 -3 4 -12 1 -19z m705 -35 c-7 -35
-11 -28 -10 20 0 28 3 36 8 23 3 -11 5 -30 2 -43z m445 15 c-3 -7 -5 -2 -5 12
0 14 2 19 5 13 2 -7 2 -19 0 -25z m1930 -13 c0 -8 -4 -12 -9 -9 -5 3 -6 10 -3
15 9 13 12 11 12 -6z m28 -35 c3 -6 -1 -7 -9 -4 -18 7 -21 14 -7 14 6 0 13 -4
16 -10z m-2405 -4 c0 -3 -4 -8 -10 -11 -5 -3 -10 -1 -10 4 0 6 5 11 10 11 6 0
10 -2 10 -4z m3897 -33 c-3 -10 -5 -4 -5 12 0 17 2 24 5 18 2 -7 2 -21 0 -30z
m-1466 0 c13 -16 12 -17 -3 -4 -10 7 -18 15 -18 17 0 8 8 3 21 -13z m-1984
-30 c-3 -10 -5 -4 -5 12 0 17 2 24 5 18 2 -7 2 -21 0 -30z m-1140 -30 c-3 -10
-5 -4 -5 12 0 17 2 24 5 18 2 -7 2 -21 0 -30z m680 0 c-3 -10 -5 -4 -5 12 0
17 2 24 5 18 2 -7 2 -21 0 -30z m2484 20 c13 -16 12 -17 -3 -4 -17 13 -22 21
-14 21 2 0 10 -8 17 -17z m1434 -33 c-7 -37 -11 -33 -11 10 0 24 3 35 8 27 4
-8 5 -24 3 -37z m-1408 5 c0 -8 -4 -12 -9 -9 -5 3 -6 10 -3 15 9 13 12 11 12
-6z m-2042 -24 c3 -5 2 -12 -3 -15 -5 -3 -9 1 -9 9 0 17 3 19 12 6z m2065 -12
c0 -5 5 -7 12 -3 7 4 8 3 4 -5 -6 -9 -11 -9 -22 0 -17 14 -18 19 -4 19 6 0 10
-5 10 -11z m-3203 -26 c1 -24 0 -25 -6 -8 -7 17 -6 35 2 35 2 0 3 -12 4 -27z
m670 -10 c-3 -10 -5 -4 -5 12 0 17 2 24 5 18 2 -7 2 -21 0 -30z m470 -15 c-3
-7 -5 -2 -5 12 0 14 2 19 5 13 2 -7 2 -19 0 -25z m3463 -2 c0 -2 -7 -7 -16
-10 -8 -3 -12 -2 -9 4 6 10 25 14 25 6z m-4590 -41 c0 -5 -5 -3 -10 5 -5 8
-10 20 -10 25 0 6 5 3 10 -5 5 -8 10 -19 10 -25z m657 13 c-3 -8 -6 -5 -6 6
-1 11 2 17 5 13 3 -3 4 -12 1 -19z m2628 -36 c-3 -3 -11 0 -18 7 -9 10 -8 11
6 5 10 -3 15 -9 12 -12z m-3288 -14 c-3 -8 -6 -5 -6 6 -1 11 2 17 5 13 3 -3 4
-12 1 -19z m661 -23 c-3 -3 -9 2 -12 12 -6 14 -5 15 5 6 7 -7 10 -15 7 -18z
m3929 -7 c-3 -8 -6 -5 -6 6 -1 11 2 17 5 13 3 -3 4 -12 1 -19z m-3930 -30 c-3
-8 -6 -5 -6 6 -1 11 2 17 5 13 3 -3 4 -12 1 -19z m3927 -4 c3 -8 2 -12 -4 -9
-6 3 -10 10 -10 16 0 14 7 11 14 -7z m-4564 -39 c0 -5 -5 -3 -10 5 -5 8 -10
20 -10 25 0 6 5 3 10 -5 5 -8 10 -19 10 -25z m1140 4 c0 -13 4 -18 12 -13 7 4
8 3 4 -5 -10 -16 -23 -6 -28 24 -3 13 -1 22 3 19 5 -3 9 -14 9 -25z m-497 2
c2 -10 1 -24 -3 -30 -4 -7 -7 1 -8 18 -1 35 3 40 11 12z m3922 -21 c3 -5 1
-10 -4 -10 -6 0 -11 5 -11 10 0 6 2 10 4 10 3 0 8 -4 11 -10z m-4558 -32 c4
-28 -6 -18 -12 12 -2 12 -1 20 2 16 4 -4 8 -16 10 -28z m4557 -4 c3 -8 2 -12
-4 -9 -6 3 -10 10 -10 16 0 14 7 11 14 -7z m-3914 -18 c0 -3 -4 -8 -10 -11 -5
-3 -10 -1 -10 4 0 6 5 11 10 11 6 0 10 -2 10 -4z m3906 -31 c-3 -23 -12 -26
-13 -5 -1 11 2 20 7 20 4 0 7 -7 6 -15z m-3909 -25 c-2 -23 -10 -17 -12 10 -1
10 2 17 6 14 4 -2 7 -13 6 -24z m-621 -6 c1 -9 0 -13 -4 -10 -3 4 -7 14 -8 22
-1 9 0 13 4 10 3 -4 7 -14 8 -22z m1153 -4 c-1 -3 3 -16 10 -30 11 -23 11 -24
-3 -6 -9 10 -13 22 -11 27 3 4 0 10 -5 12 -7 4 -6 5 0 4 7 -2 10 -5 9 -7z
m-532 -62 c-3 -8 -6 -5 -6 6 -1 11 2 17 5 13 3 -3 4 -12 1 -19z m3898 5 c-2
-10 -4 -19 -5 -20 -2 -2 -3 -7 -4 -12 0 -5 -4 -12 -8 -16 -3 -4 -5 0 -4 9 1 8
5 18 8 22 4 3 4 12 1 20 -3 8 -1 14 5 14 6 0 9 -8 7 -17z m-4499 -18 c1 -8 -2
-15 -6 -15 -5 0 -8 9 -7 20 1 21 10 18 13 -5z m1161 8 c-4 -3 -1 -13 6 -22 11
-14 10 -14 -5 -2 -16 12 -16 31 -1 31 4 0 3 -3 0 -7z m-550 -75 c-3 -7 -5 -2
-5 12 0 14 2 19 5 13 2 -7 2 -19 0 -25z m-593 7 c3 -8 1 -15 -4 -15 -6 0 -10
7 -10 15 0 8 2 15 4 15 2 0 6 -7 10 -15z m4461 6 c3 -5 2 -12 -3 -15 -5 -3 -9
1 -9 9 0 17 3 19 12 6z m-3274 -54 c-10 -9 -11 -8 -5 6 3 10 9 15 12 12 3 -3
0 -11 -7 -18z m3260 0 c-10 -9 -11 -8 -5 6 3 10 9 15 12 12 3 -3 0 -11 -7 -18z
m-4423 -42 c-3 -3 -9 2 -12 12 -6 14 -5 15 5 6 7 -7 10 -15 7 -18z m1217 -27
c5 4 5 1 1 -6 -6 -10 -11 -10 -22 -1 -8 6 -14 14 -14 16 0 3 6 0 13 -6 8 -6
18 -7 22 -3z m3181 -22 c0 -14 -5 -21 -9 -17 -4 4 -5 15 -1 24 9 24 12 21 10
-7z m-3175 -23 c13 -16 12 -17 -3 -4 -17 13 -22 21 -14 21 2 0 10 -8 17 -17z
m-1177 -25 c-3 -4 -9 -8 -15 -8 -5 0 -9 4 -9 8 0 5 7 9 15 9 8 0 12 -4 9 -9z
m1203 6 c-3 -4 -2 -16 4 -28 10 -20 9 -20 -5 -2 -14 17 -13 36 1 36 4 0 3 -3
0 -6z m3127 -30 c3 -8 2 -12 -4 -9 -6 3 -10 10 -10 16 0 14 7 11 14 -7z
m-4314 -49 c0 -5 -5 -3 -10 5 -5 8 -10 20 -10 25 0 6 5 3 10 -5 5 -8 10 -19
10 -25z m1260 -31 c0 -8 -19 -13 -24 -6 -3 5 1 9 9 9 8 0 15 -2 15 -3z m3016
-14 c0 -12 -4 -16 -9 -11 -5 5 -6 14 -3 20 10 15 12 14 12 -9z m-4236 -44 c0
-12 -5 -7 -19 24 -11 24 -11 24 3 6 9 -11 16 -24 16 -30z m1260 -18 c0 -6 -6
-5 -15 2 -8 7 -15 14 -15 16 0 2 7 1 15 -2 8 -4 15 -11 15 -16z m2959 9 c-2
-1 -13 -9 -24 -17 -19 -14 -19 -14 -6 3 7 9 18 17 24 17 6 0 8 -1 6 -3z
m-4179 -72 c0 -5 -5 -3 -10 5 -5 8 -10 20 -10 25 0 6 5 3 10 -5 5 -8 10 -19
10 -25z m4156 23 c4 -7 4 -10 -1 -6 -4 4 -15 2 -24 -5 -14 -11 -14 -10 -2 6
16 20 18 21 27 5z m-19 -34 c-3 -3 -12 -4 -19 -1 -8 3 -5 6 6 6 11 1 17 -2 13
-5z m-4109 -49 c-3 -3 -9 2 -12 12 -6 14 -5 15 5 6 7 -7 10 -15 7 -18z m4067
-5 c-3 -5 -12 -10 -18 -10 -7 0 -6 4 3 10 19 12 23 12 15 0z m-4030 -22 c5 4
5 1 1 -5 -10 -18 -23 -16 -30 3 -5 13 -4 14 7 6 8 -7 18 -8 22 -4z m3999 -42
c-3 -9 -10 -16 -15 -16 -5 0 -4 9 3 20 14 22 21 20 12 -4z m-3991 -6 c3 -11 1
-18 -4 -14 -5 3 -9 12 -9 20 0 20 7 17 13 -6z m1411 -58 c3 -5 -1 -9 -9 -9 -8
0 -12 4 -9 9 3 4 7 8 9 8 2 0 6 -4 9 -8z m2536 -1 c0 -4 -12 -20 -26 -35 -15
-14 -24 -26 -20 -26 4 0 -11 -18 -33 -40 -22 -22 -43 -40 -48 -40 -4 1 3 11
17 23 14 12 44 46 65 75 40 54 45 58 45 43z m-2483 -56 c0 -8 -4 -12 -9 -9 -5
3 -6 10 -3 15 9 13 12 11 12 -6z m-1467 -50 c0 -8 -2 -15 -4 -15 -2 0 -6 7
-10 15 -3 8 -1 15 4 15 6 0 10 -7 10 -15z m129 -39 c-2 -2 -13 8 -23 22 l-19
27 24 -22 c12 -12 21 -24 18 -27z m1416 16 c-3 -3 -11 0 -18 7 -9 10 -8 11 6
5 10 -3 15 -9 12 -12z m2270 -32 c-3 -5 -11 -10 -16 -10 -6 0 -7 5 -4 10 3 6
11 10 16 10 6 0 7 -4 4 -10z m-3665 -15 c7 -9 8 -15 2 -15 -5 0 -12 7 -16 15
-3 8 -4 15 -2 15 2 0 9 -7 16 -15z m34 -91 c3 -8 2 -12 -4 -9 -6 3 -10 10 -10
16 0 14 7 11 14 -7z m85 -78 c-3 -3 -11 5 -18 17 -13 21 -12 21 5 5 10 -10 16
-20 13 -22z m42 -53 c13 -16 12 -17 -3 -4 -10 7 -18 15 -18 17 0 8 8 3 21 -13z
m-223 -28 c-3 -3 -9 2 -12 12 -6 14 -5 15 5 6 7 -7 10 -15 7 -18z m273 -48
c-10 -9 -11 -8 -5 6 3 10 9 15 12 12 3 -3 0 -11 -7 -18z m49 -27 c12 -16 19
-30 16 -30 -2 0 -14 14 -26 30 -12 17 -19 30 -16 30 2 0 14 -13 26 -30z m80
-80 c0 -5 -2 -10 -4 -10 -3 0 -8 5 -11 10 -3 6 -1 10 4 10 6 0 11 -4 11 -10z
m11 -47 c13 -16 12 -17 -3 -4 -10 7 -18 15 -18 17 0 8 8 3 21 -13z m-323 -68
c-3 -3 -9 2 -12 12 -6 14 -5 15 5 6 7 -7 10 -15 7 -18z m493 -82 c13 -16 12
-17 -3 -4 -17 13 -22 21 -14 21 2 0 10 -8 17 -17z m44 -31 c-3 -3 -11 0 -18 7
-9 10 -8 11 6 5 10 -3 15 -9 12 -12z m40 -2 c10 -11 16 -20 13 -20 -3 0 -13 9
-23 20 -10 11 -16 20 -13 20 3 0 13 -9 23 -20z m-507 -55 c-3 -3 -9 2 -12 12
-6 14 -5 15 5 6 7 -7 10 -15 7 -18z m533 8 c13 -16 12 -17 -3 -4 -17 13 -22
21 -14 21 2 0 10 -8 17 -17z m94 -43 c3 -6 -1 -7 -9 -4 -18 7 -21 14 -7 14 6
0 13 -4 16 -10z m180 -140 c3 -6 -1 -7 -9 -4 -18 7 -21 14 -7 14 6 0 13 -4 16
-10z m75 -46 c0 -2 -13 2 -30 11 -16 9 -30 18 -30 21 0 2 14 -2 30 -11 17 -9
30 -18 30 -21z m45 -22 c-3 -3 -11 0 -18 7 -9 10 -8 11 6 5 10 -3 15 -9 12
-12z m56 -29 c13 -16 12 -17 -3 -4 -17 13 -22 21 -14 21 2 0 10 -8 17 -17z
m-827 -49 c3 -8 2 -12 -4 -9 -6 3 -10 10 -10 16 0 14 7 11 14 -7z m1018 -6
c-7 -7 -12 -8 -12 -2 0 14 12 26 19 19 2 -3 -1 -11 -7 -17z m-972 -68 c0 -5
-2 -10 -4 -10 -3 0 -8 5 -11 10 -3 6 -1 10 4 10 6 0 11 -4 11 -10z m811 -967
c13 -16 12 -17 -3 -4 -17 13 -22 21 -14 21 2 0 10 -8 17 -17z"/>
<path d="M4220 3348 c-67 -12 -163 -63 -214 -114 -48 -50 -89 -125 -104 -191
-12 -51 -8 -166 7 -212 28 -90 130 -198 230 -244 56 -26 80 -31 153 -32 99 -2
162 14 230 61 57 39 154 139 166 172 6 15 13 36 18 47 21 57 24 143 8 213 -21
94 -132 224 -228 268 -77 35 -178 47 -266 32z"/>
<path d="M6200 2940 c0 -5 5 -10 10 -10 6 0 10 5 10 10 0 6 -4 10 -10 10 -5 0
-10 -4 -10 -10z"/>
</g>
</svg>
