<?xml version="1.0" standalone="no"?>
<!DOCTYPE svg PUBLIC "-//W3C//DTD SVG 20010904//EN"
 "http://www.w3.org/TR/2001/REC-SVG-20010904/DTD/svg10.dtd">
<svg version="1.0" xmlns="http://www.w3.org/2000/svg"
 width="700.000000pt" height="700.000000pt" viewBox="0 0 700.000000 700.000000"
 preserveAspectRatio="xMidYMid meet">
<metadata>
Created by potrace 1.11, written by Peter Selinger 2001-2013
</metadata>
<g transform="translate(0.000000,700.000000) scale(0.100000,-0.100000)"
fill="#000000" stroke="none">
<path d="M2253 5908 c-54 -40 -128 -101 -163 -135 -36 -34 -78 -72 -95 -84
-16 -12 -45 -36 -64 -53 -29 -26 -32 -28 -22 -8 7 13 25 31 40 40 45 28 118
94 94 85 -36 -13 -193 -142 -193 -158 0 -19 3 -19 131 6 58 12 118 19 132 15
17 -4 77 -69 187 -203 89 -109 167 -208 173 -221 10 -22 1 -33 -126 -155 -302
-290 -496 -597 -622 -982 -126 -384 -137 -876 -29 -1275 57 -212 182 -482 297
-645 120 -170 166 -224 186 -220 11 2 29 -7 41 -20 28 -29 2 -29 -31 1 -12 10
-20 14 -18 7 7 -20 180 -203 192 -203 6 0 -14 26 -46 58 -32 32 -54 62 -50 67
5 4 2 5 -6 0 -10 -6 -12 -4 -6 5 6 9 4 11 -5 5 -9 -6 -11 -4 -5 5 5 8 4 11 -3
6 -6 -3 -13 -2 -16 3 -4 5 1 8 9 7 19 -3 116 -97 110 -106 -3 -4 4 -15 15 -25
11 -10 18 -21 15 -25 -9 -14 158 -155 173 -146 6 3 16 -2 23 -12 13 -15 12
-16 -3 -3 -10 7 -18 11 -18 8 0 -6 107 -87 115 -87 3 0 3 5 -1 12 -4 7 -3 8 5
4 6 -4 9 -11 6 -16 -7 -11 96 -75 230 -142 111 -56 170 -75 180 -58 5 9 -183
181 -194 177 -3 -1 -7 3 -9 8 -2 6 -34 42 -70 81 -78 83 -195 226 -225 275
-11 19 -40 64 -63 100 -23 36 -74 130 -113 209 -160 326 -224 670 -200 1076
15 255 72 487 179 729 112 254 249 455 457 674 57 59 63 63 93 56 26 -6 31 -4
25 6 -5 8 1 5 13 -5 26 -22 30 -35 5 -15 -15 12 -16 12 -8 -1 20 -34 78 -99
85 -95 4 2 22 -12 41 -33 l34 -37 -37 34 c-53 49 -48 18 7 -40 25 -26 45 -55
45 -63 0 -9 -12 -27 -27 -40 -16 -13 -57 -49 -92 -79 -37 -32 -66 -66 -68 -79
-3 -19 5 -15 49 28 29 27 79 72 111 98 46 39 56 52 52 70 -5 17 -4 18 4 6 16
-22 14 -28 -15 -55 -15 -14 -23 -25 -19 -25 4 0 2 -6 -5 -14 -6 -8 -17 -13
-24 -10 -7 3 -57 -37 -112 -88 -54 -50 -86 -78 -70 -60 17 18 26 32 22 32 -4
0 -18 -12 -31 -27 -16 -20 -21 -33 -14 -44 11 -21 0 -32 -17 -18 -28 23 -185
-236 -250 -413 -15 -42 -32 -74 -36 -72 -5 3 -7 -5 -4 -19 2 -13 -3 -53 -11
-88 -28 -112 -19 -573 8 -489 6 18 7 10 4 -25 l-4 -50 14 50 c15 57 19 31 5
-30 -11 -47 -3 -95 12 -73 7 9 8 3 4 -17 l-6 -30 15 25 c17 30 19 22 5 -16 -9
-22 -6 -38 11 -82 19 -46 24 -52 34 -39 10 13 15 8 37 -37 18 -37 22 -53 13
-53 -8 0 -11 7 -7 15 3 10 1 13 -6 8 -8 -5 -10 -2 -6 9 4 10 2 15 -7 13 -9 -2
-13 5 -12 22 2 22 1 23 -8 7 -8 -14 -1 -35 34 -100 79 -150 132 -219 261 -345
69 -67 131 -122 138 -122 6 0 1 11 -12 25 -13 14 -19 25 -14 25 5 0 -41 51
-101 112 l-110 113 117 -115 c65 -62 115 -116 113 -119 -3 -2 2 -13 12 -23 9
-10 13 -18 8 -18 -4 0 -2 -7 5 -15 15 -18 35 -20 24 -3 -4 7 -3 8 5 4 6 -4 9
-11 6 -16 -8 -13 42 -43 56 -34 7 4 9 3 5 -4 -8 -14 30 -36 46 -26 6 4 8 3 4
-4 -3 -6 18 -23 51 -41 54 -30 83 -38 83 -25 0 4 -38 47 -85 96 -111 116 -175
207 -241 343 -178 365 -181 812 -8 1202 46 105 175 283 277 381 56 54 69 62
85 53 11 -6 74 -75 140 -153 131 -157 156 -183 170 -174 5 3 32 -19 61 -48 29
-30 49 -56 44 -59 -13 -8 -85 67 -76 78 5 4 2 5 -6 0 -10 -6 -12 -4 -6 6 6 11
5 11 -5 2 -10 -9 -4 -20 28 -55 34 -37 121 -139 200 -235 78 -95 335 -393 339
-393 3 0 -1 8 -8 18 -7 9 6 -1 29 -23 23 -21 42 -41 42 -44 0 -3 -13 8 -30 24
-59 57 -28 11 73 -108 111 -130 146 -165 134 -135 -13 36 -519 775 -543 794
-8 6 -14 14 -14 18 0 3 -59 93 -132 199 -199 292 -219 319 -251 354 l-29 31
21 31 c13 17 19 31 14 31 -4 1 4 8 20 16 15 8 31 12 36 9 14 -8 42 6 35 17 -4
6 2 7 16 3 14 -4 20 -3 16 3 -8 13 19 23 41 15 11 -4 14 -3 9 6 -6 9 0 10 21
6 22 -5 25 -4 13 5 -12 9 -7 10 20 5 27 -5 32 -4 20 5 -12 9 -7 10 20 5 27 -5
32 -4 20 5 -12 9 -7 10 19 5 25 -6 32 -4 26 5 -6 10 1 11 29 6 20 -4 36 -3 36
2 0 10 285 10 295 0 4 -4 21 -4 38 -1 23 5 28 3 22 -7 -6 -10 -2 -11 19 -6 20
5 26 4 20 -5 -5 -9 1 -10 20 -5 20 5 26 3 21 -5 -5 -8 -1 -9 14 -4 13 4 21 2
21 -5 0 -7 7 -10 15 -6 8 3 15 1 15 -5 0 -6 7 -9 15 -5 8 3 15 1 15 -5 0 -6 7
-9 15 -5 8 3 15 1 15 -5 0 -6 7 -9 15 -5 8 3 15 1 15 -5 0 -6 4 -7 10 -4 6 3
10 1 10 -5 0 -6 5 -8 10 -5 6 3 10 1 10 -5 0 -6 5 -8 10 -5 6 3 10 1 10 -5 0
-7 7 -9 16 -6 8 3 13 2 10 -3 -3 -5 1 -12 10 -15 10 -4 13 -2 9 7 -4 6 -1 5 7
-3 7 -8 20 -16 28 -18 8 -2 23 -13 32 -25 18 -23 20 -5 3 23 -8 13 -7 13 8 1
9 -7 15 -17 12 -21 -2 -4 2 -16 10 -26 14 -18 14 -18 10 4 -2 13 0 20 6 17 5
-4 7 -10 4 -15 -3 -4 4 -19 15 -31 l19 -24 -4 23 c-2 13 0 20 6 17 5 -4 7 -10
5 -14 -3 -4 9 -23 26 -42 16 -19 25 -26 18 -16 -7 9 -9 17 -5 17 4 0 1 8 -6
18 -13 15 -12 16 4 3 9 -8 15 -16 13 -19 -16 -15 124 -161 160 -166 8 -1 20
-8 27 -16 10 -10 9 -11 -3 -4 -32 18 -40 12 -19 -17 11 -16 25 -27 30 -23 5 3
7 10 4 15 -4 5 -4 9 -1 9 13 0 65 -89 56 -95 -6 -4 -10 -3 -9 2 4 15 -13 43
-22 37 -5 -3 -9 -2 -8 3 4 23 -2 36 -11 27 -16 -16 39 -97 56 -83 8 7 14 6 20
-2 4 -7 3 -9 -4 -5 -20 12 -25 -17 -6 -33 10 -9 20 -22 21 -28 6 -30 53 -123
63 -123 6 0 9 -4 5 -9 -3 -5 -1 -12 4 -16 6 -3 8 -12 4 -20 -3 -8 0 -15 6 -15
6 0 8 -7 5 -15 -4 -8 -1 -15 5 -15 6 0 8 -7 5 -15 -4 -8 -1 -15 5 -15 6 0 10
-3 9 -7 -2 -11 13 -86 21 -98 3 -5 7 -19 9 -30 2 -11 5 -27 7 -35 2 -8 4 -22
5 -30 1 -8 6 -4 10 10 l8 25 1 -27 c1 -16 -3 -28 -9 -28 -12 0 -13 -57 -1 -64
5 -3 7 -15 4 -26 -3 -11 -1 -41 3 -67 l9 -48 6 80 c4 61 5 43 6 -75 0 -125 -1
-142 -8 -87 -9 80 -17 97 -17 35 0 -24 -5 -83 -10 -133 -6 -54 -7 -91 -1 -93
5 -2 9 -11 9 -20 0 -14 -2 -15 -10 -2 -5 8 -11 12 -13 10 -8 -9 -60 -195 -61
-217 -1 -12 -3 -20 -5 -17 -2 2 -28 -45 -57 -104 -53 -107 -125 -210 -216
-310 -51 -57 -58 -72 -31 -72 18 0 149 76 160 93 3 6 1 7 -5 3 -18 -11 -14 0
5 15 11 10 14 10 9 2 -12 -22 10 -14 30 9 15 19 16 20 2 9 -30 -23 -20 -7 14
25 18 16 24 19 14 7 -26 -31 -5 -29 24 2 13 14 19 25 15 25 -5 0 22 31 60 70
37 38 71 67 75 65 16 -10 115 115 163 206 19 35 46 85 61 111 45 78 88 208 89
270 1 31 5 52 8 46 7 -12 14 21 30 152 15 117 15 104 0 230 -14 115 -40 232
-50 226 -4 -3 -6 14 -6 36 0 27 -6 44 -19 53 -10 8 -15 18 -11 24 3 6 2 11 -4
11 -6 0 -7 7 -4 17 4 11 3 14 -5 9 -7 -4 -12 -3 -12 3 0 5 6 12 13 14 7 3 4 6
-6 6 -10 1 -15 6 -12 11 3 6 1 10 -5 10 -6 0 -9 4 -5 10 8 13 -54 132 -65 125
-6 -4 -7 1 -3 11 4 11 2 15 -4 11 -6 -4 -10 1 -9 11 0 9 -4 16 -11 15 -7 -2
-10 4 -7 12 7 17 -14 48 -26 40 -4 -3 -7 3 -6 12 0 10 -6 18 -14 18 -10 0 -14
8 -12 24 3 18 0 22 -11 18 -9 -3 -21 2 -29 11 -9 11 -10 14 0 8 19 -11 14 8
-9 38 -12 15 -27 25 -34 22 -7 -2 -25 9 -41 25 -15 16 -24 29 -19 29 5 0 -6
16 -25 35 -33 34 -59 47 -44 23 5 -9 2 -9 -9 1 -18 15 -23 26 -7 16 17 -11 11
7 -7 22 -21 16 -65 37 -75 35 -4 -1 -12 7 -18 18 -6 11 -15 18 -20 15 -5 -3
-13 3 -19 12 -6 10 -11 14 -11 8 0 -5 -10 1 -21 15 -11 14 -18 18 -14 10 4
-10 2 -9 -8 2 -8 10 -17 15 -20 11 -4 -3 -7 -1 -7 5 0 28 -372 184 -399 168
-5 -4 -11 -2 -13 4 -4 13 -186 53 -215 47 -13 -2 -20 0 -16 6 4 6 -16 8 -58 4
-45 -5 -58 -4 -44 3 14 7 -38 9 -160 5 -138 -3 -207 -10 -296 -29 -134 -28
-268 -67 -354 -103 -96 -40 -112 -44 -127 -25 -11 15 -11 16 2 7 9 -5 4 1 -10
14 -14 13 -18 20 -10 16 8 -4 4 3 -10 15 -14 12 -18 19 -10 15 8 -4 4 3 -10
15 -14 12 -18 19 -10 15 8 -4 4 3 -10 14 -14 11 -20 21 -15 21 6 0 3 5 -5 10
-8 5 -15 14 -15 20 0 6 -7 15 -15 20 -8 5 -11 10 -5 10 5 0 -1 7 -13 16 -12 8
-20 19 -17 23 2 5 -7 21 -20 35 -14 15 -25 35 -25 45 0 21 33 54 44 44 4 -4
16 3 28 17 11 14 16 18 12 10 -4 -8 4 -3 19 13 26 27 44 37 31 16 -4 -8 0 -8
15 0 11 7 21 14 21 17 0 3 -4 2 -10 -1 -5 -3 -10 -4 -10 -1 0 3 14 13 31 22
17 8 28 11 25 5 -4 -6 -3 -11 2 -11 13 0 121 60 128 72 4 6 -2 6 -15 -1 -11
-7 -21 -9 -21 -7 0 3 18 15 41 27 23 11 38 15 34 9 -6 -9 -2 -9 13 -1 12 6 24
17 28 24 6 9 4 9 -7 2 -12 -8 -12 -7 1 5 13 13 15 48 15 220 l-1 205 6 -195 6
-195 2 232 c1 127 -1 238 -4 247 -9 23 -50 20 -194 -13 -166 -39 -277 -79
-437 -157 -73 -35 -140 -64 -148 -64 -8 0 -31 23 -51 50 -20 28 -40 48 -44 45
-5 -3 -12 0 -16 6 -4 8 -3 9 4 5 18 -11 14 3 -9 35 -11 16 -24 27 -29 24 -4
-3 -7 3 -6 12 0 10 -4 18 -11 18 -6 0 -15 4 -20 9 -5 5 -2 6 6 1 9 -5 12 -3 9
6 -3 8 -10 14 -15 14 -6 0 -15 4 -20 9 -5 5 -3 6 5 2 6 -4 12 -3 12 3 0 10
-19 26 -32 26 -3 0 -10 4 -15 9 -5 5 -2 6 6 1 9 -5 12 -3 9 6 -3 8 -10 14 -15
14 -6 0 -15 4 -20 9 -5 5 -2 6 6 1 9 -5 12 -3 9 6 -3 8 -10 14 -15 14 -6 0
-15 4 -20 9 -5 5 -3 6 5 2 18 -10 15 2 -9 35 -11 16 -24 27 -29 24 -4 -3 -7 3
-6 13 0 9 -4 16 -10 15 -7 -1 -11 5 -10 15 0 9 -4 16 -10 15 -7 -1 -11 5 -10
15 0 9 -4 16 -10 15 -7 -1 -11 5 -10 15 0 9 -4 16 -10 15 -7 -1 -11 5 -10 15
0 9 -4 17 -11 17 -6 0 -15 4 -20 9 -5 5 -3 6 5 2 6 -4 12 -3 12 2 0 12 -34 42
-47 42 -6 0 -55 -33 -110 -72z m-83 -292 c0 13 68 -56 116 -118 45 -57 47 -89
3 -41 -13 14 -18 23 -10 18 9 -5 12 -3 9 6 -3 8 -10 13 -15 12 -6 -1 -30 19
-54 45 l-44 47 43 -40 c23 -21 42 -35 42 -29 0 13 -75 86 -82 79 -2 -3 -13 5
-24 17 -15 18 -16 20 -1 9 9 -7 17 -10 17 -5z m1418 -31 c-3 -3 -9 2 -12 12
-6 14 -5 15 5 6 7 -7 10 -15 7 -18z m-1232 -191 c2 -14 0 -14 -17 1 -10 10
-16 22 -13 27 8 12 27 -6 30 -28z m429 -14 c10 -11 16 -20 13 -20 -3 0 -13 9
-23 20 -10 11 -16 20 -13 20 3 0 13 -9 23 -20z m-378 -37 c-2 -1 27 -34 65
-71 37 -38 68 -75 68 -83 0 -12 -2 -11 -10 1 -7 11 -10 8 -10 -16 0 -25 -13
-42 -90 -108 -56 -47 -88 -82 -84 -89 4 -7 3 -9 -1 -4 -5 4 -26 -9 -47 -30
-41 -40 -53 -69 -15 -37 l22 19 -19 -22 c-10 -13 -22 -20 -27 -18 -10 7 -114
-111 -114 -129 0 -19 -26 -47 -36 -40 -5 3 -10 0 -10 -5 -1 -6 -2 -17 -3 -23
-1 -7 -8 -12 -15 -10 -8 2 -11 -3 -8 -12 4 -9 1 -15 -6 -13 -7 1 -11 -6 -11
-15 1 -10 -3 -16 -8 -15 -6 1 -13 -4 -16 -12 -3 -9 0 -11 8 -6 9 5 11 4 6 -4
-4 -6 -11 -9 -16 -6 -5 3 -14 -3 -19 -14 -14 -26 -14 -34 1 -25 7 4 8 3 4 -5
-4 -6 -11 -9 -16 -6 -5 3 -14 -3 -19 -14 -14 -26 -14 -34 1 -25 7 4 8 3 4 -5
-4 -6 -12 -8 -18 -5 -8 5 -9 1 -5 -10 4 -11 3 -15 -4 -11 -6 4 -9 -1 -7 -11 2
-12 -2 -18 -11 -16 -9 2 -11 -3 -7 -13 4 -11 2 -14 -6 -9 -8 5 -9 2 -5 -10 5
-11 3 -15 -5 -10 -8 5 -9 2 -5 -10 5 -11 3 -15 -5 -10 -8 5 -9 2 -5 -10 5 -11
3 -15 -5 -10 -8 5 -9 2 -5 -10 5 -11 3 -15 -5 -10 -8 5 -9 2 -5 -10 5 -11 3
-15 -5 -10 -8 5 -9 2 -5 -10 4 -11 3 -15 -4 -11 -6 4 -9 1 -7 -6 4 -18 -22
-79 -33 -79 -5 0 -5 -7 -2 -17 5 -11 3 -14 -6 -8 -10 6 -11 2 -6 -15 5 -16 4
-20 -5 -15 -9 5 -10 1 -5 -15 5 -16 4 -20 -5 -15 -9 5 -10 1 -5 -15 5 -14 3
-20 -3 -16 -6 4 -8 -2 -4 -16 3 -13 1 -19 -5 -15 -7 5 -9 -1 -5 -15 3 -15 2
-19 -7 -14 -9 6 -10 0 -6 -21 5 -22 4 -25 -5 -13 -9 12 -10 8 -6 -20 5 -28 4
-31 -4 -15 -8 16 -9 11 -5 -20 3 -31 2 -35 -5 -20 -8 15 -9 11 -5 -20 4 -31 3
-36 -5 -25 -9 11 -10 7 -5 -20 5 -27 4 -31 -5 -20 -8 11 -9 5 -5 -25 5 -31 4
-37 -5 -25 -9 12 -10 5 -6 -30 5 -34 3 -40 -4 -25 -7 15 -9 6 -5 -35 3 -41 2
-49 -5 -30 -6 18 -8 5 -5 -45 2 -45 1 -57 -3 -35 -5 21 -8 -32 -9 -130 -1 -91
-5 -183 -8 -205 -4 -31 -3 -35 5 -20 7 14 9 -3 5 -60 -2 -51 -1 -71 4 -55 8
23 9 22 9 -10 0 -19 -4 -48 -7 -65 -13 -54 -26 136 -24 350 2 366 74 663 237
980 145 284 278 458 519 679 104 96 112 112 75 155 l-23 26 28 -24 c34 -31 36
-13 2 19 -14 13 -25 20 -25 15 0 -5 -13 4 -30 20 -16 16 -28 30 -25 33 2 2 -9
15 -26 29 -16 14 -26 29 -23 35 3 5 14 2 25 -8 11 -9 18 -19 16 -21z m-177
-506 c0 -2 -10 -12 -22 -23 l-23 -19 19 23 c18 21 26 27 26 19z m800 -212 c19
-19 32 -35 29 -35 -3 0 -20 16 -39 35 -19 19 -32 35 -29 35 3 0 20 -16 39 -35z
m6 -47 l29 -33 -32 29 c-31 28 -38 36 -30 36 2 0 16 -15 33 -32z m60 -30 l29
-33 -32 29 c-18 17 -33 31 -33 33 0 8 8 1 36 -29z m54 -63 c13 -14 21 -25 18
-25 -2 0 -15 11 -28 25 -13 14 -21 25 -18 25 2 0 15 -11 28 -25z m5 -45 c10
-11 16 -20 13 -20 -3 0 -13 9 -23 20 -10 11 -16 20 -13 20 3 0 13 -9 23 -20z
m52 -67 c-3 -10 -5 -4 -5 12 0 17 2 24 5 18 2 -7 2 -21 0 -30z m1584 -170 c13
-16 12 -17 -3 -4 -10 7 -18 15 -18 17 0 8 8 3 21 -13z m-1761 4 c0 -2 -10 -12
-22 -23 l-23 -19 19 23 c18 21 26 27 26 19z m-143 -139 c-2 -12 -9 -24 -15
-26 -7 -2 -10 -8 -6 -13 3 -5 -2 -12 -10 -15 -9 -3 -13 -10 -10 -15 3 -5 -2
-12 -10 -15 -9 -3 -13 -11 -9 -17 3 -6 1 -7 -5 -3 -11 7 -17 -6 -13 -27 1 -5
-4 -5 -10 -1 -9 5 -10 2 -6 -10 4 -10 1 -19 -8 -22 -8 -4 -12 -10 -9 -15 3 -5
0 -9 -7 -9 -7 0 -10 -3 -6 -6 6 -6 -53 -127 -65 -132 -4 -2 -4 -10 -1 -19 4
-11 2 -14 -5 -9 -6 4 -11 -1 -11 -11 1 -10 -7 -38 -15 -62 -9 -24 -20 -64 -23
-89 -5 -34 -8 -41 -13 -27 -16 44 -35 -131 -35 -310 1 -147 -1 -167 -8 -110
-5 39 -6 124 -4 190 9 204 49 353 146 540 51 98 148 255 157 255 2 0 2 -10 1
-22z m609 -5 c-2 -2 18 -25 45 -50 27 -25 46 -50 43 -55 -4 -5 -21 5 -40 23
-19 18 -32 35 -29 37 2 2 -5 12 -17 22 -12 9 -23 25 -24 34 -2 14 0 15 12 5 8
-6 13 -14 10 -16z m1559 -75 c39 -40 58 -62 43 -49 -16 14 -28 21 -28 16 0 -5
-16 6 -35 25 -19 18 -33 36 -30 39 3 2 -2 13 -12 23 -9 10 -14 18 -12 18 3 0
36 -33 74 -72z m-1411 -100 c-8 -12 -51 28 -51 47 0 11 9 8 28 -11 16 -15 26
-31 23 -36z m32 -36 c-3 -2 5 -13 17 -23 12 -10 19 -18 15 -19 -4 0 9 -15 29
-33 21 -20 32 -37 26 -40 -6 -4 -27 13 -48 38 -20 25 -33 45 -29 45 4 0 -5 9
-20 21 -14 11 -23 25 -20 30 3 6 11 5 20 -2 8 -6 12 -14 10 -17z m1578 -120
c3 -5 -1 -9 -9 -9 -8 0 -12 4 -9 9 3 4 7 8 9 8 2 0 6 -4 9 -8z m31 -54 c11
-24 12 -28 2 -16 -8 10 -16 16 -18 13 -3 -2 -5 5 -5 15 0 27 3 25 21 -12z m44
-93 c0 -5 -6 1 -14 15 -8 14 -14 30 -14 35 0 6 6 -1 14 -15 8 -14 14 -29 14
-35z m-1413 -13 c-3 -2 7 -14 21 -26 16 -14 22 -25 16 -29 -12 -8 -86 77 -76
87 4 3 15 -1 25 -11 10 -9 16 -18 14 -21z m1434 -37 c0 -5 -5 -3 -10 5 -5 8
-10 20 -10 25 0 6 5 3 10 -5 5 -8 10 -19 10 -25z m19 -55 c0 -10 -3 -8 -9 5
-12 27 -12 43 0 25 5 -8 9 -22 9 -30z m-1383 3 c-3 -3 11 -19 30 -35 19 -17
33 -33 30 -35 -2 -2 16 -23 40 -45 25 -23 43 -42 41 -44 -2 -2 21 -29 50 -60
30 -31 51 -59 49 -62 -3 -2 6 -14 20 -24 14 -11 23 -23 20 -25 -3 -3 6 -15 20
-25 14 -11 23 -23 20 -26 -3 -3 0 -12 6 -21 7 -9 0 -5 -15 8 -15 14 -25 26
-24 28 2 2 -16 24 -39 50 -24 26 -42 49 -39 51 2 2 -12 18 -31 34 -19 17 -33
33 -30 35 2 3 -11 18 -29 35 -19 16 -33 33 -32 37 1 4 -13 20 -31 36 -18 15
-31 30 -28 32 2 3 -11 18 -30 35 -19 16 -31 34 -28 39 3 6 12 5 20 -2 8 -6 12
-14 10 -16z m-1359 -25 c-3 -7 -5 -2 -5 12 0 14 2 19 5 13 2 -7 2 -19 0 -25z
m3120 -10 c-3 -7 -5 -2 -5 12 0 14 2 19 5 13 2 -7 2 -19 0 -25z m-358 -47 c1
-35 -5 -22 -12 24 -5 28 -4 34 3 20 5 -11 9 -31 9 -44z m-2772 -8 c-3 -10 -5
-4 -5 12 0 17 2 24 5 18 2 -7 2 -21 0 -30z m3140 -35 c-2 -13 -4 -5 -4 17 -1
22 1 32 4 23 2 -10 2 -28 0 -40z m-3150 -140 c-2 -24 -4 -5 -4 42 0 47 2 66 4
43 2 -24 2 -62 0 -85z m2800 100 c-3 -8 -6 -5 -6 6 -1 11 2 17 5 13 3 -3 4
-12 1 -19z m360 -125 c-2 -16 -4 -3 -4 27 0 30 2 43 4 28 2 -16 2 -40 0 -55z
m-340 5 c-3 -8 -6 -5 -6 6 -1 11 2 17 5 13 3 -3 4 -12 1 -19z m-2810 -130 c-2
-13 -4 -3 -4 22 0 25 2 35 4 23 2 -13 2 -33 0 -45z m3140 20 c-3 -7 -5 -2 -5
12 0 14 2 19 5 13 2 -7 2 -19 0 -25z m-4061 -75 c-4 -35 -3 -43 4 -28 8 15 9
7 5 -30 -3 -37 -2 -45 5 -30 8 15 9 9 5 -25 -4 -34 -3 -41 5 -30 9 11 10 6 5
-20 -5 -27 -4 -32 5 -20 9 12 10 7 5 -20 -5 -27 -4 -32 5 -20 9 12 10 7 5 -20
-5 -27 -4 -31 5 -20 8 12 9 8 4 -15 -4 -24 -3 -27 6 -15 9 12 10 9 5 -13 -4
-20 -2 -27 6 -22 8 5 9 0 4 -16 -4 -13 -4 -21 0 -17 8 7 57 -123 50 -131 -2
-2 0 -8 5 -15 5 -6 32 -55 59 -108 32 -64 46 -100 39 -104 -7 -4 -8 -2 -4 4 4
7 2 12 -4 12 -17 0 -103 189 -154 340 -54 160 -89 327 -80 376 9 51 17 41 10
-13z m4051 15 c-3 -7 -5 -2 -5 12 0 14 2 19 5 13 2 -7 2 -19 0 -25z m-3113
-102 c-3 -15 -8 -25 -11 -23 -2 3 -1 17 3 31 3 15 8 25 11 23 2 -3 1 -17 -3
-31z m3093 2 c-3 -8 -6 -5 -6 6 -1 11 2 17 5 13 3 -3 4 -12 1 -19z m-10 -50
c-3 -8 -6 -5 -6 6 -1 11 2 17 5 13 3 -3 4 -12 1 -19z m-290 -50 c-3 -7 -5 -2
-5 12 0 14 2 19 5 13 2 -7 2 -19 0 -25z m274 5 c-12 -20 -14 -14 -5 12 4 9 9
14 11 11 3 -2 0 -13 -6 -23z m-3027 -44 c-3 -5 -1 -9 5 -9 6 0 7 -7 4 -17 -4
-11 -3 -14 5 -9 8 5 10 1 5 -10 -5 -14 -11 -8 -25 26 -10 24 -16 51 -12 59 5
13 8 11 15 -7 5 -13 7 -28 3 -33z m2743 -11 c-3 -8 -6 -5 -6 6 -1 11 2 17 5
13 3 -3 4 -12 1 -19z m-19 -99 c-3 -8 -7 -3 -11 10 -4 17 -3 21 5 13 5 -5 8
-16 6 -23z m-11 -51 c-3 -8 -6 -5 -6 6 -1 11 2 17 5 13 3 -3 4 -12 1 -19z
m-2606 -29 c9 -17 8 -20 -2 -14 -9 6 -11 3 -6 -8 9 -24 0 -21 -14 4 -9 17 -8
20 2 14 9 -6 11 -3 6 8 -9 24 0 21 14 -4z m2804 -19 c-9 -16 -18 -30 -21 -30
-2 0 2 14 11 30 9 17 18 30 21 30 2 0 -2 -13 -11 -30z m-2774 -31 c8 -17 8
-20 -1 -14 -8 5 -11 3 -8 -6 3 -8 10 -14 16 -14 5 0 14 -4 19 -9 5 -6 2 -6 -6
-1 -11 6 -13 4 -8 -11 7 -18 6 -18 -9 1 -26 33 -38 59 -23 50 9 -6 11 -3 6 8
-9 24 0 21 14 -4z m2719 -59 c-6 -11 -13 -20 -16 -20 -2 0 0 9 6 20 6 11 13
20 16 20 2 0 0 -9 -6 -20z m-2669 -17 c13 -16 12 -17 -3 -4 -17 13 -22 21 -14
21 2 0 10 -8 17 -17z m2460 -40 c-12 -20 -14 -14 -5 12 4 9 9 14 11 11 3 -2 0
-13 -6 -23z m189 24 c0 -2 -10 -12 -22 -23 l-23 -19 19 23 c18 21 26 27 26 19z
m-2619 -24 c13 -16 12 -17 -3 -4 -17 13 -22 21 -14 21 2 0 10 -8 17 -17z m84
-123 c102 -107 103 -109 21 -30 -48 47 -101 103 -119 125 -36 47 -40 51 98
-95z m2495 97 c0 -2 -10 -12 -22 -23 l-23 -19 19 23 c18 21 26 27 26 19z
m-3525 -127 c-3 -5 -2 -10 4 -10 15 0 33 -38 21 -45 -11 -7 -42 49 -33 59 10
9 15 7 8 -4z m40 -70 c-3 -5 -2 -10 3 -10 13 0 102 -139 92 -145 -9 -5 -66 71
-72 95 -2 7 -11 22 -21 32 -15 16 -16 38 -1 38 3 0 2 -4 -1 -10z m3205 -3 c0
-2 -10 -12 -22 -23 l-23 -19 19 23 c18 21 26 27 26 19z m-2025 -47 c10 -11 16
-20 13 -20 -3 0 -13 9 -23 20 -10 11 -16 20 -13 20 3 0 13 -9 23 -20z m1955
-75 c0 -2 -10 -9 -22 -15 -22 -11 -22 -10 -4 4 21 17 26 19 26 11z m-3007 -73
c-3 -9 -3 -14 2 -10 13 12 35 -12 28 -29 -4 -10 -2 -14 4 -10 6 4 18 -2 28
-12 16 -18 16 -19 -1 -17 -21 3 -95 96 -87 109 9 14 32 -14 26 -31z m322 -340
c-3 -3 1 -12 7 -21 7 -9 -2 -3 -20 13 -17 16 -30 32 -27 34 3 3 -3 15 -12 26
-10 12 -1 6 20 -13 20 -19 35 -37 32 -39z m60 -50 c-3 -3 5 -17 17 -31 19 -21
17 -21 -9 3 -18 16 -31 32 -28 34 3 3 -3 15 -12 26 -13 15 -10 14 10 -3 15
-14 25 -27 22 -29z m40 -22 c10 -11 16 -20 13 -20 -3 0 -13 9 -23 20 -10 11
-16 20 -13 20 3 0 13 -9 23 -20z m60 -50 c10 -11 16 -20 13 -20 -3 0 -13 9
-23 20 -10 11 -16 20 -13 20 3 0 13 -9 23 -20z m221 -42 l29 -33 -32 29 c-31
28 -38 36 -30 36 2 0 16 -15 33 -32z m-170 -14 c1 -9 -1 -13 -4 -9 -4 4 -7 10
-7 13 0 4 -4 14 -9 22 -7 12 -6 13 4 3 8 -7 15 -20 16 -29z m204 -130 c0 -2
-13 2 -30 11 -16 9 -30 18 -30 21 0 2 14 -2 30 -11 17 -9 30 -18 30 -21z"/>
<path d="M2290 5466 c0 -2 8 -10 18 -17 15 -13 16 -12 3 4 -13 16 -21 21 -21
13z"/>
<path d="M2370 5366 c0 -2 8 -10 18 -17 15 -13 16 -12 3 4 -13 16 -21 21 -21
13z"/>
<path d="M2440 5285 c13 -14 26 -25 28 -25 3 0 -5 11 -18 25 -13 14 -26 25
-28 25 -3 0 5 -11 18 -25z"/>
<path d="M2119 4733 c-13 -16 -12 -17 4 -4 9 7 17 15 17 17 0 8 -8 3 -21 -13z"/>
<path d="M3520 4017 c0 -2 15 -16 33 -33 l32 -29 -29 33 c-28 30 -36 37 -36
29z"/>
<path d="M5010 4017 c0 -2 15 -16 33 -33 l32 -29 -29 33 c-28 30 -36 37 -36
29z"/>
<path d="M3615 3910 c10 -11 20 -20 23 -20 3 0 -3 9 -13 20 -10 11 -20 20 -23
20 -3 0 3 -9 13 -20z"/>
<path d="M3730 3766 c0 -2 8 -10 18 -17 15 -13 16 -12 3 4 -13 16 -21 21 -21
13z"/>
<path d="M3880 3596 c0 -2 8 -10 18 -17 15 -13 16 -12 3 4 -13 16 -21 21 -21
13z"/>
<path d="M3920 3546 c0 -2 8 -10 18 -17 15 -13 16 -12 3 4 -13 16 -21 21 -21
13z"/>
<path d="M4095 3340 c10 -11 20 -20 23 -20 3 0 -3 9 -13 20 -10 11 -20 20 -23
20 -3 0 3 -9 13 -20z"/>
<path d="M4160 3265 c13 -14 26 -25 28 -25 3 0 -5 11 -18 25 -13 14 -26 25
-28 25 -3 0 5 -11 18 -25z"/>
<path d="M2400 1696 c0 -2 8 -10 18 -17 15 -13 16 -12 3 4 -13 16 -21 21 -21
13z"/>
<path d="M3179 4863 c-13 -16 -12 -17 4 -4 16 13 21 21 13 21 -2 0 -10 -8 -17
-17z"/>
<path d="M5369 4196 c14 -15 26 -26 28 -26 9 0 -24 40 -37 45 -8 4 -4 -5 9
-19z"/>
<path d="M3830 3655 c19 -19 36 -35 39 -35 3 0 -10 16 -29 35 -19 19 -36 35
-39 35 -3 0 10 -16 29 -35z"/>
<path d="M3709 2977 c-151 -43 -239 -160 -239 -318 0 -83 15 -124 72 -191 75
-90 180 -135 288 -122 83 9 135 37 209 111 80 81 96 123 89 238 -5 67 -9 82
-44 132 -46 66 -120 128 -172 143 -64 17 -154 21 -203 7z"/>
<path d="M5350 2275 c-36 -36 -61 -65 -56 -65 12 0 130 119 124 125 -2 2 -33
-25 -68 -60z"/>
<path d="M2190 1906 c0 -2 8 -10 18 -17 15 -13 16 -12 3 4 -13 16 -21 21 -21
13z"/>
<path d="M2300 1785 c19 -19 36 -35 39 -35 3 0 -10 16 -29 35 -19 19 -36 35
-39 35 -3 0 10 -16 29 -35z"/>
</g>
</svg>
